<?xml version="1.0" encoding="UTF-8"?>
<svg data-bbox="20.5 0 297 336.802" viewBox="0 0 317.5 348.84" xmlns="http://www.w3.org/2000/svg" data-type="ugc">
    <g>
        <defs>
            <clipPath id="44550040-6793-486a-8345-ddb70b8764ed">
                <path d="M238.51 90.35v243.09H44.88V90.35z"/>
            </clipPath>
            <clipPath id="ddd8a02e-704d-469f-9a06-542f560b63ba">
                <path d="M238.51 90.35v243.09H44.88V90.35z"/>
            </clipPath>
            <clipPath id="08f4a7cd-441b-4295-83a2-d774a89e005e">
                <path d="M283.01 20.54v16.8h-15.45v-16.8z"/>
            </clipPath>
            <clipPath id="f6210a9c-7c2e-4d97-83b3-1ec66f1ca8f6">
                <path d="M294.98 13.61v48.38h-56.42V13.61z"/>
            </clipPath>
            <clipPath id="96f7f0c6-9e30-430e-aae8-fea512e3b44b">
                <path d="M269.64 35.81v90.52H199.7V35.81z"/>
            </clipPath>
            <clipPath id="0d298bec-48cf-4f1c-a7bf-ca72a4a19f7f">
                <path d="M63.17 208.58v17.18H38.92v-17.18z"/>
            </clipPath>
            <clipPath id="18ff72d1-0cc6-4fdb-97fb-c84aa90e8ae5">
                <path d="M71.1 195.68v10.8H50.57v-10.8z"/>
            </clipPath>
            <clipPath id="9aa3b90b-aed8-4757-ab9d-70a867aa9f62">
                <path d="M80.13 178.69v10.29H59.35v-10.29z"/>
            </clipPath>
            <clipPath id="c573671f-5c16-46bc-ba57-915c79ad5ad6">
                <path d="M89.05 165.36v10.29H68.28v-10.29z"/>
            </clipPath>
            <clipPath id="1d24e7a4-b284-4de0-9e1f-94b4ba21f5a6">
                <path d="M101.49 148.62v11.26H81.2v-11.26z"/>
            </clipPath>
            <clipPath id="c3307fb9-63a7-4b32-8482-b8deb79092c8">
                <path d="M114.54 135.73v11.26H94.25v-11.26z"/>
            </clipPath>
            <clipPath id="8e4e942b-531a-425e-9c90-25ed512dd128">
                <path d="M128.11 123.36v11.26h-20.29v-11.26z"/>
            </clipPath>
            <clipPath id="9b6bbabf-ed9f-4dfe-8d0b-4eb5fb7d5089">
                <path d="M140.54 114.03v6.48h-17.73v-6.48z"/>
            </clipPath>
            <clipPath id="1c528613-7830-4ac2-852e-dc64e99eb6d6">
                <path d="M310.63 75.89v94.25h-65.82V75.89z"/>
            </clipPath>
            <clipPath id="23d752bf-77f3-4f97-823e-92eba7a9abb7">
                <path d="M269.5 36.62v90.13h-66.41V36.62z"/>
            </clipPath>
        </defs>
        <g style="isolation:isolate">
            <path stroke="#231f20" stroke-width="41" stroke-miterlimit="10" fill="#ec232e" d="M287.16 195.01c0 73.636-59.694 133.33-133.33 133.33S20.5 268.646 20.5 195.01 80.194 61.68 153.83 61.68s133.33 59.694 133.33 133.33z"/>
            <path stroke-miterlimit="10" fill="none" stroke="#070b0b" d="M287.16 195.01c0 73.636-59.694 133.33-133.33 133.33S20.5 268.646 20.5 195.01 80.194 61.68 153.83 61.68s133.33 59.694 133.33 133.33z"/>
            <path stroke-miterlimit="10" fill="#231f20" stroke="#ec232e" stroke-width="29" d="M279.16 195.01c0 69.218-56.112 125.33-125.33 125.33S28.5 264.228 28.5 195.01 84.612 69.68 153.83 69.68s125.33 56.112 125.33 125.33z"/>
            <g clip-path="url(#44550040-6793-486a-8345-ddb70b8764ed)" style="mix-blend-mode:multiply" opacity=".24">
                <path d="M45.29 330.11s9.38 1.23 6.8-19.38c-2.58-20.62-9.92-95.04 43.87-151.34 0 0-8.04 10.72-7 20.52 0 0 70.53-77.11 118.54-88.21 19.72-4.56 26.03 1.91 29.5 26.18 6.18 43.21-6.9 86.97-35.31 120.11l-16.81 19.61.53-90.64s-64.37 67.26-77.87 93.86-34.62 66.81-34.62 66.81-25.25 8.77-28.04 4.75" fill="#615c5f"/>
            </g>
            <g clip-path="url(#ddd8a02e-704d-469f-9a06-542f560b63ba)" style="mix-blend-mode:multiply" opacity=".24">
                <path d="M45.29 330.11s9.38 1.23 6.8-19.38c-2.58-20.62-9.92-95.04 43.87-151.34 0 0-8.04 10.72-7 20.52 0 0 70.53-77.11 118.54-88.21 19.72-4.56 26.03 1.91 29.5 26.18 6.18 43.21-6.9 86.97-35.31 120.11l-16.81 19.61.53-90.64s-64.37 67.26-77.87 93.86-34.62 66.81-34.62 66.81-25.25 8.77-28.04 4.75" fill="#615c5f"/>
            </g>
            <path d="m136.42 276.86 5.89-9.37-7.39 2.24s12.03-6.53 13.4-18.9c1.38-12.37-18.04-2.75-18.04-2.75l-17.87 23.37 1.37 13.74 22.63-8.32Z"/>
            <path d="M273.71 40.19c-2.13 0-4.17-.68-5.88-1.96a9.82 9.82 0 0 1-3.83-6.46c-.37-2.59.29-5.18 1.86-7.27l1.13-1.51a9.86 9.86 0 0 1 7.85-3.93c2.13 0 4.17.68 5.88 1.96 4.33 3.24 5.21 9.4 1.97 13.73l-1.13 1.51a9.72 9.72 0 0 1-7.85 3.93" fill="#ffffff"/>
            <path d="M274.85 21.22c1.6 0 3.21.5 4.58 1.53a7.633 7.633 0 0 1 1.53 10.7l-1.13 1.51a7.61 7.61 0 0 1-6.12 3.06c-1.6 0-3.2-.5-4.58-1.53-3.38-2.53-4.07-7.33-1.53-10.7l1.13-1.51c1.5-2 3.8-3.06 6.12-3.06m0-4.33c-3.75 0-7.34 1.79-9.59 4.79l-1.13 1.51a11.9 11.9 0 0 0-2.27 8.88c.45 3.17 2.11 5.97 4.67 7.89 2.09 1.56 4.57 2.39 7.18 2.39 3.75 0 7.34-1.79 9.59-4.79l1.13-1.51c1.92-2.56 2.72-5.71 2.27-8.88-.46-3.17-2.11-5.96-4.67-7.88a11.85 11.85 0 0 0-7.18-2.39" fill="#070b0b"/>
            <g clip-path="url(#08f4a7cd-441b-4295-83a2-d774a89e005e)" style="mix-blend-mode:multiply" opacity=".11">
                <path d="M279.95 22.06c-3.38-2.53-8.17-1.85-10.7 1.53l-1.13 1.51c-2.53 3.38 4.2 1.11 7.58 3.64l-6.05 7.06c3.38 2.53 8.17 1.85 10.7-1.53l1.13-1.51c2.53-3.38 1.85-8.17-1.53-10.7" fill="#615c5f"/>
            </g>
            <path d="M298.92 77.06a5.16 5.16 0 0 1-3.14-1.05l-68.89-51.63a5.2 5.2 0 0 1-2.05-3.46c-.2-1.39.16-2.77 1-3.89l8.75-11.67c.99-1.32 2.56-2.1 4.2-2.1 1.14 0 2.23.36 3.15 1.05l68.88 51.63a5.2 5.2 0 0 1 2.05 3.45c.2 1.39-.15 2.77-1 3.9l-8.75 11.67a5.26 5.26 0 0 1-4.2 2.1" fill="#ffffff"/>
            <path d="M238.79 5.83c.56 0 1.12.18 1.6.53l68.88 51.63c1.18.89 1.42 2.56.53 3.74l-8.75 11.67c-.52.7-1.33 1.07-2.14 1.07-.56 0-1.12-.17-1.6-.53l-68.88-51.63a2.667 2.667 0 0 1-.53-3.74l8.75-11.67c.52-.7 1.33-1.07 2.14-1.07m0-5.15c-2.45 0-4.79 1.17-6.26 3.13l-8.75 11.67a7.82 7.82 0 0 0-1.49 5.8c.3 2.07 1.38 3.9 3.05 5.15l68.88 51.63a7.78 7.78 0 0 0 4.69 1.56c2.45 0 4.79-1.17 6.26-3.13l8.75-11.67c2.59-3.45 1.88-8.37-1.57-10.96L243.48 2.24a7.78 7.78 0 0 0-4.69-1.56"/>
            <path d="M237.11 136.29c-11.87-2.49-23.28-7.66-32.99-14.93a83 83 0 0 1-22.76-25.97l-6.24-10.42 15.44-4.35 3.7 7.75c9.66 17.17 26.41 29.46 45.87 33.55l10.02 2.41.22 14.75-13.25-2.78Z" fill="#ffffff"/>
            <path d="m188.99 84.07 2.65 5.55a71.84 71.84 0 0 0 47.89 35.13l7.74 1.86.13 8.88-9.7-2.04a80.7 80.7 0 0 1-31.85-14.42 80.7 80.7 0 0 1-21.97-25.06l-4.33-7.24zm3.13-6.91-4.7 1.32-9.44 2.66-7.29 2.06 3.89 6.5 4.3 7.17a86.1 86.1 0 0 0 23.51 26.8c10.04 7.53 21.85 12.87 34.13 15.45l9.7 2.04 7.1 1.49-.11-7.25-.13-8.87-.07-4.5-4.37-1.05-7.74-1.86-.08-.02-.08-.02a66.04 66.04 0 0 1-43.93-32.14l-2.57-5.37-2.11-4.41Z" fill="#070b0b"/>
            <path d="M89.68 218.22c-.09.85-.18 1.67-.27 2.47 4.51 3.12 8.5 2.73 8.5 2.73-3.66 4.29-7.14 6.56-9.69 7.76-.31 2.5-.59 4.63-.89 6.47 6.42-4.01 13.15-9.91 15.54-17.89 4.67-15.62-5.07-24.33-5.76-24.91l-1.05-.82c-2.37 3.89-4.87 10.29-6 20.68z" fill="#ec232e"/>
            <path d="m269.49 36.63-57.56 59.38a29.86 29.86 0 0 0-8.31 18.26l-.52 6.19c-.1 1.24.46 2.31 1.33 2.97.88.66 2.07.89 3.23.44l5.79-2.24a29.83 29.83 0 0 0 15.19-13.1l40.85-71.91Z" fill="#ffffff"/>
            <path d="M91.39 134.92c2.73 1.45 5.59 3.09 8.56 4.95" stroke="#ffffff" stroke-linecap="round" stroke-linejoin="round" stroke-width="4.25" fill="none"/>
            <path d="M99.95 139.87c-2.98-1.86-5.83-3.51-8.56-4.95" stroke="#ffffff" stroke-linecap="round" stroke-linejoin="round" stroke-width="4.25" fill="none"/>
            <path d="M79.45 148.46c2.59 1.25 5.33 2.7 8.21 4.39" stroke="#ffffff" stroke-linecap="round" stroke-linejoin="round" stroke-width="4.25" fill="none"/>
            <path d="M68.62 162.7c2.53 1.09 5.23 2.41 8.12 4.01" stroke="#ffffff" stroke-linecap="round" stroke-linejoin="round" stroke-width="4.25" fill="none"/>
            <path d="M87.66 152.85c-2.88-1.69-5.62-3.15-8.21-4.39" stroke="#ffffff" stroke-linecap="round" stroke-linejoin="round" stroke-width="4.25" fill="none"/>
            <path d="M58.78 177.5c2.55.96 5.34 2.2 8.36 3.81" stroke="#ffffff" stroke-linecap="round" stroke-linejoin="round" stroke-width="4.25" fill="none"/>
            <path d="M76.73 166.71a90 90 0 0 0-8.12-4.01" stroke="#ffffff" stroke-linecap="round" stroke-linejoin="round" stroke-width="4.25" fill="none"/>
            <path d="M58.86 196.58c-3.34-1.8-6.34-3-8.99-3.83" stroke="#ffffff" stroke-linecap="round" stroke-linejoin="round" stroke-width="4.25" fill="none"/>
            <path d="M41.88 208.31c2.78.64 6.12 1.86 9.96 4.13" stroke="#ffffff" stroke-linecap="round" stroke-linejoin="round" stroke-width="4.25" fill="none"/>
            <path d="M49.87 192.75c2.65.82 5.66 2.03 8.99 3.83" stroke="#ffffff" stroke-linecap="round" stroke-linejoin="round" stroke-width="4.25" fill="none"/>
            <path d="M67.14 181.32a69 69 0 0 0-8.36-3.81" stroke="#ffffff" stroke-linecap="round" stroke-linejoin="round" stroke-width="4.25" fill="none"/>
            <g clip-path="url(#f6210a9c-7c2e-4d97-83b3-1ec66f1ca8f6)" style="mix-blend-mode:multiply" opacity=".11">
                <path fill="#615c5f" d="m252.16 13.61-13.6 18.15 42.37 30.23 14.05-17.59z"/>
            </g>
            <path d="M32.9 226.52c.53-1.74 1.09-3.49 1.68-5.23-.12.39-.24.78-.36 1.16a4.91 4.91 0 0 0 1.75 5.33c.46.34.97.6 1.52.77 1.16.35 2.35.24 3.38-.21a4.87 4.87 0 0 0 2.71-3.06c.66-2.19 1.37-4.37 2.14-6.55q.765-2.175 1.59-4.35c.83-2.17 1.71-4.33 2.63-6.49.62-1.43 1.25-2.87 1.91-4.3.33-.71.66-1.43 1-2.14 2.04-4.27 4.26-8.49 6.64-12.66.4-.69.8-1.38 1.21-2.07.81-1.38 1.65-2.76 2.5-4.12 1.28-2.05 2.59-4.08 3.94-6.09.91-1.34 1.83-2.67 2.76-4 .47-.66.94-1.32 1.42-1.98.95-1.31 1.92-2.62 2.91-3.91a226 226 0 0 1 6.51-8.12c1.43-1.7 2.89-3.39 4.38-5.05 0 0 0-.01.01-.01.54-.61 1.09-1.21 1.64-1.81 2.21-2.4 4.47-4.76 6.78-7.05l1.74-1.71c1.17-1.13 2.35-2.26 3.54-3.36 1.19-1.11 2.4-2.2 3.62-3.27 1.22-1.08 2.44-2.13 3.68-3.18a219 219 0 0 1 3.75-3.08c1.26-1.01 2.53-2 3.81-2.98 8.32-6.34 17.06-11.95 26.07-16.66.58-.3 1.08-.71 1.49-1.19a4.7 4.7 0 0 0 .8-1.4 4.9 4.9 0 0 0-.23-4.01 4.84 4.84 0 0 0-2.61-2.31c-.33-.12-.67-.21-1.02-.26-.1-.01-.21-.03-.31-.03-.45-.04-.91-.01-1.36.08.45-.09.91-.11 1.36-.08.1 0 .21.02.31.03 1.41-.72 5.08.08 6.5-.59a8.58 8.58 0 0 0-8.89-.63c-23.68 12.37-45.87 30.56-64.16 52.63-17.94 21.64-31.31 45.96-38.66 70.31-.87 2.89-2.38 4.5-.4 6.69.11-.4.22-.8.33-1.19-.2-.59-.23-1.24-.03-1.88m30.26-61.39c-.87 1.21-1.73 2.43-2.58 3.65.85-1.22 1.7-2.44 2.58-3.65"/>
            <path d="M85.82 295.04c1-1.99 2.04-4.04 3.14-6.16-11.41-16.65-25.83-25.8-35.93-30.54-7.16-3.36-13.22-5.05-16.62-5.82-.33 2.72-.58 5.44-.74 8.13 10.01 2.55 28.81 10.39 50.15 34.38" fill="#ffffff"/>
            <path d="M83.4 299.93c-3.75-4.32-7.42-8.1-10.95-11.41l-3.43 2.28c.25-1.4-.98-4.9-1.75-6.89-8.72-7.35-16.39-11.8-22.16-14.46-4.22-1.94-7.82-3.13-10.61-3.85-.16.06-.33.09-.5.09-1.45 0-2.61 1.22-2.53 2.67l2.41 44.25v.09c-.11 5.25 2.38 9.94 6.27 12.86 2.66 1.99 5.96 3.16 9.55 3.12 12.49-.14 23.79-7.46 29-18.8 1.39-3.02 2.97-6.35 4.71-9.94" fill="#615c5f"/>
            <path d="M75.17 249.75s27.28-8.32 33.25-28.32-7.64-31.06-7.64-31.06l1.24-8.52s-14.43 2.07-17.72 32.23c-3.29 30.17-2.95 29.14-9.13 35.67m21.94-54.9c.68.59 10.42 9.29 5.76 24.91-2.38 7.97-9.12 13.88-15.54 17.89.3-1.84.59-3.97.89-6.47 2.54-1.2 6.03-3.47 9.68-7.76 0 0-3.98.4-8.49-2.73.08-.8.18-1.62.27-2.47l.38-3.51c1.13-10.39 3.63-16.79 6-20.68z" fill="#070b0b"/>
            <path d="M114.06 153.94a3.206 3.206 0 1 0 3.85-5.13 3.206 3.206 0 0 0-4.49.64 3.206 3.206 0 0 0 .64 4.49" fill="#070b0b"/>
            <path d="M134.95 165.81a3.206 3.206 0 1 0 3.85-5.13 3.206 3.206 0 0 0-4.49.64 3.206 3.206 0 0 0 .64 4.49" fill="#070b0b"/>
            <path d="M103.89 167.51a3.206 3.206 0 1 0 3.85-5.13 3.206 3.206 0 0 0-4.49.64 3.206 3.206 0 0 0 .64 4.49" fill="#070b0b"/>
            <path d="M124.79 179.38a3.206 3.206 0 1 0 3.85-5.13 3.206 3.206 0 0 0-4.49.64 3.206 3.206 0 0 0 .64 4.49" fill="#070b0b"/>
            <path d="M152.67 181.16a3.206 3.206 0 1 0 3.85-5.13 3.206 3.206 0 0 0-4.49.64 3.206 3.206 0 0 0 .64 4.49" fill="#070b0b"/>
            <path d="M142.5 194.73a3.206 3.206 0 1 0 3.85-5.13 3.206 3.206 0 0 0-4.49.64 3.206 3.206 0 0 0 .64 4.49" fill="#070b0b"/>
            <path d="M163.33 235.63h-.01v.01s.01 0 .02-.01" fill="#070b0b"/>
            <path d="M125.19 244.31s22.54-5.44 27.34-21.59l-13.88-.96s11.96-2.2 19.93-13.41l-4.47-3.78s15.87-.55 13.67-14.23l.78-.73c-.74.19-2.25 1-3.62 1.84-16.68 18.03-42.37 47.29-54.65 68.96-1.05 1.94-2.06 3.87-3.03 5.78-.14.29-.28.58-.41.87-3.7 8.01-6.61 14.11-8.89 18.76-2.31 5.21-4.4 10.15-6.36 14.75 5.58-.54 23.33-4.05 40.61-26.69l-.16-.11.33-.11.37-.49s-8.31 3.64-18.49-.55c0 0 26.26-2.2 28.32-21.3l.04.05c-2.48-.28-8.02-.46-15.48-5.32-.7-.46-1.33-1.08-1.96-1.75" fill="#ffffff"/>
            <path d="M91.61 300.57c1.96-4.61 4.05-9.55 6.36-14.76 2.28-4.65 5.19-10.75 8.89-18.76.13-.29.27-.58.41-.87.98-1.91 1.99-3.83 3.03-5.78 12.28-21.67 37.97-50.92 54.65-68.95 1.36-.84 2.87-1.65 3.62-1.84l-.78.74c2.2 13.67-13.67 14.23-13.67 14.23l4.47 3.78c-7.97 11.2-19.93 13.4-19.93 13.4l13.88.96c-4.8 16.15-27.34 21.59-27.34 21.59.63.66 1.29 1.24 1.96 1.74 2.55 1.92 5.32 2.74 7.8 3.03l-2.25-.66 14.54-5.6.37.42.34-.51c-.17.05-8.38 1.78-10.43 1.83 4.93-2.46 10.52-6.13 14.62-11.33l-2.32-.5 5.9-5.35c.48-1.06.9-2.17 1.25-3.33l1.65-5.55-3-.21c.98-.81 1.94-1.7 2.89-2.67l-3.78-1 9.01-7.66.17-.14-.08-.07c.13-.07.27-.14.4-.21l5.63-4.78s.04-.05.06-.08v.03l7.24-6.16 11.58-9.85-.14 1.46 17.85-34.91c.74-1.4-.87-2.87-2.19-2-17.23 11.3-32.83 25.01-46.79 39.76-19.55-21.11-37.13-31.22-48.65-36.01-7.46-3.1-14.99-4.62-20.26-5.35-1.59 1.77-3.14 3.57-4.67 5.38 4.26.4 13.85 1.69 23.08 5.58 10.94 4.61 27.7 14.35 46.47 34.72-27.73 30.38-48.64 64.48-62.5 90.7-11.74-16.37-26.2-25.47-36.44-30.25-7.69-3.59-14.08-5.33-17.6-6.11 1-6.67 2.49-13.4 4.44-20.14a5.19 5.19 0 0 1-5.23-.59 5.21 5.21 0 0 1-1.86-5.68c.12-.41.25-.83.38-1.24-.63 1.86-1.23 3.72-1.79 5.58-.21.68-.18 1.38.04 2.01-.12.42-.23.85-.35 1.27-2.56 9.58-4.19 19.02-4.86 28.26-.03.45-.26.86-.63 1.13-.47.34-.92.72-1.32 1.15a9.16 9.16 0 0 0-2.48 6.77l2.48 45.63a23.8 23.8 0 0 0 9.52 19.24c4.22 3.16 9.24 4.8 14.52 4.74 7.67-.09 15.12-2.34 21.55-6.51a40.4 40.4 0 0 0 14.74-17.02c1.15-2.5 2.31-5.16 3.52-7.97h.12c.99.03 24.28.26 46.35-28.8l-3.84-2.61c-17.28 22.63-35.03 26.15-40.61 26.69m-55.19-48.05c3.4.78 9.46 2.46 16.62 5.82 10.1 4.74 24.52 13.88 35.93 30.54-1.09 2.11-2.14 4.17-3.14 6.16-21.34-24-40.14-31.83-50.15-34.39.16-2.69.41-5.41.74-8.13m13.27 76.14c-3.59.04-6.9-1.13-9.55-3.12-3.89-2.92-6.38-7.61-6.27-12.86v-.09l-2.41-44.25a2.535 2.535 0 0 1 2.53-2.67c.18 0 .34-.04.5-.09 2.8.72 6.39 1.91 10.61 3.85 5.78 2.66 13.44 7.11 22.16 14.46.78 1.99 2.01 5.49 1.75 6.89l3.43-2.28c3.53 3.31 7.2 7.09 10.95 11.41-1.75 3.59-3.32 6.92-4.71 9.94-5.22 11.35-16.52 18.66-29 18.8" fill="#070b0b"/>
            <path d="M76.97 162.7a204 204 0 0 0-3.1 4.17c-.51.7-1.01 1.41-1.51 2.11q-1.5 2.115-2.94 4.26c-1.45 2.15-2.85 4.32-4.21 6.5-.91 1.46-1.8 2.92-2.67 4.4-.43.74-.86 1.47-1.29 2.22-2.55 4.44-4.91 8.95-7.09 13.5-.36.76-.72 1.52-1.07 2.28-.7 1.52-1.38 3.05-2.04 4.58-.99 2.3-1.92 4.61-2.81 6.92-.59 1.54-1.15 3.09-1.7 4.64q-1.215 3.495-2.28 6.99a5.24 5.24 0 0 1-2.89 3.27c-1.95 6.73-3.45 13.46-4.44 20.13 3.53.78 9.91 2.52 17.6 6.11 10.24 4.78 24.7 13.88 36.44 30.25 13.86-26.22 34.77-60.32 62.5-90.7-18.77-20.36-35.53-30.11-46.47-34.72-9.24-3.89-18.82-5.18-23.09-5.58-1.83 2.17-3.62 4.37-5.36 6.6-.53.68-1.06 1.37-1.59 2.06m69.39 26.9c1.41 1.06 1.7 3.07.64 4.49a3.197 3.197 0 0 1-4.49.64 3.206 3.206 0 1 1 3.85-5.13m-17.72-15.35a3.197 3.197 0 0 1 .64 4.49 3.215 3.215 0 0 1-4.49.64 3.197 3.197 0 0 1-.64-4.49 3.206 3.206 0 0 1 4.49-.64m-26.61 7.61-1.23 8.52s13.61 11.06 7.63 31.06c-5.97 20-33.25 28.32-33.25 28.32 6.18-6.53 5.84-5.5 9.13-35.67s17.72-32.23 17.72-32.23m5.72-19.48a3.197 3.197 0 0 1 .64 4.49 3.206 3.206 0 1 1-5.13-3.85 3.206 3.206 0 0 1 4.49-.64" fill="#615c5f"/>
            <path d="M215.22 261.17a214.3 214.3 0 0 0 28.62-57.15 213 213 0 0 0 8.51-37.18l4.3-.34c10.92-.86 21.01-5.17 29.19-12.46 8.11-7.23 13.53-16.66 15.68-27.3l12.91-46.85 3.07-11.13-62.67 13.81.04-4.8 23.79-41.87c1.73-3.04.93-6.9-1.88-9a6.966 6.966 0 0 0-9.17.72l-36.08 37.22-1.36.39L225.75 0l-9.82 6.07-41.35 25.54c-9.61 5.05-17.14 12.9-21.8 22.71-4.7 9.89-6 20.79-3.77 31.52l.98 4.7c-.07.03.48 3.33.41 3.37-1.52.72-.22 3.28-1.73 4.05 0 0 .22 5.5-1.53.9.37.05-.24-2.3.11-2.17.46.17-.03-3.13.37-2.83.63.47 1.13 1.06 1.49 1.76.65 1.24.77 2.65.35 3.98-.03.1-.07.2-.11.3 8.98-4.54 18.27-8.3 27.77-11.17l45.88-13-15.51 16a36.13 36.13 0 0 0-10.03 22.04l-.52 6.19a9.49 9.49 0 0 0 3.79 8.44 9.49 9.49 0 0 0 9.16 1.27l5.79-2.24c7.73-2.99 14.25-8.6 18.34-15.81l12.63-22.22-.43 50.11c-.47 54.43-23.52 103.28-59.97 140.6l1.25 1.9-5.49-2.63c-.41.45-1.06 9.72-8.03 15.15-.03.03-.08.06-.12.1-1.5 1.17-3.12 2.36-4.85 3.56-3.79 2.63-8.1 5.25-12.81 7.51 8.68-3.88 23.37-11.22 32.68-16.66 2.87-1.64 13.99-10.31 26.35-27.85M203.02 74.63l-1.18.36c-.8.24-1.61.49-2.43.74-5.36 1.65-11.31 3.54-17.5 5.61-.95.32-1.91.64-2.88.97-.48.16-.96.33-1.45.49a511 511 0 0 0-4.38 1.51c-5.38 1.88-10.83 3.87-16.14 5.94l-1.22-5.86a42 42 0 0 1-.76-5.29c-.14-1.76-.18-3.51-.1-5.25.05-1.16.14-2.31.29-3.45.21-1.71.53-3.41.94-5.07.28-1.11.6-2.21.96-3.29a42.74 42.74 0 0 1 12.17-18.41 43 43 0 0 1 8.71-5.99l41.56-25.67 3.83 56.75s-8.32 2.23-20.41 5.89m10.42 47.02-5.79 2.24c-1.15.45-2.35.21-3.22-.45a3.3 3.3 0 0 1-1.33-2.97l.52-6.19c.58-6.86 3.52-13.31 8.31-18.26l57.56-59.38-40.85 71.91a29.83 29.83 0 0 1-15.19 13.1m36.67 38.41c.5-5.68.88-11.47 1.18-17.16.03-.52.05-1.04.08-1.55l.15-3.08c.02-.51.05-1.02.07-1.53.05-1.02.08-2.03.12-3.03.25-6.53.39-12.77.48-18.38l.03-2.54c0-.42 0-.83.01-1.24.12-12.63-.07-21.24-.07-21.24l55.55-12.24-12.98 47.09c-.7 3.53-1.82 6.9-3.3 10.04a43 43 0 0 1-1.61 3.07c-.29.5-.59.99-.89 1.48a42.9 42.9 0 0 1-11.75 12.29c-.94.65-1.9 1.27-2.89 1.84a44 44 0 0 1-4.61 2.33 43 43 0 0 1-8.3 2.62c-1.73.36-3.49.61-5.29.75l-5.97.47Z" fill="#070b0b"/>
            <path d="m181.19 200.25-13.42 11.41 11.22 2.97-16.07 14.57 15.53 3.34c-6.78 7.52-26.48 15.08-26.48 15.08l21.35 6.27c-12.04 16.45-27.48 21.77-27.48 21.77 8.89 6.09 24.65 3.02 24.65 3.02C158.58 293.8 132.84 306 132.84 306c26.07-1.93 48.28-26.22 48.28-26.22-3.32-43.5.07-79.53.07-79.53" fill="#ffffff"/>
            <path d="m203.5 184.83-16.15 16c-.03.36-3.3 36.06-.06 78.48l.05.66c36.05-37.24 58.41-86.4 58.87-140.5l.43-50.11-12.63 22.22a36.1 36.1 0 0 1-18.34 15.81l-5.61 2.17c-2.87 1.11-6.13.89-8.73-.77-3.04-1.94-4.7-5.32-4.4-8.86l.52-6.19c.7-8.26 4.26-16.09 10.03-22.04l15.51-16-45.88 13c-9.5 2.87-18.79 6.64-27.77 11.17-.09.23-.18.44-.29.65q-.24.45-.57.84c-.44.52-.97.95-1.59 1.27-9.61 5.02-18.93 11-27.81 17.77-1.37 1.04-2.72 2.1-4.07 3.18s-2.68 2.17-4 3.29q-1.98 1.665-3.93 3.39c-1.3 1.15-2.58 2.31-3.86 3.49-1.27 1.18-2.54 2.37-3.78 3.59-.63.61-1.24 1.21-1.86 1.83-2.47 2.45-4.88 4.96-7.24 7.53-.59.65-1.18 1.29-1.77 1.95 5.27.74 12.8 2.26 20.26 5.35 11.52 4.78 29.1 14.89 48.65 36.01 13.96-14.75 29.56-28.47 46.79-39.76 1.33-.87 2.94.6 2.19 2l-11.59 22.68c-.24.47-.48.95-.7 1.42l3.31-3.75 6 12.23Zm-85.38-31.06c-.95.87-2.37 1.07-3.53.5a3.214 3.214 0 0 1-.76-5.29c.95-.87 2.37-1.07 3.53-.5 2.07 1.01 2.45 3.73.76 5.29m20.9 11.87c-.95.87-2.37 1.07-3.53.5-2.07-1.01-2.45-3.73-.76-5.29.95-.87 2.37-1.07 3.53-.5a3.213 3.213 0 0 1 .76 5.29m17.71 15.35c-.95.87-2.37 1.07-3.53.5a3.214 3.214 0 0 1-.76-5.28c.95-.87 2.37-1.07 3.53-.51a3.223 3.223 0 0 1 .76 5.29" fill="#615c5f"/>
            <path d="M187.34 279.98c-.22.23-.44.46-.66.68l.61-1.35c-3.24-42.42.03-78.13.06-78.48.8-8.51 3.11-16.8 6.83-24.49l-16.99 19.2-7.24 6.16-.06.05-5.63 4.78-.32.27-.17.14-9.01 7.66 3.78 1 7.65 2.03.22.06-7.64 6.93-3.03 2.74-5.9 5.35 2.32.5 9.46 2.03 1.7.37h.01s-.01 0-.02.01c-4.73 2.53-9.9 4.82-13.55 6.22l-2.5.96-14.54 5.6 2.25.66 7.64 2.24 4.51 1.32 3.13.92 3.23.95 8.97 2.63c-6.56 6.6-13.16 10.21-16.46 11.76-1.26.59-2.05.88-2.16.92l-3.68 1.23-7.75 2.6-.33.11.16.11 3.84 2.61 4.41 3 1.88 1.28c3.33 2.29 7.51 3.77 12.48 4.45-11.28 8.8-24.45 15.1-24.63 15.19l-.72.34-29.2 13.86 22.96-1.7 10.07-.74c8.19-.61 15.97-3.15 22.9-6.49 4.7-2.26 9.01-4.89 12.8-7.52 1.73-1.2 3.35-2.4 4.85-3.56.04-.03.08-.07.13-.1 6.97-5.43 11.3-10.1 11.71-10.55l1.81-1.98v-.12l-.15-1.88ZM132.84 306s25.74-12.19 37.65-27.32c0 0-15.76 3.08-24.65-3.02 0 0 15.44-5.32 27.48-21.77l-21.35-6.27s19.7-7.57 26.48-15.08l-15.53-3.34L179 214.63l-11.22-2.98 13.42-11.41s-3.39 36.03-.07 79.53c0 0-22.21 24.29-48.28 26.22"/>
            <path d="M186.68 280.66c.22-.23.44-.46.66-.68l-.05-.66-.61 1.35Z"/>
            <path d="m187.35 200.83 16.15-16-6-12.23-3.32 3.75a71.6 71.6 0 0 0-6.83 24.49Z" fill="#615c5f"/>
            <path d="M78.64 263.59a3.2 3.2 0 0 1-4.52.31 3.2 3.2 0 0 1-.31-4.52 3.2 3.2 0 0 1 4.52-.31 3.2 3.2 0 0 1 .31 4.52" fill="#070b0b"/>
            <g clip-path="url(#96f7f0c6-9e30-430e-aae8-fea512e3b44b)" style="mix-blend-mode:multiply" opacity=".5">
                <path d="M269.65 35.81s-47.13 78.57-65.21 87.61c-18.08 9.05 21.5-5.94 21.5-5.94l43.72-81.67Z" fill="#615c5f"/>
            </g>
            <path d="m34.11 220-1.88 8.85 3.2 6.6L37 249.46s12.74-55.56 47.12-96.43 88.44-63.2 88.44-63.2l-23.07 2.31-66.65 53.82z"/>
            <path d="M41.34 227.45c-.43 0-.87-.06-1.28-.19-.5-.15-.96-.38-1.37-.7a4.43 4.43 0 0 1-1.58-4.82c1.16-3.83 2.5-7.74 3.98-11.62.1-.48.27-.93.52-1.35 4.07-10.38 9.26-20.71 15.42-30.7.06-.14.23-.41.42-.66 4.99-8.07 10.77-16.1 17.06-23.69 13.52-16.32 28.99-30.26 45.98-41.46.3-.26.63-.48.98-.64 4.98-3.24 10.07-6.22 15.16-8.87a4.45 4.45 0 0 1 4.7.38c.53.4.96.9 1.27 1.49.54 1.04.65 2.24.3 3.37a4.38 4.38 0 0 1-2.17 2.6c-.44.23-.87.46-1.3.69.29.11.57.22.85.34 1.09.45 1.94 1.3 2.39 2.39.46 1.09.46 2.29 0 3.38a4.38 4.38 0 0 1-2.9 2.57c-.39.11-.78.16-1.18.16-.58 0-1.15-.11-1.69-.34-2.08-.86-4.15-1.3-6.15-1.3-1.71 0-3.42.32-5.06.96l-1.68 1.11c.92.27 1.84.59 2.74.97 1.09.45 1.94 1.3 2.39 2.39a4.4 4.4 0 0 1 0 3.38 4.38 4.38 0 0 1-2.9 2.57c-.39.11-.79.16-1.19.16-.58 0-1.15-.11-1.69-.34-2.09-.86-4.16-1.3-6.16-1.3-1.83 0-3.64.37-5.38 1.09-1.14.9-2.27 1.82-3.39 2.75 1.48.33 2.95.79 4.41 1.4 1.09.45 1.94 1.3 2.4 2.39a4.4 4.4 0 0 1 0 3.38 4.4 4.4 0 0 1-4.09 2.73c-.58 0-1.15-.11-1.69-.34-2.09-.87-4.16-1.3-6.16-1.3-1.81 0-3.61.36-5.35 1.08-1.09 1.04-2.16 2.09-3.23 3.15 1.98.31 3.91.87 5.83 1.66 1.09.45 1.94 1.3 2.39 2.39a4.4 4.4 0 0 1 0 3.38 4.407 4.407 0 0 1-5.77 2.39c-2.09-.86-4.16-1.3-6.16-1.3-1.81 0-3.6.36-5.33 1.07-1.83 2.07-3.64 4.2-5.38 6.34 2.35.25 4.7.87 7.03 1.83 1.09.45 1.94 1.3 2.39 2.39a4.4 4.4 0 0 1 0 3.38 4.37 4.37 0 0 1-2.91 2.57c-.38.11-.78.16-1.18.16-.58 0-1.15-.11-1.69-.34-2.09-.86-4.16-1.3-6.15-1.3-1.65 0-3.29.3-4.88.89-.96 1.32-1.89 2.65-2.82 3.99 2.57.2 5.16.83 7.71 1.89 1.09.45 1.94 1.3 2.39 2.39a4.4 4.4 0 0 1 0 3.38 4.38 4.38 0 0 1-2.91 2.57c-.38.11-.78.16-1.18.16-.58 0-1.15-.11-1.69-.34-2.09-.86-4.16-1.3-6.16-1.3-1.45 0-2.89.23-4.3.69-1.48 2.43-2.91 4.9-4.27 7.36 2.94.09 5.91.75 8.83 1.96 2.26.93 3.33 3.52 2.4 5.78a4.407 4.407 0 0 1-5.77 2.39c-2.09-.87-4.16-1.3-6.16-1.3-1.41 0-2.8.22-4.17.65-.72 1.5-1.41 3.01-2.08 4.51h.03c3.17 0 6.37.66 9.52 1.96 2.25.93 3.33 3.52 2.4 5.78a4.38 4.38 0 0 1-2.91 2.57 4.46 4.46 0 0 1-2.87-.17c-2.09-.86-4.15-1.3-6.15-1.3-1.3 0-2.61.19-3.88.56-1.23 3.27-2.35 6.58-3.33 9.84a4.4 4.4 0 0 1-2.14 2.61c-.64.35-1.37.53-2.09.53" fill="#ffffff"/>
            <path d="M138.69 104.01c.57 0 1.14.18 1.61.53.32.24.58.55.77.91.33.63.4 1.36.18 2.05-.22.68-.68 1.24-1.32 1.57-1.69.88-3.37 1.8-5.04 2.74 1.51.29 3.09.75 4.73 1.43 1.37.57 2.02 2.14 1.45 3.51a2.7 2.7 0 0 1-2.48 1.66c-.34 0-.69-.07-1.02-.2-2.31-.95-4.59-1.43-6.82-1.43-1.99 0-3.96.38-5.87 1.15-1.75 1.15-3.5 2.33-5.22 3.55 2 .23 4.15.75 6.43 1.69 1.37.57 2.02 2.13 1.45 3.5-.33.8-.99 1.35-1.76 1.56-.23.07-.47.1-.72.1-.34 0-.69-.07-1.02-.2-2.31-.96-4.59-1.43-6.82-1.43s-4.24.44-6.28 1.32c-2.23 1.77-4.43 3.59-6.59 5.46 2.39.11 5.03.64 7.85 1.81 1.37.57 2.02 2.14 1.45 3.5-.33.8-.99 1.35-1.76 1.56-.23.06-.47.1-.72.1-.34 0-.69-.07-1.02-.2-2.31-.96-4.59-1.43-6.82-1.43s-4.25.44-6.29 1.33h-.03a206 206 0 0 0-6.12 6.08h.17c2.65 0 5.63.5 8.85 1.83 1.37.57 2.02 2.13 1.45 3.5-.33.8-.99 1.35-1.76 1.56-.23.07-.47.1-.72.1-.34 0-.69-.07-1.02-.2-2.31-.96-4.59-1.43-6.82-1.43s-4.25.44-6.29 1.32c-.03.01-.05.02-.08.03-2.72 3.06-5.35 6.21-7.89 9.42.34-.02.69-.03 1.04-.03 2.65 0 5.63.5 8.86 1.83 1.37.57 2.02 2.14 1.45 3.51a2.7 2.7 0 0 1-2.48 1.66c-.34 0-.69-.07-1.02-.21-2.31-.95-4.58-1.43-6.81-1.43-2.04 0-4.04.4-5.99 1.2-1.71 2.35-3.37 4.73-4.97 7.14.47-.03.96-.05 1.45-.05 2.65 0 5.63.5 8.85 1.83 1.37.57 2.02 2.13 1.45 3.5-.33.8-.99 1.35-1.76 1.56-.23.07-.47.1-.72.1-.34 0-.69-.07-1.02-.2-2.31-.96-4.59-1.43-6.82-1.43q-2.79 0-5.46.99a202 202 0 0 0-6.09 10.65c.73-.08 1.5-.12 2.29-.12 2.65 0 5.63.5 8.85 1.83 1.37.57 2.02 2.13 1.45 3.5-.33.8-1 1.35-1.76 1.56-.23.07-.47.1-.72.1-.34 0-.69-.07-1.02-.2-2.31-.96-4.59-1.43-6.82-1.43-1.84 0-3.65.33-5.42.98-1.26 2.6-2.44 5.21-3.57 7.84.88-.12 1.8-.18 2.77-.18 2.65 0 5.63.5 8.86 1.83 1.37.57 2.02 2.13 1.45 3.5-.33.8-.99 1.35-1.76 1.56-.23.07-.47.1-.72.1-.34 0-.69-.07-1.02-.2-2.31-.96-4.59-1.43-6.82-1.43-1.77 0-3.51.3-5.21.9q-2.04 5.34-3.66 10.74c-.21.68-.67 1.25-1.3 1.59-.4.21-.83.32-1.26.32q-.39 0-.78-.12a2.6 2.6 0 0 1-.83-.42c-.9-.67-1.28-1.85-.96-2.92 1.17-3.89 2.51-7.77 4-11.65.06-.37.2-.73.4-1.04 4.05-10.36 9.21-20.62 15.34-30.57.08-.17.18-.34.31-.49a214 214 0 0 1 17.04-23.66c13.41-16.18 28.99-30.18 45.71-41.18.22-.2.47-.37.76-.5 4.95-3.22 10-6.19 15.12-8.86.39-.2.81-.3 1.24-.3m-.01-3.53c-.99 0-1.98.24-2.85.7-5.1 2.67-10.22 5.66-15.21 8.9-.42.21-.8.46-1.17.76-17.1 11.28-32.66 25.32-46.28 41.74-6.31 7.61-12.1 15.65-17.23 23.91a4.7 4.7 0 0 0-.46.75c-6.16 10.01-11.35 20.34-15.44 30.74-.28.5-.49 1.04-.62 1.6-1.49 3.89-2.82 7.8-3.98 11.62-.74 2.47.14 5.16 2.2 6.71.58.43 1.22.76 1.92.97.58.17 1.18.26 1.78.26 1.01 0 2.01-.25 2.91-.74a6.14 6.14 0 0 0 2.99-3.65c.89-2.93 1.88-5.91 2.98-8.88.85-.19 1.71-.28 2.57-.28 1.77 0 3.61.39 5.49 1.17.75.31 1.54.47 2.35.47.56 0 1.11-.08 1.65-.22a6.14 6.14 0 0 0 4.05-3.58 6.13 6.13 0 0 0 0-4.72 6.1 6.1 0 0 0-3.34-3.33c-2.5-1.04-5.05-1.69-7.59-1.96.22-.48.45-.97.68-1.45.97-.24 1.95-.37 2.94-.37 1.77 0 3.61.39 5.49 1.17.75.31 1.54.47 2.35.47.56 0 1.11-.08 1.65-.23a6.14 6.14 0 0 0 4.05-3.58c.63-1.52.63-3.19 0-4.71a6.1 6.1 0 0 0-3.34-3.33c-2.2-.91-4.43-1.53-6.66-1.84.84-1.47 1.7-2.93 2.58-4.39 1.04-.28 2.1-.43 3.16-.43 1.77 0 3.61.4 5.49 1.17.75.31 1.54.47 2.35.47a6.14 6.14 0 0 0 5.7-3.8c.63-1.52.63-3.19 0-4.71a6.06 6.06 0 0 0-3.34-3.33c-1.76-.73-3.54-1.27-5.32-1.62.28-.4.57-.8.85-1.19 1.24-.41 2.52-.61 3.79-.61 1.77 0 3.61.39 5.48 1.17.75.31 1.54.47 2.35.47.56 0 1.11-.08 1.65-.22a6.14 6.14 0 0 0 4.05-3.58c.63-1.52.63-3.2 0-4.72s-1.82-2.71-3.34-3.33c-1.47-.61-2.95-1.08-4.43-1.43q1.56-1.86 3.15-3.66c1.4-.53 2.85-.8 4.31-.8 1.77 0 3.62.39 5.49 1.17a6.2 6.2 0 0 0 4 .25 6.14 6.14 0 0 0 4.05-3.58c.63-1.52.63-3.19 0-4.71a6.06 6.06 0 0 0-3.34-3.33c-.99-.41-1.99-.76-3-1.06l.69-.66c1.43-.55 2.91-.83 4.39-.83 1.77 0 3.62.4 5.49 1.17.75.31 1.54.47 2.35.47.56 0 1.11-.08 1.65-.23a6.14 6.14 0 0 0 4.05-3.58c.63-1.52.63-3.19 0-4.71a6.06 6.06 0 0 0-3.34-3.33c-.47-.2-.94-.37-1.41-.54l.6-.48c1.47-.58 2.98-.87 4.5-.87 1.77 0 3.62.39 5.49 1.17a6.2 6.2 0 0 0 4 .25 6.14 6.14 0 0 0 4.05-3.58 6.13 6.13 0 0 0 0-4.72 6.13 6.13 0 0 0-2.32-2.8c.77-.15 1.54-.23 2.31-.23 1.77 0 3.61.39 5.49 1.17.75.31 1.54.47 2.35.47.55 0 1.11-.08 1.65-.23a6.14 6.14 0 0 0 4.05-3.58c.63-1.52.63-3.19 0-4.71-.34-.81-.83-1.53-1.45-2.11.8-.73 1.4-1.66 1.73-2.71.5-1.57.35-3.24-.42-4.7a6.2 6.2 0 0 0-1.76-2.08 6.16 6.16 0 0 0-3.7-1.23"/>
            <g clip-path="url(#0d298bec-48cf-4f1c-a7bf-ca72a4a19f7f)" style="mix-blend-mode:multiply" opacity=".24">
                <path d="M38.92 225.7s.69.92 2.98-4.58c1.59-3.82 2.74-7.87 3.3-9.98.25-.93.99-1.64 1.93-1.83 3.88-.78 13.79-2.16 15.85 3.56 1.94 5.4-10.77-.92-10.77-.92l-3.44 1.37-3.66 11.22-6.19 1.15Z" fill="#615c5f"/>
            </g>
            <path d="M237.11 136.29c-11.87-2.49-23.28-7.66-32.99-14.93a83 83 0 0 1-22.76-25.97l-6.24-10.42 15.44-4.35 3.7 7.75c9.66 17.17 26.41 29.46 45.87 33.55l10.02 2.41.22 14.75-13.25-2.78Z" fill="#ffffff"/>
            <path d="m188.99 84.07 2.65 5.55a71.84 71.84 0 0 0 47.89 35.13l7.74 1.86.13 8.88-9.7-2.04a80.7 80.7 0 0 1-31.85-14.42 80.7 80.7 0 0 1-21.97-25.06l-4.33-7.24zm3.13-6.91-4.7 1.32-9.44 2.66-7.29 2.06 3.89 6.5 4.3 7.17a86.1 86.1 0 0 0 23.51 26.8c10.04 7.53 21.85 12.87 34.13 15.45l9.7 2.04 7.1 1.49-.11-7.25-.13-8.87-.07-4.5-4.37-1.05-7.74-1.86-.08-.02-.08-.02a66.04 66.04 0 0 1-43.93-32.14l-2.57-5.37-2.11-4.41Z" fill="#070b0b"/>
            <g clip-path="url(#18ff72d1-0cc6-4fdb-97fb-c84aa90e8ae5)" style="mix-blend-mode:multiply" opacity=".24">
                <path d="M51.7 204.09s-2.53 5.39 0 0c1.18-2.52 1.69-4.35 1.9-5.59.23-1.32 1.3-2.31 2.63-2.48 4.38-.58 13.04-1 14.72 4.38 1.71 5.48-10.72-1.38-10.72-1.38l-3.49 1.23-5.04 3.85Z" fill="#615c5f"/>
            </g>
            <g clip-path="url(#9aa3b90b-aed8-4757-ab9d-70a867aa9f62)" style="mix-blend-mode:multiply" opacity=".24">
                <path d="M60.6 186.64s-2.8 5.25 0 0c1.46-2.74 2.05-4.67 2.27-5.89.19-1.02.98-1.79 2.01-1.88 4.13-.4 13.66-.66 15.12 5.09 1.42 5.56-10.63-1.94-10.63-1.94l-3.55 1.04-5.23 3.58Z" fill="#615c5f"/>
            </g>
            <g clip-path="url(#c573671f-5c16-46bc-ba57-915c79ad5ad6)" style="mix-blend-mode:multiply" opacity=".24">
                <path d="M69.52 173.32s-2.8 5.25 0 0c1.48-2.78 2.07-4.73 2.29-5.95.18-.98.95-1.72 1.95-1.82 4.1-.4 13.7-.69 15.18 5.08 1.42 5.56-10.63-1.94-10.63-1.94l-3.55 1.04-5.23 3.58Z" fill="#615c5f"/>
            </g>
            <g clip-path="url(#1d24e7a4-b284-4de0-9e1f-94b4ba21f5a6)" style="mix-blend-mode:multiply" opacity=".24">
                <path d="M82.21 157.44s-2.29 5.5 0 0c1.28-3.08 1.65-5.14 1.72-6.35.05-.87.69-1.57 1.55-1.74 3.92-.78 13.74-2.13 15.79 3.57 1.94 5.4-10.77-.92-10.77-.92l-3.44 1.38-4.87 4.07Z" fill="#615c5f"/>
            </g>
            <g clip-path="url(#c3307fb9-63a7-4b32-8482-b8deb79092c8)" style="mix-blend-mode:multiply" opacity=".24">
                <path d="M95.27 144.55s-2.29 5.5 0 0c1.15-2.75 1.56-4.68 1.69-5.93.12-1.15 1.02-2.07 2.15-2.28 4.22-.78 13.27-1.76 15.23 3.68 1.94 5.4-10.77-.92-10.77-.92l-3.44 1.38-4.87 4.07Z" fill="#615c5f"/>
            </g>
            <g clip-path="url(#8e4e942b-531a-425e-9c90-25ed512dd128)" style="mix-blend-mode:multiply" opacity=".24">
                <path d="M108.84 132.18s-2.29 5.5 0 0c1.2-2.88 1.6-4.86 1.71-6.1.09-1.02.8-1.84 1.81-2.04 4.06-.79 13.55-1.98 15.56 3.62 1.94 5.4-10.77-.92-10.77-.92l-3.44 1.38-4.87 4.07Z" fill="#615c5f"/>
            </g>
            <g clip-path="url(#9b6bbabf-ed9f-4dfe-8d0b-4eb5fb7d5089)" style="mix-blend-mode:multiply" opacity=".24">
                <path d="M124.93 118.15s-1.95 3.09-.69 2.06c4.61-3.77-1.32-5.1-1.32-5.1s14.83-3.95 17.41 3.21c1.94 5.4-10.77-.92-10.77-.92l-3.44 1.38-3.32 1.32 2.12-1.95Z" fill="#615c5f"/>
            </g>
            <path d="M178.03 37.66a42.7 42.7 0 0 0-11.21 8.4 42.8 42.8 0 0 0-9.67 16c-.37 1.08-.68 2.18-.96 3.29a43 43 0 0 0-1.23 8.52c-.07 1.74-.04 3.49.1 5.25s.4 3.52.76 5.29l1.22 5.86c5.31-2.07 10.76-4.06 16.14-5.94.49-.17.98-.34 1.46-.51.98-.34 1.95-.67 2.92-1 .48-.16.97-.33 1.45-.49.96-.33 1.92-.65 2.88-.97 6.2-2.07 12.14-3.96 17.5-5.61l2.43-.74c.4-.12.79-.24 1.18-.36 12.09-3.66 20.41-5.89 20.41-5.89l-3.83-56.75-41.56 25.67Z" fill="#ffffff"/>
            <path d="M261.38 158.81q2.595-.54 5.07-1.38c1.1-.37 2.18-.79 3.24-1.24 1.59-.68 3.12-1.46 4.61-2.33.99-.58 1.95-1.19 2.89-1.84 4.68-3.26 8.69-7.44 11.76-12.29a45 45 0 0 0 2.5-4.55c1.49-3.15 2.61-6.51 3.3-10.04l12.98-47.09-55.55 12.24s.2 8.61.07 21.24c0 .41 0 .82-.01 1.24 0 .83-.02 1.68-.03 2.54a773 773 0 0 1-.6 21.41c-.02.51-.04 1.02-.07 1.53-.05 1.02-.09 2.05-.14 3.08-.03.52-.05 1.03-.08 1.55-.3 5.69-.68 11.48-1.18 17.16l5.97-.47a42 42 0 0 0 5.29-.75" fill="#ffffff"/>
            <g clip-path="url(#1c528613-7830-4ac2-852e-dc64e99eb6d6)" style="mix-blend-mode:multiply" opacity=".24">
                <path d="M249.65 147.75s3.39 3.53 13.05-.96c9.93-4.61 17.13-13.6 19.73-24.24l10.24-42.02 17.97-4.63-19.24 68.11-46.59 26.14 4.84-22.38Z" fill="#615c5f"/>
            </g>
            <path d="M206.44 126.61c-1.25 0-2.5-.42-3.51-1.18a5.84 5.84 0 0 1-2.33-5.19l.52-6.19c.63-7.42 3.83-14.45 9.01-19.8l57.56-59.38a2.5 2.5 0 0 1 1.8-.76 2.508 2.508 0 0 1 2.19 3.75l-40.85 71.91a32.47 32.47 0 0 1-16.47 14.2l-5.79 2.24c-.68.27-1.4.4-2.12.4" fill="#ffffff"/>
            <path d="M269.49 36.63h.01m-.01 0-40.85 71.91a29.83 29.83 0 0 1-15.19 13.1l-5.79 2.24c-.41.16-.82.23-1.22.23a3.353 3.353 0 0 1-3.34-3.64l.52-6.19c.58-6.86 3.51-13.31 8.31-18.26l57.56-59.38m.01-5.04h-.14c-.86.02-1.66.26-2.36.66-.4.23-.78.52-1.12.87l-57.56 59.38a34.96 34.96 0 0 0-9.71 21.33l-.52 6.19c-.25 2.9 1 5.67 3.32 7.42a8.46 8.46 0 0 0 5.02 1.68q1.56 0 3.03-.57l5.79-2.24a34.98 34.98 0 0 0 17.75-15.3l40.74-71.71c.49-.78.77-1.69.77-2.68 0-2.77-2.23-5.01-4.99-5.03h-.03m0 10.05h.01z" fill="#070b0b"/>
            <path d="M206.44 126.61c-1.25 0-2.5-.42-3.51-1.18a5.84 5.84 0 0 1-2.33-5.19l.52-6.19c.63-7.42 3.83-14.45 9.01-19.8l57.56-59.38a2.5 2.5 0 0 1 1.8-.76 2.508 2.508 0 0 1 2.19 3.75l-40.85 71.91a32.47 32.47 0 0 1-16.47 14.2l-5.79 2.24c-.68.27-1.4.4-2.12.4" fill="#ffffff"/>
            <path d="M269.49 36.63h.01m-.01 0-40.85 71.91a29.83 29.83 0 0 1-15.19 13.1l-5.79 2.24c-.41.16-.82.23-1.22.23a3.353 3.353 0 0 1-3.34-3.64l.52-6.19c.58-6.86 3.51-13.31 8.31-18.26l57.56-59.38m.01-5.04h-.14c-.86.02-1.66.26-2.36.66-.4.23-.78.52-1.12.87l-57.56 59.38a34.96 34.96 0 0 0-9.71 21.33l-.52 6.19c-.25 2.9 1 5.67 3.32 7.42a8.46 8.46 0 0 0 5.02 1.68q1.56 0 3.03-.57l5.79-2.24a34.98 34.98 0 0 0 17.75-15.3l40.74-71.71c.49-.78.77-1.69.77-2.68 0-2.77-2.23-5.01-4.99-5.03h-.03m0 10.05h.01z" fill="#070b0b"/>
            <path d="M89.68 218.22c-.09.85-.18 1.67-.27 2.47 4.51 3.12 8.5 2.73 8.5 2.73-3.66 4.29-7.14 6.56-9.69 7.76-.31 2.5-.59 4.63-.89 6.47 6.42-4.01 13.15-9.91 15.54-17.89 4.67-15.62-5.07-24.33-5.76-24.91l-1.05-.82c-2.37 3.89-4.87 10.29-6 20.68z" fill="#ec232e"/>
            <path d="m102.1 202.41-.35-1.25c-1.91-3.88-4.32-6.03-4.64-6.31l-1.05-.82c-2.37 3.88-4.86 10.29-6 20.68l-.38 3.51c-.09.85-.18 1.67-.27 2.47 1.26.87 2.47 1.47 3.57 1.87.76-3.53 2.46-11.14 4.35-17.64 2.55-8.79 4.77-2.51 4.77-2.51" fill="#ef3f4f"/>
            <g clip-path="url(#23d752bf-77f3-4f97-823e-92eba7a9abb7)" style="mix-blend-mode:multiply" opacity=".24">
                <path d="M203.09 121.87c7.82-6.14 14.74-13.35 20.54-21.42l45.87-63.82-37.56 72.72-21.77 16.69s-7.25 3.27-7.07-4.17" fill="#615c5f"/>
            </g>
        </g>
    </g>
</svg>
