<?xml version="1.0" encoding="UTF-8"?>
<svg data-bbox="0.004 0 720.048 500.431" viewBox="0 0 720 500.43" xmlns="http://www.w3.org/2000/svg" data-type="ugc">
    <g>
        <defs>
            <clipPath id="b3ab9c41-4e63-4d30-87a9-427f6df6b7da">
                <path d="M473.4 20.54v16.8h-15.45v-16.8z"/>
            </clipPath>
            <clipPath id="84fadb84-c7d2-46a0-a144-859ecdba676b">
                <path d="M485.37 13.61v48.38h-56.42V13.61z"/>
            </clipPath>
            <clipPath id="124c954d-776e-4500-9805-830ffde906c4">
                <path d="M460.04 35.81v90.52H390.1V35.81z"/>
            </clipPath>
            <clipPath id="dc630199-5f97-4a77-9400-df0f2d72df52">
                <path d="M428.9 90.35v243.09H235.27V90.35z"/>
            </clipPath>
            <clipPath id="3adbd8e0-dc1b-45ff-9e95-8bd33c7271cd">
                <path d="M253.56 208.58v17.18h-24.25v-17.18z"/>
            </clipPath>
            <clipPath id="ca9e8f14-bdc5-49c1-ba62-884f20f9d063">
                <path d="M261.5 195.68v10.8h-20.53v-10.8z"/>
            </clipPath>
            <clipPath id="58c56ad6-b3e2-4da7-90e7-4d6fe87914a6">
                <path d="M270.52 178.69v10.29h-20.78v-10.29z"/>
            </clipPath>
            <clipPath id="c4551cc3-0da6-4706-b389-91af53f431dd">
                <path d="M279.44 165.36v10.29h-20.77v-10.29z"/>
            </clipPath>
            <clipPath id="b935b74a-cdb7-417e-b56f-467fa025a95d">
                <path d="M291.88 148.62v11.26h-20.29v-11.26z"/>
            </clipPath>
            <clipPath id="52b0aef6-6654-4da9-ae42-120ce1fbfb19">
                <path d="M304.93 135.73v11.26h-20.29v-11.26z"/>
            </clipPath>
            <clipPath id="23449554-5e63-4b1a-850a-9bd78413874c">
                <path d="M318.51 123.36v11.26h-20.29v-11.26z"/>
            </clipPath>
            <clipPath id="94245364-1225-4aeb-a8ab-0ff5ee538a8d">
                <path d="M330.94 114.03v6.48h-17.73v-6.48z"/>
            </clipPath>
            <clipPath id="24893d47-b3fa-475d-8d56-245d8389bad6">
                <path d="M501.02 75.89v94.25H435.2V75.89z"/>
            </clipPath>
            <clipPath id="fa31b96e-a5ad-4cfb-96f2-195b6cd20991">
                <path d="M428.9 90.35v243.09H235.27V90.35z"/>
            </clipPath>
            <clipPath id="17b9cc03-d1a1-477d-b2ed-e6e859164f4d">
                <path d="M459.89 36.62v90.13h-66.41V36.62z"/>
            </clipPath>
        </defs>
        <g style="isolation:isolate">
            <path d="M648.63 425.5c-4.38-.03-8.86-.05-13.56-.05-4.46 0-9.11.01-14 .04-7.71-.05-11.98-3.9-13.86-6.19-2.31-2.8-4.77-7.62-3.44-14.68.61-3.21 1.23-6.42 1.85-9.63h1.77l-1.71-.32c1.08-5.62 2.2-11.42 3.23-17.1.77-4.26 1.57-8.55 2.37-12.82h-4.76c-.97 4.75-3.12 9.15-6.4 13.11l-.27.33c-1.34 1.62-2.85 3.44-4.65 5.26 1.11 4.87 2.2 9.78 3.25 14.65 1.22 5.64-.03 10.27-.77 13.04-.11.43-.21.79-.26 1.03-1.77 7.92-8.61 13.25-17.05 13.25l-25.26-.02-3.04-.02c-.64 0-1.31 0-1.94.03-.25.01-.5.02-.74.02-9.01-.06-15.99-6.28-17.12-15.13l-.21-1.56c-.1.57-.21 1.15-.31 1.72-1.59 8.92-8.75 14.91-17.8 14.91-5.15-.03-10.23-.04-15.26-.04h-18.11c-2.09 0-4.04-.28-5.82-.81-1.73.51-3.55.77-5.43.77h-26.05l-49.43-.03c-5.61 0-11.24 0-16.84.03-2.05-.01-3.87-.27-5.55-.78-1.75.5-3.6.75-5.51.75-12.68-.05-25.5-.06-37.91-.07l-26.76-.02v-.04h-15.45c-6.06-.01-12.15 0-18.22.01-2.04-.01-3.84-.27-5.52-.77-1.8.51-3.71.77-5.69.77-11.82-.03-23.8-.04-35.38-.05l-25.2-.02v-.02h-29.25c-1.86-.01-3.5-.23-5.05-.65-1.61.45-3.3.68-5.02.68-6.04-.01-12.3-.03-18.67-.03-3.91 0-7.86 0-11.82.02-1.82-.01-3.46-.24-5.02-.68-1.63.44-3.36.66-5.14.66-21.57-.05-43.21-.06-65.33-.06-8.57 0-19.89 0-31.42.07h-.36c-6.8-.04-10.93-3.29-13.19-6.01-2.26-2.73-4.7-7.43-3.45-14.3 1-5.5 2.06-11.02 3.09-16.36l.16-.81c.72-3.75 1.46-7.61 2.16-11.39l1.9-10.11c1.14-6.05 2.32-12.29 3.41-18.45.33-1.85.7-3.59 1.06-5.27.61-2.86 1.13-5.3 1.28-7.44.68-9.91 8.15-16.83 18.15-16.83 10.78.06 21.63.08 32.22.08s1.78-.14 1.78-.14l14.21.09 48.59.05c1.08.03 2.97.07 5.14.62 1.58-.41 3.23-.62 4.93-.62l2.06.02c2.29.01 7.91.02 7.91.02h20.36c1.78.03 3.47.24 5.05.64 1.61-.44 3.29-.66 5.02-.66h9.8c8.32.01 16.01-.01 23.32-.07 5.6.03 10.29 2.2 13.5 6.1 2.27 2.76 4.7 7.5 3.39 14.43-.67 3.53-3.21 16.67-3.21 16.67l-1.61 8.3c-.88 4.54-1.79 9.18-2.66 13.83 7.77.01 32.44.01 32.44.01l.87-4.71c1.57-8.58 3.23-17.39 5.06-26.93l.51-2.6c.6-3.08 1.28-6.57 1.75-9.75 1.37-9.28 8.25-15.28 17.52-15.28l9.84.07c3.29.02 6.66.04 10.17.04 3.2 0 6.51-.01 9.8-.05 9.01-.12 18.65-.16 31.26-.16l31.88.04h6c.97 0 2.94.01 5.28.63 2.44-.63 4.62-.64 5.96-.64l3.9.02h87.59c2.13.03 4.13.31 5.95.85 1.83-.57 3.78-.86 5.81-.86 12.47.06 24.94.07 37.05.08l61.96.05c1.27 0 3.35.03 5.76.68 1.7-.48 3.48-.72 5.32-.72 12.27.06 24.67.07 36.67.07h11.27l47.99.04c2.23.02 8.98.06 13.91 6.12s3.59 12.72 3.09 15.24c-.58 2.89-1.28 6.52-1.86 10.14-1.45 8.98-8.57 15.02-17.71 15.02h-.78c-3.86-.03-7.82-.03-11.64-.03h-6.01s-3.25 17.07-4.1 21.61c-1.44 7.7-2.91 15.74-4.36 23.89-1.65 9.23-8.69 15.2-17.94 15.2l-4.67-.04Z" fill="#ec232e"/>
            <path d="m67.29 319.78 14.21.09 48.28.05h.3c1.07.03 2.99.07 5.17.68 1.53-.44 3.18-.68 4.91-.68h.12s1.31.01 1.92.02c2.38.01 4.81.02 7.19.02h21.09c1.82.03 3.51.26 5.06.71 1.56-.47 3.24-.72 5-.72h.04c3.25 0 6.4.01 9.46.01 8.44 0 16.24-.03 23.64-.08h.26c4.79.03 9.01 1.98 11.89 5.47 2.03 2.47 4.21 6.74 3.02 13.01-.67 3.53-1.35 7.06-2.03 10.58l-1.17 6.08c-.5 2.62-1.01 5.24-1.52 7.86l-.08.43c-1.02 5.22-2.06 10.57-3.05 15.9 8.55 0 17.26.02 25.98.02h10.01c.38-2.05.76-4.1 1.13-6.13 1.57-8.57 3.22-17.38 5.05-26.91.14-.74.29-1.49.44-2.23l.07-.37c.64-3.27 1.3-6.64 1.77-9.82 1.24-8.39 7.43-13.8 15.8-13.8h.13l3.77.03c2.04.01 4.08.03 6.12.04 3.08.02 6.46.04 9.96.04 3.21 0 6.54-.02 9.84-.06 10.36-.13 20.82-.16 31.15-.16 5.31 0 10.6 0 15.82.02 5.26 0 10.63.02 15.98.02h6.15c.99 0 2.99.02 5.3.7 2.39-.69 4.54-.7 5.97-.71h2.73c.39 0 .78.01 1.17.01 29.12 0 87.59.02 87.59.02 2.18.01 4.17.33 5.96.93 1.78-.62 3.73-.95 5.8-.95h.1c12.95.07 26.03.07 38.69.08h22.96c12.42.02 24.84.03 37.26.05h.25c1.04 0 3.13.02 5.51.74 1.66-.51 3.44-.79 5.31-.79h.09c12.25.06 24.73.07 36.79.07h11.07l47.99.05c2.01.01 8.15.05 12.56 5.48 4.41 5.42 3.24 11.29 2.73 13.8l-.03.12c-.55 2.77-1.26 6.41-1.85 10.09-1.31 8.12-7.72 13.55-15.99 13.55h-.78c-3.9-.03-7.89-.03-11.75-.03h-7.35c-.55 2.92-1.1 5.81-1.64 8.66v.08c-.92 4.77-1.83 9.54-2.72 14.31-1.44 7.71-2.91 15.75-4.36 23.9-1.49 8.38-7.85 13.77-16.22 13.77h-.13c-1.56-.01-3.06-.03-4.57-.03-4.44-.03-9.03-.05-13.84-.05-4.36 0-8.92.01-13.7.04h-.25c-6.73-.04-10.57-3.5-12.27-5.55-2.07-2.51-4.28-6.85-3.07-13.25.61-3.21 1.23-6.42 1.84-9.63v-.07c1.11-5.7 2.25-11.6 3.3-17.37.9-4.95 1.83-9.93 2.75-14.87h-8.3c-.75 4.99-2.86 9.61-6.28 13.73l-.27.33c-1.49 1.8-3.18 3.84-5.23 5.82 1.18 5.18 2.34 10.39 3.46 15.58 1.13 5.23-.05 9.61-.75 12.22-.11.43-.22.83-.28 1.1-1.59 7.13-7.74 11.9-15.35 11.9h-25.24l-2.14-.02h-.85c-.68 0-1.4 0-2.07.03-.24.01-.47.01-.7.01h-.11c-7.97-.05-14.24-5.65-15.27-13.61-.23-1.84-.51-3.73-.77-5.56-.31-2.12-.62-4.28-.89-6.48-.12.64-.25 1.28-.37 1.91-.65 3.35-1.32 6.82-1.92 10.19-1.44 8.07-7.9 13.47-16.09 13.47h-.11c-5.05-.03-10.15-.04-15.2-.04h-18.07c-2.11-.01-4.05-.32-5.8-.9-1.68.55-3.51.85-5.43.85H451.5c-2.82 0-5.63 0-8.45.01h-1.86c-3.96 0-7.91 0-11.87-.01h-6.37c-2.96 0-10.67-.01-10.67-.01-6.17 0-12.46-.02-18.77-.02-5.5 0-11.02 0-16.51.03h-.2a17.5 17.5 0 0 1-5.33-.85c-1.71.54-3.56.83-5.52.83h-.08c-12.68-.05-25.58-.06-38.06-.07l-24.78-.02v-.04c-5.74 0-11.56-.01-17.41-.01s-12.01 0-18.01.03h-.2c-1.87-.01-3.65-.3-5.3-.85-1.75.55-3.66.85-5.68.85h-.05c-11.79-.03-23.77-.04-35.35-.05l-23.46-.02v-.02c-5.87 0-11.83-.01-17.79-.01-4.41 0-8.82 0-13.21.01h-.2c-1.83-.01-3.44-.29-4.85-.72-1.57.49-3.26.75-5.03.75h-.05c-5.98-.01-12.22-.02-18.59-.02-3.92 0-7.88 0-11.85.01h-.17a16 16 0 0 1-4.83-.76c-1.6.48-3.32.73-5.14.73h-.05c-21.54-.05-43.17-.05-65.29-.05-8.58 0-19.9 0-31.43.07h-.27c-6.2-.04-9.91-2.95-11.93-5.39-2.03-2.44-4.21-6.66-3.08-12.87 1-5.49 2.06-11.01 3.08-16.34l.02-.11c.76-3.97 1.55-8.08 2.3-12.1.59-3.18 1.19-6.36 1.79-9.54v-.07c1.19-6.21 2.4-12.64 3.53-18.98.33-1.84.7-3.57 1.06-5.24.62-2.89 1.15-5.38 1.31-7.65.62-8.97 7.36-15.21 16.41-15.21h.12c11.27.07 22.72.08 33.88.08v-.14Zm-3.55-3.5v.16c-10.02 0-20.24-.02-30.3-.08-11.1 0-19.28 7.59-20.02 18.45-.14 2.01-.65 4.39-1.24 7.15-.37 1.72-.74 3.48-1.08 5.36-1.11 6.28-2.32 12.67-3.48 18.84l-.03.17-.05.25c-.59 3.1-1.17 6.19-1.75 9.3-.74 3.99-1.53 8.07-2.29 12.01l3.38.83-3.42-.66c-1.03 5.35-2.09 10.88-3.09 16.38-1.36 7.54 1.33 12.71 3.83 15.72 2.49 3 7.04 6.6 14.58 6.64h.3c11.53-.06 22.85-.07 31.42-.07 22.12 0 43.75 0 65.29.06q2.715 0 5.16-.6c1.56.4 3.18.61 4.84.62h.19c3.98 0 7.94-.01 11.86-.01 6.37 0 12.61 0 18.58.02 1.77 0 3.47-.21 5.09-.62 1.55.38 3.16.58 4.82.59h.21c4.4 0 8.81-.01 13.22-.01h14.29l3.49.02 23.46.02c11.6.01 23.57.02 35.35.05 2 0 3.91-.23 5.72-.7 1.69.45 3.47.69 5.29.7h.22c6.02-.02 12.04-.03 18.02-.03h13.9l3.5.05 24.78.02c12.48 0 25.37.02 38.05.07 1.98 0 3.83-.23 5.6-.68 1.71.46 3.49.7 5.33.71h.22c5.51-.02 11.03-.03 16.52-.03 6.31 0 12.59 0 18.77.02h10.67l3.06.01h3.3c3.96 0 7.92.01 11.88.01h11.27c3.55 0 7.28-.01 11.05-.01h5.79c1.89 0 3.72-.23 5.46-.69 1.8.48 3.74.74 5.78.75h18.1c5.05 0 10.14 0 15.18.03 8.23 0 14.98-4.39 18.11-11.35 2.87 6.87 9.41 11.36 17.31 11.41h.06c.37 0 .64 0 .91-.02.63-.02 1.3-.03 1.94-.03h.83l2.14.02h25.28c9.26 0 16.8-5.87 18.74-14.62.05-.23.15-.58.25-.95.73-2.73 2.09-7.8.79-13.86-.98-4.54-2-9.16-3.04-13.75 1.56-1.64 2.88-3.23 4.09-4.69l.28-.34c3.14-3.79 5.31-7.97 6.45-12.47h1.27c-.67 3.59-1.33 7.19-1.98 10.77-1.04 5.76-2.18 11.63-3.27 17.32-.63 3.3-1.25 6.51-1.86 9.72-1.46 7.72 1.26 13.02 3.8 16.11 2.08 2.52 6.78 6.77 14.93 6.82h.27c4.8-.03 9.35-.04 13.7-.04 4.81 0 9.39.01 13.82.04l4.56.04h.16c10.14 0 17.85-6.53 19.64-16.64 1.45-8.14 2.91-16.17 4.36-23.88.87-4.61 1.74-9.22 2.62-13.83l.09-.47.07-.33 1.06-5.57h4.47c3.85 0 7.84 0 11.73.03h.8c10.03 0 17.83-6.62 19.42-16.48.58-3.62 1.28-7.22 1.83-9.95.57-2.85 2.03-10.11-3.42-16.8-3.62-4.44-8.74-6.71-15.24-6.76l-48-.05H641.7c-12.06 0-24.53-.01-36.78-.07q-2.865 0-5.43.66c-2.44-.59-4.52-.61-5.48-.61h-.25l-36.29-.04h-23.93c-12.65-.01-25.72-.02-38.67-.08-2.12 0-4.09.27-5.94.79-1.84-.49-3.83-.75-5.92-.76l-87.61-.02h-1.15l-1.07-.01h-1.7c-1.34 0-3.48 0-5.95.59-2.35-.56-4.29-.57-5.29-.58h-6.17c-5.35 0-10.72 0-15.98-.01-5.22 0-10.51-.02-15.82-.02-12.59 0-22.21.05-31.2.16-3.29.04-6.6.05-9.8.05-3.49 0-6.86-.02-9.94-.04l-6.12-.05-3.77-.03h-.15c-10.03 0-17.76 6.74-19.24 16.77-.46 3.12-1.11 6.44-1.74 9.66l-.07.37-.44 2.24c-1.84 9.54-3.49 18.35-5.06 26.94l-.6 3.28h-7.12c-7.29 0-14.59 0-21.78-.01.75-3.94 1.51-7.88 2.26-11.74l.09-.46c.51-2.62 1.02-5.24 1.53-7.87l1.17-6.07c.68-3.53 1.37-7.06 2.04-10.6 1.44-7.59-1.25-12.82-3.75-15.87-3.54-4.31-8.71-6.7-14.55-6.74h-.28c-7.42.05-15.21.08-23.64.08-3.06 0-6.21 0-9.46-.01-1.75 0-3.45.2-5.07.6-1.58-.37-3.27-.56-5.02-.57l-15-.02h-6.11c-2.38 0-4.8 0-7.17-.02h-1.86l-.22-.02c-1.68 0-3.34.19-4.93.57-2.19-.5-4.03-.54-5.08-.57h-.33l-48.33-.05-14.19-.09-3.57-.02Z"/>
            <path d="M366.41 411.12c-12.57-.05-25.15-.06-37.72-.07h-12.33v-.04s-23.66-.03-30.51-.03c-5.93 0-11.86 0-17.8.03-.77 0-1.84-.09-2.49-.88-.72-.87-.49-2.05-.37-2.69l1.34-7.01c1.57-8.23 3.15-16.45 4.65-24.68 1.64-8.94 3.32-17.87 5.03-26.79l.51-2.6c.66-3.4 1.35-6.91 1.86-10.37.26-1.74.89-2.9 3.16-2.9l3.89.03c5.4.04 10.8.08 16.2.08 3.3 0 6.6-.01 9.91-.06 8.9-.11 18.39-.16 30.77-.16l31.85.04h5.68c1.61 0 2.61.01 3.25.76.65.76.49 1.69.21 3.38-1.18 7.16-2.52 14.78-4.38 22.4-1.17 4.81-3.06 10.15-8.17 13.47 4.07 4.24 3.37 9.49 2.75 14.16l-.05.4c-.89 6.75-2.06 13.31-3.38 20.57-.48 2.63-2.11 3-3.8 3h-.05Zm-40.28-18.72c2.29 0 4.59 0 6.88.03.79 0 .82-.05.92-.67.69-4.25 1.39-7.97 2.14-11.37.09-.41.1-.63.09-.72h-.05c-.09 0-.29-.02-.61-.02-3.75.02-7.46.03-11.17.03-4.66 0-9.31-.01-13.97-.04h-.01c-.66 0-.69 0-.82.76l-.44 2.71c-.47 2.93-.96 5.96-1.73 8.92-.05.19-.07.32-.08.4.01 0 .28.01.48.01 1.79-.04 3.45-.05 5.11-.05l13.27.03Zm-13.21-29.33q12.93 0 25.86.03c.39 0 .49-.06.49-.06s.08-.1.14-.46c.7-4.2 1.51-8.29 2.27-12.1.01-.05.02-.1.03-.14h-.13c-1.71.02-3.37.02-5.03.02l-8.93-.02h-5.48c-1.98 0-3.95-.01-5.93-.05l-.12-1.16v1.16c-.81 0-.93.1-1.06.85-.69 3.98-1.42 7.96-2.19 11.92h.08Z" fill="#ffffff"/>
            <path d="M342.61 334.11c10.62 0 21.23.03 31.85.03h5.78c2.59 0 2.56.1 2.1 2.84-1.23 7.46-2.56 14.92-4.35 22.26-1.25 5.15-3.2 10.09-8.13 13.06-.44.26-.74.55-.23 1.03 4.32 4.01 3.51 9.05 2.85 14.07-.91 6.87-2.13 13.69-3.38 20.51-.31 1.72-1.09 2.04-2.65 2.04h-.05c-16.3-.07-32.6-.07-48.9-.08v-.03c-10.51 0-21.02-.03-31.53-.03-5.98 0-11.96 0-17.94.03H268c-1.85 0-1.96-.77-1.69-2.2 2.01-10.57 4.06-21.13 5.99-31.71 1.64-8.94 3.32-17.86 5.03-26.78.83-4.33 1.73-8.66 2.37-13.02.22-1.47.59-1.91 2.02-1.91h.05c6.66.05 13.31.11 19.97.11q4.995 0 9.99-.06c10.29-.13 20.57-.16 30.86-.16m-3.8 30.16c1.04 0 1.58-.33 1.77-1.49.67-4.03 1.46-8.05 2.27-12.06.24-1.18-.11-1.53-1.25-1.53h-.07c-1.67.02-3.34.03-5.02.03-2.57 0-5.15-.01-7.72-.02-.15-.01-.3-.01-.45-.01-2.05 0-4.1.01-6.15.01s-3.96-.01-5.94-.06h-.14c-1.32 0-1.98.46-2.21 1.82a608 608 0 0 1-2.19 11.92c-.21 1.1.26 1.36 1.22 1.36q12.93 0 25.86.03h.01m-31.02 29.31h.15c1.67-.04 3.34-.05 5.01-.05 2.45 0 4.9.03 7.35.03h5.6c2.38 0 4.76 0 7.14.03h.06c1.17 0 1.8-.33 2.02-1.65.61-3.78 1.3-7.56 2.13-11.31.37-1.67-.1-2.15-1.7-2.15h-.04q-5.655.03-11.31.03c-4.6 0-9.19-.01-13.79-.04h-.03c-1.27 0-1.74.47-1.95 1.73-.66 3.85-1.16 7.73-2.16 11.52-.37 1.4.14 1.87 1.53 1.87m34.84-61.8c-12.43 0-21.96.05-30.89.16q-4.98.06-9.96.06c-5.42 0-10.84-.04-16.26-.08l-3.7-.03c-3.42 0-4.14 2.22-4.38 3.89-.51 3.45-1.19 6.96-1.86 10.35l-.5 2.57c-1.83 9.48-3.47 18.24-5.04 26.8-1.51 8.24-3.11 16.61-4.65 24.7l-1.34 6.99c-.15.77-.45 2.37.61 3.65 1.08 1.3 2.79 1.3 3.36 1.3 6.01-.02 11.99-.03 17.97-.03 6.74 0 13.48 0 20.23.02h8.98l2.33.05h10.67c12.74.02 25.48.02 38.21.08 1.87 0 4.35-.41 4.99-3.94 1.33-7.27 2.5-13.85 3.39-20.63l.05-.4c.61-4.58 1.29-9.71-2.18-14.11 4.64-3.57 6.44-8.72 7.58-13.4 1.87-7.67 3.21-15.31 4.39-22.43.31-1.88.53-3.2-.46-4.37s-2.42-1.17-3.93-1.17h-5.78c-5.31 0-10.61 0-15.92-.01-5.31 0-10.62-.02-15.93-.02m-28.34 30.12c.71-3.74 1.34-7.16 1.91-10.46 2.06.05 4.04.06 6.02.06h3.08l1.81-.01h1.71l3.49.02h8.03c-.66 3.32-1.35 6.84-1.95 10.43-8.04-.02-16.07-.03-24.1-.03m-5.51 29.33c.64-2.67 1.07-5.36 1.49-7.97.13-.83.27-1.66.41-2.49 4.52.02 9.02.04 13.52.04 3.55 0 7.09 0 10.64-.02-.68 3.16-1.32 6.59-1.96 10.46-2.35-.02-4.67-.03-6.98-.03h-5.59c-1.18 0-2.36 0-3.53-.01-1.27 0-2.54-.01-3.82-.01-1.39 0-2.78 0-4.17.03" fill="#ffffff"/>
            <path d="M549.87 411.29c-1.6 0-2.52-.83-2.73-2.48-.25-1.91-.52-3.82-.8-5.73-.49-3.38-.99-6.87-1.31-10.34-.19-2.01-.48-4.02-.76-6.02-.33-2.32-.67-4.71-.86-7.1-.04 0-15.29-.05-19.89-.07a.1.1 0 0 0-.04-.02c-.05 0-.09.11-.13.35-.64 3.56-1.33 7.12-2.01 10.68l-1.4 7.26c-.67 3.48-1.34 6.96-1.97 10.44-.36 2.04-1.45 2.96-3.53 2.96-5.21-.03-10.38-.04-15.55-.04h-17.53c-1.15.01-2.23.01-2.88-.77-.64-.78-.45-1.78-.21-3.05.95-5 1.88-10.01 2.82-15.01l2.03-10.84c.66-3.51 1.33-7.01 2-10.52 1.35-7.05 2.7-14.11 3.95-21.18.39-2.21.82-4.41 1.25-6.61.47-2.38.93-4.76 1.34-7.15.28-1.59.9-3.07 3.54-3.07 13.13.07 26.22.08 39.31.08l59.68.05c1.44 0 2.43.06 3.06.83.68.82.46 1.9.17 3.38l-1.06 5.32c-1.23 6.1-2.5 12.4-3.38 18.66-.39 2.76-1.54 5.26-3.51 7.65l-.29.35c-2.6 3.14-5.29 6.38-9.17 8.4-.41.21-.53.28-.3 1.24 1.73 7.39 3.44 14.98 5.07 22.57.48 2.22-.07 4.26-.6 6.23-.14.55-.29 1.09-.41 1.64-.42 1.91-2.25 1.91-2.85 1.91H556.6l-3.93-.04c-.87 0-1.73 0-2.59.04zm-3.95-48.09c2.19 0 4.39 0 6.58.03.79 0 1.1-.21 1.43-.96 1.71-3.85 1.21-7.84.55-11.6-.06-.12-.41-.12-.55-.12h-5.73c-6.33 0-12.65 0-18.98-.03-.24 0-.36.01-.41.03 0 .03-.03.14-.07.35-.53 3.16-1.14 6.3-1.76 9.44l-.45 2.29c-.06.31-.07.49-.06.58.01 0 .23.01.42.01 1.76-.03 3.43-.05 5.1-.05h13.93Z" fill="#ffffff"/>
            <path d="M495.2 334.15h.04c16.56.08 33.11.07 49.67.09 16.43 0 32.86.02 49.28.04 2.56 0 2.61.24 2.1 2.84-1.57 7.99-3.32 15.96-4.45 24.03-.38 2.73-1.58 5.05-3.26 7.07-2.66 3.2-5.29 6.48-9.11 8.46-1.1.57-1.18 1.34-.9 2.53 1.76 7.5 3.45 15.01 5.07 22.54.55 2.53-.47 4.95-1.01 7.37-.2.91-.96 1-1.72 1H556.6c-1.33 0-2.65-.03-3.98-.03-.87 0-1.73.01-2.59.04h-.17c-1.01 0-1.44-.38-1.58-1.46-.68-5.35-1.6-10.66-2.11-16.02-.41-4.41-1.28-8.75-1.62-13.17-.07-.9-.63-1.01-1.32-1.02-6.57-.02-13.14-.03-19.71-.06h-.01c-.89 0-1.15.44-1.3 1.28-.85 4.67-1.76 9.33-2.65 14-.91 4.79-1.87 9.58-2.72 14.38-.26 1.45-.86 2-2.39 2h-.04c-5.09-.03-10.18-.04-15.27-.04h-17.77c-2.3 0-2.38-.19-1.95-2.45 1.64-8.61 3.22-17.24 4.84-25.86 1.99-10.57 4.08-21.12 5.96-31.71.81-4.6 1.8-9.16 2.59-13.76.27-1.53.76-2.11 2.4-2.11m31.69 30.26h.1c1.69-.03 3.38-.04 5.08-.04 2.55 0 5.11.02 7.66.03.35-.01.69 0 1.04 0h4.99c2.24 0 4.47 0 6.71.03h.05c1.24 0 1.96-.51 2.46-1.65 1.79-4.02 1.36-8.13.63-12.27-.18-1.04-.86-1.08-1.68-1.08h-5.78c-6.31 0-12.62 0-18.94-.03h-.02c-.98 0-1.42.25-1.6 1.35-.65 3.91-1.45 7.81-2.2 11.7-.25 1.3.01 1.98 1.51 1.98m-31.71-32.58c-2.68 0-4.21 1.32-4.68 4.03-.42 2.39-.88 4.77-1.34 7.15-.43 2.2-.86 4.4-1.25 6.6-1.26 7.14-2.65 14.4-4 21.41a3121 3121 0 0 0-3.95 20.92c-.95 5.07-1.89 10.14-2.85 15.21-.26 1.38-.53 2.81.45 4 .99 1.2 2.47 1.2 3.77 1.2h9.19l8.59-.01c5.08 0 10.17 0 15.26.04 2.69 0 4.26-1.32 4.72-3.91.61-3.45 1.28-6.9 1.95-10.35l.77-4.01.68-3.54c.63-3.28 1.26-6.56 1.86-9.85 4.1.02 8.2.03 12.29.04l5.68.02c.2 2.07.49 4.12.77 6.11.28 1.96.57 3.99.75 5.97.33 3.49.83 6.98 1.32 10.37.27 1.91.55 3.82.8 5.74.29 2.22 1.7 3.49 3.88 3.49h.25c.83-.04 1.67-.05 2.51-.05.67 0 1.33 0 2 .01.66 0 1.32.01 1.98.01h4.18l18.78.01h1.35c2.92 0 3.75-1.76 3.98-2.82.12-.53.26-1.06.4-1.59.54-2.01 1.15-4.28.61-6.77-1.62-7.52-3.33-15.12-5.08-22.58 0-.03-.01-.06-.02-.09 3.98-2.17 6.67-5.42 9.27-8.56l.28-.34c2.09-2.52 3.36-5.29 3.77-8.23.87-6.23 2.14-12.53 3.37-18.62.36-1.76.71-3.53 1.06-5.29.31-1.6.61-3.1-.41-4.35-1.03-1.25-2.65-1.25-3.96-1.25l-37.1-.04h-12.19l-2.32-.01h-8.62c-12.91 0-25.81-.01-38.72-.08h-.05Zm32.63 30.23.3-1.53c.57-2.89 1.16-5.87 1.66-8.85 6.13.02 12.25.03 18.37.03h5.32c.65 3.96.73 7.09-.61 10.09-.07.14-.11.23-.14.27h-.2c-2.27-.03-4.52-.03-6.76-.03h-9.64c-1.35-.01-2.7-.02-4.05-.02-1.42 0-2.84 0-4.25.03" fill="#ffffff"/>
            <path d="M19.46 410.92c-.83 0-1.68-.09-2.25-.77-.58-.7-.51-1.6-.35-2.47.98-5.38 2.01-10.74 3.04-16.11.8-4.13 1.59-8.25 2.36-12.38l1.8-9.58c1.2-6.36 2.41-12.73 3.53-19.1.29-1.6.63-3.2.97-4.8.66-3.08 1.34-6.27 1.56-9.45.15-2.2 1.39-3.32 3.68-3.32 12.23.07 24.4.08 36.58.09H80.8l1.16-.05 47.74.05.29 1.16v-1.16h.32c1.42.03 2.27.05 2.84.76s.4 1.55.12 2.93l-.7 3.48c-.91 4.51-1.86 9.18-2.63 13.79-.44 2.57-2 2.92-3.48 2.92-7.44-.03-14.82-.04-22.21-.04l-8.38-.02c-.48 0-.96.01-1.44.06-.19.02-.36.03-.52.03-.94 0-1.64-.29-2.07-.87-.72-.94-.37-2.2-.25-2.61.21-1.4.43-2.78.29-3.1-.23-.11-1.61-.11-2.94-.11h-8.62c-4.67 0-9.33 0-14-.06h-.01c-1.07 0-1.12.09-1.26.89-1.29 7.27-2.67 14.52-4.04 21.77-.42 2.24-.87 4.47-1.31 6.71-.48 2.42-.96 4.83-1.42 7.25-.17.91-.29 1.83-.42 2.75-.12.87-.23 1.75-.39 2.61h.04c1.41.02 2.77.03 4.12.03h11.48c3.45 0 6.9 0 10.35.05.86 0 .94-.11 1.06-.79.48-2.69 1-5.38 1.51-8.06l.73-3.86-2.81-.02c-1.63-.02-3.27-.04-4.9-.04s-3.1.02-4.66.07h-.32c-.77 0-1.73-.09-2.34-.83-.63-.76-.54-1.77-.37-2.65.22-1.16.49-2.31.75-3.45.56-2.44 1.1-4.75 1.25-7.16.09-1.41 1.06-2.28 2.54-2.28h.8l2.54-.01s24.71.04 31.55.04c4.56 0 9.12 0 13.67-.02 1.02 0 2.11.07 2.77.89.65.8.52 1.88.34 2.74-1.04 4.95-1.97 9.92-2.89 14.89l-1.53 8.1c-1.15 6.06-2.3 12.12-3.35 18.2-.36 2.07-1.39 2.95-3.48 2.95-21.81-.05-43.58-.05-65.36-.05h-2.48c-9.67 0-19.34.01-29.01.07h-.06Z" fill="#ffffff"/>
            <path d="M33.8 334.1h.04c16.04.09 32.08.08 48.12.09v-.05c15.91.01 31.83.03 47.74.04h.58c2.35.05 2.31.05 1.84 2.41-1.14 5.72-2.35 11.44-3.32 17.2-.27 1.63-.94 1.96-2.34 1.96h-.05c-9.6-.05-19.2-.04-28.8-.05-.58 0-1.17-.02-1.75-.02-.51 0-1.02.01-1.53.06-.15.01-.29.02-.41.02-1.28 0-1.57-.72-1.21-2.01.02-.06 0-.13.02-.19q.72-4.48-3.78-4.49h-9c-4.54 0-9.07 0-13.61-.06h-.11c-1.39 0-2.06.35-2.32 1.85-1.29 7.26-2.66 14.51-4.04 21.76-.89 4.65-1.85 9.3-2.73 13.96-.36 1.89-.51 3.82-.87 5.71-.18.91.22 1.05.68 1.05.19 0 .39-.02.57-.02h.03q2.04.03 4.08.03h11.51c3.44 0 6.87 0 10.31.05h.07c1.31 0 1.92-.45 2.15-1.74.73-4.03 1.51-8.05 2.27-12.07.2-1.09-.37-1.22-1-1.22-.19 0-.38.01-.56.01h-.03c-2.43-.02-4.86-.06-7.29-.06-1.56 0-3.13.02-4.69.07h-.28c-1.52 0-1.88-.49-1.56-2.11.69-3.58 1.79-7.09 2.02-10.76.05-.85.57-1.19 1.39-1.19h.8c.83 0 1.65-.02 2.48-.02h.06c10.48.01 20.96.04 31.44.04 4.6 0 9.19 0 13.79-.02h.04c1.73 0 2.33.3 1.93 2.23-1.3 6.22-2.44 12.48-3.62 18.72-1.41 7.5-2.86 14.99-4.16 22.5-.27 1.56-.85 1.98-2.34 1.98h-.02c-21.78-.05-43.55-.05-65.33-.06h-.23c-10.42 0-20.84.01-31.27.07h-.05c-1.41 0-1.74-.33-1.47-1.87 1.73-9.51 3.63-18.99 5.4-28.49 1.78-9.57 3.64-19.12 5.34-28.7.85-4.78 2.21-9.49 2.55-14.37.1-1.53.77-2.24 2.53-2.24m-.01-2.32c-2.89 0-4.65 1.6-4.84 4.4-.21 3.09-.85 6.09-1.54 9.27-.35 1.62-.69 3.23-.98 4.85-1.13 6.37-2.35 12.85-3.54 19.11-.6 3.19-1.21 6.37-1.8 9.56-.76 4.1-1.55 8.2-2.34 12.3-1.04 5.4-2.07 10.79-3.06 16.2-.12.66-.4 2.21.6 3.42.99 1.18 2.5 1.18 3.14 1.18a6556 6556 0 0 1 31.31-.07h.23c21.77 0 43.55 0 65.32.05 2.69 0 4.2-1.28 4.65-3.9 1.05-6.08 2.22-12.25 3.35-18.23l.8-4.24.73-3.88c.91-4.86 1.85-9.89 2.88-14.8.14-.65.5-2.39-.58-3.71-1.07-1.32-2.8-1.32-3.62-1.32-4.64.01-9.23.02-13.83.02-6.82 0-13.65 0-20.47-.02H75.99c-2.18 0-3.66 1.35-3.79 3.36-.15 2.31-.67 4.58-1.22 6.98-.27 1.16-.53 2.32-.76 3.49-.21 1.09-.33 2.48.61 3.62 1.04 1.26 2.63 1.26 3.23 1.26h.35c1.54-.06 3.08-.08 4.61-.08 1.62 0 3.24.02 4.86.04h1.44l-.46 2.47c-.51 2.64-1.01 5.29-1.49 7.93-3.45-.04-6.86-.05-10.28-.05H61.57c-.93 0-1.86 0-2.8-.01.07-.44.12-.88.18-1.32.12-.9.24-1.79.41-2.68.45-2.41.93-4.81 1.41-7.21.45-2.25.89-4.49 1.32-6.74 1.27-6.7 2.72-14.3 4.03-21.72h.05c4.63.05 9.17.06 13.72.06h9.01c.6 0 1.25 0 1.76.02-.06.5-.17 1.15-.27 1.79l-.02.14v.03c-.33 1.37-.16 2.51.5 3.39.46.61 1.36 1.33 3 1.33.2 0 .41-.01.64-.03.43-.04.87-.05 1.31-.05h.85l.89.02h6.08c7.57 0 15.14 0 22.71.05h.02c1.06 0 4.02-.02 4.67-3.89.77-4.57 1.7-9.2 2.61-13.69l.69-3.44c.32-1.58.57-2.85-.34-3.98s-2.15-1.16-3.72-1.19h-.48l-.14 2.32-.02-2.32-35.8-.03H81.9l-2.32-.01v.06h-8.63c-12.18-.01-24.78-.02-37.17-.09h-.05Z" fill="#ffffff"/>
            <path d="M393.76 411.12c-5.44 0-10.87 0-16.31.03-.79 0-1.86-.09-2.53-.9-.65-.79-.55-1.83-.39-2.65l1.49-7.7c1.42-7.29 2.84-14.59 4.15-21.9.95-5.28 1.94-10.55 2.93-15.81.72-3.79 1.43-7.59 2.13-11.38.26-1.43.56-2.86.85-4.28.66-3.19 1.34-6.5 1.63-9.78.3-3.41 1.08-3.75 4.27-3.76l3.87.02h87.35c1.29.01 2.42.08 3.08.9.66.81.5 1.93.23 3.19l-.33 1.55c-.61 2.87-1.24 5.84-1.7 8.77-.35 2.18-1.47 3.11-3.75 3.11-8.72-.04-17.38-.05-26.05-.06-9.37-.01-18.74-.03-28.11-.07-1.41 0-1.55.1-1.71 1.24-.35 2.62-.87 5.24-1.37 7.78-.2 1.02-.41 2.05-.6 3.07-.08.44-.09.65-.08.74h.03c.08 0 .28.03.61.03 12.38-.06 24.73-.08 37.08-.09l17.65-.03c.65 0 1.79 0 2.46.83.62.76.51 1.77.36 2.57-.22 1.07-.45 2.13-.69 3.19-.56 2.5-1.14 5.08-1.36 7.65-.07.84-.48 2.25-2.52 2.25l-3.78.03h-8.94c-14.26-.01-28.52-.02-42.77-.08-1.26 0-1.37.15-1.51 1.09-.62 4.13-1.3 7.93-2.05 11.62-.01.07-.03.13-.03.18h.27c.61-.03 1.22-.04 1.84-.04 0 0 29.6.03 38.03.03h14.89c.98-.01 2.05.06 2.71.87.64.79.52 1.82.35 2.64-.79 3.76-1.45 7.55-2.12 11.33l-.26 1.48c-.42 2.37-2.44 2.37-3.21 2.37l-28.1.02-47.99-.04Z" fill="#ffffff"/>
            <path d="M392.25 334.14c1.2 0 2.41.02 3.61.02 29.12 0 58.23.01 87.35.02 2.43 0 2.67.33 2.18 2.68-.72 3.45-1.49 6.9-2.04 10.38-.27 1.69-.98 2.14-2.61 2.14h-.04c-18.04-.08-36.08-.05-54.11-.13h-.06c-1.71 0-2.54.33-2.8 2.24-.49 3.62-1.29 7.19-1.96 10.79-.26 1.39-.14 2.14 1.69 2.14h.04c18.23-.1 36.46-.08 54.69-.11h.03c1.45 0 2.01.26 1.66 2.01-.73 3.64-1.76 7.25-2.06 10.97-.08.93-.55 1.18-1.36 1.18h-.47c-1.13 0-2.26.03-3.39.03h-.04c-17.2-.01-34.4 0-51.6-.08h-.04c-1.6 0-2.37.4-2.62 2.07-.59 3.87-1.26 7.73-2.05 11.56-.27 1.3.18 1.59 1.08 1.59.11 0 .23 0 .36-.01.64-.04 1.29-.04 1.93-.04h.19c12.61.01 25.23.04 37.85.04 4.91 0 9.81 0 14.72-.01h.03c1.65 0 2.29.3 1.9 2.13-.89 4.26-1.63 8.56-2.39 12.85-.22 1.26-1 1.41-2.08 1.41h-5.77c-6.84 0-13.69.02-20.54.02h-1.79c-6.1 0-12.21-.01-18.31-.02-9.85 0-19.69-.02-29.54-.02-5.49 0-10.97 0-16.45.03h-.02c-1.77 0-2.04-.69-1.76-2.17 1.9-9.87 3.87-19.72 5.64-29.61 1.63-9.07 3.4-18.12 5.06-27.19.87-4.71 2.07-9.37 2.49-14.17.23-2.67.4-2.7 3.12-2.7h.26m.02-2.36h-.26c-3.69 0-5.07.74-5.42 4.82-.28 3.22-.93 6.35-1.61 9.66-.29 1.43-.59 2.86-.85 4.3-.69 3.77-1.4 7.55-2.12 11.32-1 5.29-1.99 10.58-2.95 15.88-1.31 7.3-2.75 14.71-4.15 21.88-.5 2.57-1 5.14-1.49 7.7-.12.63-.44 2.3.64 3.61 1.09 1.32 2.83 1.32 3.4 1.32 5.51-.02 10.99-.02 16.47-.02 6.31 0 12.63 0 18.94.02h10.6l2.32.01h27.16c3.72-.01 7.43-.02 11.15-.02h5.74c3.14 0 4.12-1.81 4.39-3.32l.27-1.55c.65-3.69 1.32-7.51 2.1-11.22.21-.98.37-2.43-.59-3.61-1.07-1.31-2.77-1.31-3.59-1.31-4.93 0-9.84.01-14.74.01-8.43 0-16.87-.01-25.3-.02h-12.54l-.2-.01h-.85c.66-3.31 1.26-6.73 1.82-10.43 0-.03.01-.07.01-.09h.31c13.98.06 27.92.07 41.87.07h9.77c.62 0 1.19 0 1.77-.01.55 0 1.11-.02 1.66-.02h.42c2.15 0 3.56-1.26 3.72-3.31.2-2.49.75-4.92 1.33-7.5.24-1.07.48-2.14.7-3.21.12-.62.45-2.26-.59-3.53-1.02-1.25-2.59-1.25-3.34-1.25-6 .01-11.97.02-17.93.02-12.04.01-24.08.03-36.12.09.16-.81.31-1.63.48-2.44.51-2.56 1.03-5.2 1.39-7.85.01-.09.03-.16.04-.22.11 0 .26-.02.47-.02 9.3.04 18.56.06 27.81.07 8.79.01 17.57.03 26.35.06 2.91 0 4.52-1.34 4.95-4.09.46-2.88 1.08-5.82 1.68-8.66l.34-1.6c.25-1.21.6-2.85-.46-4.16-1.07-1.31-2.82-1.31-3.98-1.31l-87.35-.02h-1.77l-1.84-.02Z" fill="#ffffff"/>
            <path d="M653.76 411.39c-6.19-.06-12.38-.08-18.57-.08q-6.84 0-13.68.03c-.89 0-1.94-.1-2.59-.9-.66-.79-.57-1.85-.39-2.77.6-3.17 1.21-6.35 1.82-9.52 1.13-5.88 2.26-11.75 3.33-17.64 1.48-8.15 3.02-16.3 4.55-24.44l.41-2.16c.11-.6.17-1.21.23-1.82.06-.58.1-1.12.11-1.43-.32-.03-.86-.03-1.39-.03l-16.35-.02c-3.05 0-9.17.01-9.18.01-.82 0-1.78-.01-2.38-.77-.57-.72-.44-1.67-.27-2.42.83-3.6 1.43-7.23 2.08-11.25.35-2.14 1.52-3.1 3.79-3.1 12.65.06 25.26.07 37.87.08h10.08l47.33.04c1.75 0 2.7 0 3.33.77.62.76.44 1.64.12 3.25-.88 4.39-1.48 7.64-1.97 10.69-.31 1.95-1.36 2.82-3.37 2.82-4.26-.03-8.45-.03-12.64-.04-5.6 0-11.2 0-16.79-.07h-.02c-.94 0-1.03.04-1.23 1.15-1.1 5.91-2.22 11.81-3.34 17.71-.93 4.88-1.86 9.76-2.77 14.65-1.5 8-2.96 16.01-4.39 24.02-.29 1.61-.95 3.25-3.66 3.25h-.07Z" fill="#ffffff"/>
            <path d="M605.27 334.24h.04c15.97.07 31.94.07 47.91.08 15.78 0 31.56.01 47.33.03 2.89 0 2.84 0 2.29 2.76-.7 3.52-1.38 7.05-1.95 10.6-.23 1.42-.83 1.85-2.24 1.85h-.05c-9.79-.07-19.58 0-29.37-.11h-.08c-1.67 0-2.06.67-2.33 2.11-2 10.79-4.09 21.56-6.11 32.35-1.5 8-2.96 16.01-4.39 24.03-.27 1.51-.76 2.29-2.52 2.29h-.05c-6.16-.06-12.33-.08-18.49-.08-4.59 0-9.18.01-13.77.04h-.04c-1.8 0-2.11-.64-1.8-2.3 1.71-9.06 3.51-18.1 5.16-27.17 1.61-8.88 3.29-17.74 4.96-26.6.13-.69.19-1.39.26-2.09q.25-2.56-2.45-2.57c-5.41 0-10.81-.02-16.22-.02-3.1 0-6.19 0-9.29.02h-.09c-1.28 0-1.85-.12-1.47-1.77.86-3.74 1.49-7.54 2.1-11.33.26-1.63 1.02-2.12 2.64-2.12m.02-2.32c-2.84 0-4.49 1.37-4.93 4.07-.65 4.02-1.26 7.64-2.07 11.18-.13.59-.49 2.16.5 3.4.96 1.21 2.44 1.21 3.23 1.21 3.19-.01 6.29-.02 9.38-.02h16.36v.03l-.02.17c-.05.57-.1 1.15-.21 1.71l-.4 2.11c-1.54 8.17-3.08 16.33-4.57 24.5-1.06 5.86-2.21 11.81-3.32 17.57-.61 3.19-1.23 6.39-1.84 9.58-.14.72-.46 2.41.64 3.73.98 1.18 2.43 1.32 3.44 1.32 4.64-.02 9.22-.03 13.81-.03 6.16 0 12.31.02 18.47.08 4.13 0 4.69-3.17 4.87-4.2 1.47-8.23 2.94-16.3 4.38-24.01.9-4.8 1.81-9.61 2.72-14.41 1.14-5.98 2.27-11.96 3.39-17.95.02-.08.03-.15.04-.21 5.64.07 11.31.07 16.8.07 4.21 0 8.42 0 12.62.04 2.67 0 4.19-1.28 4.59-3.8.62-3.87 1.36-7.65 1.93-10.51.37-1.82.63-3.16-.34-4.34-.97-1.19-2.33-1.19-4.22-1.2l-35.19-.03h-12.15l-2.32-.01h-8.33c-12.42 0-24.83-.02-37.25-.07h-.05Z" fill="#ffffff"/>
            <path d="M256.89 411c-11.43-.03-22.86-.04-34.29-.05h-11.7v-.03l-30.66-.03h-13.21c-.82.01-1.72-.08-2.28-.77-.57-.69-.49-1.59-.34-2.39 1.02-5.29 1.99-10.59 2.97-15.88.66-3.59 1.32-7.17 2-10.76.57-3.02 1.17-6.04 1.77-9.07 1.19-5.99 2.42-12.18 3.38-18.29.39-2.48.9-4.94 1.42-7.4.72-3.43 1.45-6.97 1.82-10.49.29-2.82 2.55-2.82 3.3-2.82h9.61c7.88.01 15.75-.01 23.63-.07 1.04 0 1.74.27 2.2.82.67.81.47 1.84.34 2.53-.68 3.58-1.37 7.15-2.06 10.72l-2.75 14.21c-1.48 7.62-3.01 15.49-4.38 23.26-.17.95-.36 1.89-.54 2.84-.33 1.63-.65 3.27-.86 4.92l1.51.02s30.77.03 40.46.03h11.91c.85 0 1.89.1 2.54.88s.54 1.81.4 2.52c-.24 1.26-.52 2.51-.8 3.76-.63 2.8-1.27 5.7-1.45 8.58-.19 2.94-2.76 2.94-3.87 2.94h-.05Z" fill="#ffffff"/>
            <path d="M214.34 334.14c1.66 0 1.56.9 1.36 1.97-1.05 5.54-2.13 11.08-3.2 16.62-2.02 10.52-4.13 21.03-5.99 31.58-.46 2.65-1.09 5.27-1.43 7.95-.11.89.08 1.18.89 1.18h.31c.49 0 .98.01 1.47.01 13.31.01 26.63.03 39.94.03h12.44c1.53 0 2.1.42 1.79 2.02-.8 4.15-2.01 8.24-2.28 12.49-.11 1.72-1.31 1.86-2.7 1.86h-.06c-14.95-.04-29.89-.05-44.84-.06v-.02c-10.61 0-21.23-.03-31.84-.03-4.39 0-8.79 0-13.18.01H167c-1.41 0-1.74-.33-1.46-1.78 1.71-8.87 3.3-17.77 4.97-26.65 1.72-9.13 3.71-18.22 5.15-27.39.95-6.02 2.62-11.89 3.24-17.95.14-1.38.8-1.77 2.14-1.77h.01c3.18 0 6.36.01 9.54.01 7.9 0 15.8-.03 23.7-.08h.03m.02-2.32h-.05c-7.89.06-15.79.08-23.68.08-3.18 0-6.36 0-9.54-.01-3.55 0-4.32 2.42-4.47 3.86-.35 3.46-1.06 6.82-1.8 10.37-.51 2.43-1.03 4.93-1.43 7.46-.96 6.09-2.18 12.26-3.36 18.23-.6 3.03-1.2 6.06-1.77 9.09-.67 3.58-1.33 7.16-1.99 10.74-.98 5.3-1.95 10.61-2.97 15.9-.12.64-.41 2.14.58 3.34s2.51 1.2 3.15 1.2c4.41 0 8.8-.01 13.2-.01 7.37 0 14.74 0 22.12.02h7.41l2.32.03h9.65c11.73.02 23.45.03 35.18.06 3.99 0 4.96-2.19 5.07-4.03.18-2.8.79-5.52 1.43-8.4.28-1.26.56-2.52.81-3.79.1-.54.42-2.18-.65-3.47-1.08-1.3-2.78-1.3-3.42-1.3h-12.44c-9.79 0-19.58-.01-29.37-.02h-10.56l-.16-.01c.19-1.19.42-2.34.66-3.54.19-.96.38-1.92.55-2.87 1.37-7.77 2.9-15.66 4.38-23.28.53-2.76 1.07-5.51 1.6-8.27l1.17-6.07c.68-3.52 1.36-7.04 2.03-10.56.15-.79.43-2.26-.59-3.49-.68-.82-1.71-1.24-3.05-1.24" fill="#ffffff"/>
            <path d="M138.54 410.91c-4.03 0-12.09.02-12.09.02-.35 0-1.33 0-1.98-.7-.58-.63-.59-1.46-.55-2.03.17-2.26.66-4.45 1.14-6.57.23-1 .45-2 .64-3 .78-4.11 1.54-8.21 2.31-12.32 1.2-6.46 2.41-12.92 3.67-19.37.82-4.18 1.58-8.37 2.34-12.56.84-4.62 1.68-9.24 2.59-13.85l.15-.74c.28-1.39.55-2.71.66-4.05.22-2.72 2.4-2.72 3.21-2.72 3.32.03 6.51.03 9.7.03h20.15c1.41.02 2.27.02 2.86.73.6.72.42 1.63.17 3-.62 3.3-3.5 18.32-3.5 18.32-1.58 8.33-5.95 31.6-5.95 31.6-1.37 7.29-2.74 14.59-4.08 21.89-.43 2.34-2.29 2.34-3 2.34 0 0-12.31-.03-18.45-.03" fill="#ffffff"/>
            <path d="M140.63 334.18h.12c2.99.03 5.98.03 8.96.03h6.3c4.83 0 9.65 0 14.48.01 2.29 0 2.33 0 1.89 2.34-1.15 6.11-2.35 12.22-3.5 18.33-1.67 8.82-3.32 17.63-4.98 26.45-1.69 9.01-3.4 18.02-5.05 27.04-.22 1.18-.85 1.39-1.86 1.39h-.02c-6.21-.01-12.42-.02-18.62-.02-3.96 0-7.93 0-11.89.01h-.01c-1.12 0-1.44-.42-1.36-1.48.24-3.22 1.17-6.3 1.77-9.45 2.01-10.56 3.91-21.14 5.98-31.68 1.72-8.78 3.18-17.62 4.93-26.41.33-1.63.69-3.27.83-4.92.12-1.46.88-1.65 2.05-1.65m-.02-2.31c-3.35 0-4.22 2.06-4.36 3.78-.1 1.27-.37 2.56-.64 3.93l-.15.73c-.92 4.62-1.77 9.33-2.6 13.88-.76 4.18-1.52 8.36-2.33 12.53-1.26 6.45-2.48 13.01-3.66 19.35-.77 4.12-1.53 8.23-2.31 12.34-.19.99-.41 1.98-.63 2.97-.49 2.16-.99 4.4-1.17 6.74-.03.45-.14 1.83.85 2.9 1 1.08 2.37 1.08 2.82 1.08 3.98-.01 7.94-.01 11.9-.01 6.21 0 12.41 0 18.62.02 2.95 0 3.89-1.79 4.17-3.29 1.34-7.34 2.72-14.67 4.1-22l.95-5.03.51-2.7 4.47-23.75 1.62-8.47c.63-3.29 1.26-6.57 1.88-9.86.29-1.51.53-2.82-.41-3.96-.94-1.13-2.24-1.13-3.75-1.13h-7.63l-6.86-.01h-6.3c-2.98 0-5.96 0-8.94-.03h-.14Z" fill="#ffffff"/>
            <path d="M365.9 409.05c-12.57-.05-25.15-.06-37.72-.07h-12.33v-.05l-30.36-.03c-5.98 0-11.97 0-17.95.03-.77 0-1.84-.09-2.49-.88-.71-.87-.49-2.05-.37-2.69l1.35-7.07c1.57-8.21 3.14-16.42 4.64-24.64 1.64-8.94 3.32-17.87 5.03-26.79l.51-2.59c.66-3.4 1.35-6.91 1.86-10.38.25-1.74.89-2.9 3.16-2.9l3.89.03c5.4.04 10.8.08 16.21.08 3.3 0 6.6-.01 9.9-.06 8.95-.11 18.5-.16 30.95-.16l37.61.03c1.31 0 2.34 0 2.99.76.64.76.49 1.69.21 3.38-1.18 7.15-2.52 14.78-4.38 22.4-1.17 4.81-3.07 10.15-8.17 13.47 4.06 4.24 3.37 9.5 2.74 14.16l-.05.4c-.9 6.79-2.12 13.6-3.39 20.57-.48 2.63-2.11 3-3.8 3zm-40.65-18.72c2.42 0 4.84 0 7.26.03.79 0 .82-.05.92-.68.69-4.25 1.39-7.97 2.14-11.37.09-.41.1-.62.09-.72h-.05c-.09 0-.29-.02-.6-.02-3.75.02-7.46.03-11.17.03-4.66 0-9.31-.01-13.97-.04h-.01c-.66 0-.69 0-.82.76l-.44 2.68c-.48 2.94-.96 5.98-1.74 8.95-.05.19-.07.32-.08.4.01 0 .28.01.48.01 1.82-.04 3.52-.05 5.23-.05l12.77.03Zm-12.83-29.32q12.93 0 25.86.03c.39 0 .49-.06.49-.06s.08-.1.14-.46c.69-4.16 1.51-8.27 2.27-12.1.01-.05.02-.1.03-.14h-.15c-1.73.02-3.42.03-5.11.03l-8.84-.02h-5.38c-2.01 0-4.02-.01-6.02-.06l-.1-1.16v1.16c-.85 0-.95.14-1.08.85-.69 3.98-1.42 7.96-2.19 11.93z"/>
            <path d="M342.11 332.05c10.62 0 21.23.03 31.85.03h5.78c2.59 0 2.56.1 2.1 2.84-1.23 7.46-2.56 14.92-4.35 22.26-1.25 5.15-3.2 10.09-8.13 13.06-.44.26-.74.55-.23 1.03 4.32 4.01 3.51 9.05 2.85 14.07-.91 6.88-2.13 13.69-3.38 20.52-.31 1.72-1.09 2.04-2.65 2.04h-.05c-16.3-.07-32.6-.07-48.9-.08v-.03c-10.51 0-21.02-.03-31.53-.03-5.98 0-11.96 0-17.94.03h-.03c-1.85 0-1.96-.77-1.69-2.2 2.01-10.57 4.06-21.13 5.99-31.71 1.64-8.94 3.32-17.86 5.03-26.78.83-4.33 1.73-8.66 2.37-13.02.22-1.47.59-1.91 2.02-1.91h.05c6.66.05 13.31.11 19.97.11q4.995 0 9.99-.06c10.29-.13 20.57-.16 30.86-.16m-3.8 30.14c1.04 0 1.58-.33 1.77-1.49.67-4.03 1.46-8.05 2.27-12.06.24-1.18-.11-1.53-1.25-1.53h-.07c-1.67.02-3.34.03-5.02.03-2.57 0-5.15-.01-7.72-.02-.15-.01-.3-.01-.45-.01-2.05 0-4.1.01-6.15.01s-3.96-.01-5.94-.06h-.14c-1.32 0-1.98.46-2.21 1.82a608 608 0 0 1-2.19 11.92c-.21 1.1.26 1.36 1.22 1.36q12.93 0 25.86.03h.01m-31.03 29.32h.15c1.67-.04 3.34-.05 5.01-.05 2.45 0 4.9.03 7.35.03h5.6c2.38 0 4.76 0 7.14.03h.06c1.17 0 1.8-.33 2.02-1.65.61-3.78 1.3-7.56 2.13-11.31.37-1.67-.1-2.15-1.7-2.15h-.04q-5.655.03-11.31.03c-4.6 0-9.19-.01-13.79-.04h-.03c-1.27 0-1.74.47-1.95 1.73-.66 3.85-1.16 7.73-2.16 11.52-.37 1.4.14 1.87 1.53 1.87m34.85-61.8c-12.43 0-21.96.05-30.89.16q-4.98.06-9.96.06c-5.42 0-10.84-.04-16.26-.08l-3.7-.03c-3.42 0-4.14 2.22-4.38 3.89-.51 3.45-1.19 6.96-1.86 10.35l-.5 2.57c-1.83 9.48-3.47 18.24-5.04 26.8-1.51 8.24-3.11 16.6-4.65 24.7l-1.34 7c-.15.77-.45 2.37.61 3.65 1.08 1.3 2.79 1.3 3.36 1.3 6.01-.02 11.99-.03 17.97-.03 6.74 0 13.48 0 20.22.02h9l2.32.05h10.67c12.74.01 25.48.02 38.21.08 1.87 0 4.35-.41 4.99-3.94 1.33-7.27 2.5-13.85 3.39-20.63l.05-.4c.61-4.58 1.29-9.71-2.18-14.11 4.64-3.57 6.44-8.72 7.58-13.4 1.87-7.66 3.21-15.31 4.39-22.43.31-1.88.53-3.2-.46-4.37s-2.42-1.17-3.93-1.17h-5.78c-5.31 0-10.61 0-15.92-.01-5.31 0-10.62-.02-15.93-.02m-28.34 30.11c.71-3.74 1.34-7.16 1.91-10.46 2.06.05 4.04.06 6.02.06h3.08l1.81-.01h1.71l3.49.02h8.03c-.66 3.32-1.35 6.84-1.95 10.43-8.03-.02-16.07-.03-24.1-.03m-5.51 29.32c.64-2.67 1.07-5.36 1.49-7.97.13-.83.27-1.66.41-2.49 4.52.02 9.02.04 13.52.04 3.55 0 7.09 0 10.64-.03-.68 3.16-1.32 6.6-1.96 10.47-2.35-.02-4.67-.03-6.98-.03h-5.59c-1.18 0-2.36 0-3.53-.01-1.27 0-2.54-.01-3.82-.01-1.39 0-2.78 0-4.17.03" fill="#ffffff"/>
            <path d="M549.36 409.22c-1.6 0-2.51-.83-2.72-2.47-.25-1.93-.53-3.87-.81-5.79-.48-3.36-.98-6.83-1.3-10.27-.19-2.01-.47-4.02-.76-6.02-.33-2.31-.67-4.71-.85-7.1l-19.89-.07a.1.1 0 0 0-.04-.02c-.05 0-.09.1-.13.35-.64 3.53-1.32 7.05-1.99 10.58l-1.42 7.36c-.67 3.48-1.34 6.96-1.97 10.44-.37 2.04-1.45 2.96-3.53 2.96-5.21-.03-10.38-.04-15.55-.04h-17.54c-1.15.01-2.23.01-2.88-.77-.64-.78-.45-1.78-.21-3.05.98-5.18 1.95-10.37 2.91-15.56l1.92-10.29c.64-3.4 1.29-6.81 1.94-10.21 1.37-7.16 2.74-14.31 4.01-21.49.39-2.2.82-4.4 1.25-6.59.47-2.38.93-4.77 1.35-7.16.37-2.18 1.4-3.07 3.54-3.07 12.72.07 25.4.08 38.08.08 0 0 44.48.03 60.91.05 1.44 0 2.43.06 3.07.83.68.82.46 1.9.17 3.39l-1.06 5.32c-1.23 6.1-2.5 12.4-3.38 18.65-.39 2.76-1.54 5.26-3.52 7.65l-.28.34c-2.61 3.15-5.3 6.4-9.18 8.41-.41.21-.53.28-.3 1.24 1.76 7.53 3.47 15.12 5.07 22.57.48 2.22-.07 4.26-.6 6.23-.14.55-.29 1.09-.41 1.64-.42 1.91-2.25 1.91-2.85 1.91h-24.32l-4-.04c-.84 0-1.68 0-2.52.04h-.22Zm-4.18-48.08c2.27 0 4.54 0 6.82.03.79 0 1.11-.22 1.44-.96 1.71-3.85 1.21-7.85.55-11.6-.06-.12-.42-.12-.55-.12h-5.73c-6.33 0-12.66 0-18.99-.03-.24 0-.35.01-.4.03 0 .03-.03.14-.07.35-.53 3.16-1.14 6.3-1.76 9.44l-.45 2.29c-.06.31-.07.49-.06.58 0 0 .23.01.43.01 1.78-.04 3.48-.05 5.18-.05l6.74.02h6.86Z"/>
            <path d="M494.7 332.09h.04c16.56.08 33.11.07 49.67.09 16.43 0 32.86.02 49.28.04 2.56 0 2.61.24 2.1 2.84-1.57 7.99-3.32 15.96-4.45 24.03-.38 2.73-1.58 5.05-3.26 7.07-2.66 3.2-5.29 6.48-9.11 8.46-1.1.57-1.18 1.34-.9 2.53 1.76 7.5 3.45 15.01 5.07 22.54.55 2.53-.47 4.95-1.01 7.37-.2.91-.96 1-1.71 1h-24.31c-1.33 0-2.65-.03-3.98-.03-.87 0-1.73.01-2.59.04h-.17c-1.01 0-1.44-.38-1.58-1.46-.68-5.35-1.6-10.66-2.11-16.02-.41-4.41-1.28-8.75-1.62-13.17-.07-.9-.63-1.01-1.32-1.02-6.57-.02-13.14-.03-19.71-.06h-.01c-.89 0-1.15.44-1.3 1.28-.85 4.67-1.76 9.33-2.65 14-.91 4.79-1.87 9.58-2.72 14.38-.26 1.45-.86 2-2.39 2h-.04c-5.09-.03-10.18-.04-15.27-.04h-17.77c-2.3 0-2.38-.19-1.95-2.45 1.64-8.61 3.22-17.24 4.84-25.86 1.99-10.57 4.08-21.12 5.96-31.71.81-4.6 1.8-9.16 2.59-13.76.27-1.53.76-2.11 2.4-2.11m31.68 30.26h.1c1.69-.03 3.39-.04 5.08-.04 2.55 0 5.11.02 7.66.03.35-.01.69 0 1.04 0h4.99c2.24 0 4.47 0 6.71.03h.05c1.24 0 1.96-.51 2.46-1.65 1.79-4.02 1.36-8.13.63-12.27-.18-1.04-.86-1.08-1.68-1.08h-5.78c-6.31 0-12.62 0-18.94-.03h-.02c-.98 0-1.42.25-1.6 1.35-.65 3.91-1.45 7.81-2.2 11.7-.25 1.3.01 1.98 1.51 1.98m-31.71-32.58c-2.68 0-4.21 1.32-4.68 4.03-.42 2.39-.88 4.77-1.34 7.15-.43 2.2-.86 4.4-1.25 6.6-1.26 7.14-2.65 14.39-4 21.41-.66 3.43-1.31 6.85-1.96 10.28-.67 3.55-1.33 7.1-1.99 10.65-.94 5.07-1.89 10.14-2.85 15.2-.26 1.38-.53 2.81.45 4 .99 1.2 2.47 1.2 3.77 1.2h9.19l8.59-.01c5.08 0 10.17 0 15.26.04 2.69 0 4.26-1.32 4.72-3.91.61-3.45 1.28-6.9 1.95-10.34l.78-4.01.68-3.54c.63-3.28 1.26-6.56 1.86-9.85 4.1.02 8.2.03 12.29.04l5.68.02c.2 2.07.49 4.12.77 6.11.28 1.96.57 3.99.75 5.97.33 3.49.83 6.98 1.32 10.37.27 1.91.55 3.82.8 5.74.29 2.22 1.7 3.49 3.88 3.49h.25c.83-.04 1.67-.05 2.51-.05.67 0 1.33 0 2 .01.66 0 1.32.01 1.98.01h4.18l18.78.01h1.35c2.92 0 3.75-1.76 3.98-2.82.12-.53.26-1.06.4-1.59.54-2.01 1.15-4.28.61-6.77-1.62-7.52-3.33-15.12-5.08-22.58 0-.03-.01-.06-.02-.09 3.98-2.17 6.67-5.42 9.27-8.56l.28-.34c2.09-2.52 3.36-5.29 3.77-8.23.87-6.23 2.14-12.53 3.37-18.62.36-1.76.71-3.52 1.06-5.29.31-1.6.61-3.1-.41-4.35-1.03-1.25-2.65-1.25-3.96-1.25l-37.1-.04H544.4l-2.32-.01h-8.62c-12.91 0-25.81-.01-38.72-.08h-.05Zm32.63 30.22.3-1.53c.57-2.89 1.16-5.87 1.66-8.85 6.13.02 12.25.03 18.37.03h5.32c.65 3.96.73 7.09-.61 10.09-.07.14-.11.23-.14.27h-.2c-2.27-.03-4.52-.03-6.76-.03h-9.64c-1.35-.01-2.7-.02-4.05-.02-1.42 0-2.84 0-4.25.03" fill="#ffffff"/>
            <path d="M18.96 408.85c-.83 0-1.69-.09-2.25-.77-.58-.7-.51-1.6-.35-2.47.98-5.43 2.03-10.85 3.07-16.27.78-4.07 1.56-8.14 2.33-12.22l1.8-9.58c1.2-6.37 2.41-12.73 3.53-19.1.29-1.61.63-3.21.97-4.81.66-3.08 1.34-6.27 1.56-9.44.15-2.2 1.39-3.32 3.68-3.32 12.52.08 24.99.08 37.47.09h9.54l1.16-.05 47.74.05.38 1.16v-1.16c1.65.03 2.5.05 3.07.76s.4 1.54.12 2.93l-.72 3.59c-.91 4.48-1.84 9.11-2.61 13.68-.43 2.57-1.94 2.92-3.5 2.92-7.42-.03-14.81-.04-22.19-.04l-8.39-.02c-.48 0-.95.01-1.42.06-.19.02-.37.03-.53.03-.94 0-1.64-.29-2.07-.87-.72-.94-.37-2.2-.25-2.61.2-1.4.42-2.78.29-3.1-.23-.11-1.6-.11-2.93-.11h-9.09c-4.51 0-9.02 0-13.53-.06-1.07 0-1.12.09-1.26.89-1.29 7.27-2.66 14.52-4.04 21.77-.42 2.24-.87 4.48-1.32 6.72-.48 2.41-.96 4.82-1.41 7.24-.17.91-.29 1.83-.42 2.75-.12.87-.24 1.75-.39 2.61h.04c1.41.02 2.76.03 4.11.03h11.47c3.45 0 6.91 0 10.36.05.86 0 .94-.11 1.06-.79.49-2.72 1.01-5.42 1.53-8.13l.72-3.78-2.93-.02c-1.6-.02-3.21-.04-4.81-.04s-3.08.02-4.63.07h-.32c-.77 0-1.73-.09-2.34-.83-.63-.76-.53-1.77-.36-2.65.22-1.15.49-2.3.75-3.45.56-2.44 1.1-4.75 1.25-7.16.09-1.41 1.07-2.28 2.55-2.28h3.34s24.65.03 31.63.03c4.53 0 9.06 0 13.59-.02 1.02 0 2.11.07 2.77.89.65.8.52 1.89.35 2.74-1.04 4.93-1.96 9.89-2.89 14.84l-1.52 8.04c-1.16 6.1-2.31 12.19-3.37 18.3-.36 2.09-1.37 2.95-3.49 2.95-21.79-.05-43.57-.05-65.35-.05-10.5 0-21 .01-31.49.07h-.06Z"/>
            <path d="M33.3 332.03h.04c16.04.09 32.08.08 48.12.09v-.05c15.91.01 31.83.03 47.74.04h.58c2.35.05 2.31.05 1.84 2.41-1.14 5.72-2.35 11.44-3.32 17.2-.27 1.63-.94 1.96-2.34 1.96h-.05c-9.6-.05-19.2-.04-28.8-.05-.58 0-1.17-.02-1.75-.02-.51 0-1.03.01-1.54.06-.15.01-.29.02-.41.02-1.28 0-1.57-.72-1.21-2.01.02-.06 0-.13.02-.19q.72-4.48-3.78-4.49h-9c-4.54 0-9.07 0-13.61-.06h-.11c-1.39 0-2.06.35-2.32 1.85-1.29 7.26-2.66 14.51-4.04 21.76-.89 4.65-1.85 9.3-2.73 13.96-.36 1.89-.51 3.82-.87 5.71-.18.91.22 1.05.68 1.05.19 0 .39-.02.57-.02h.03q2.04.03 4.08.03h11.51c3.44 0 6.87 0 10.31.05h.07c1.31 0 1.92-.45 2.15-1.74.73-4.03 1.51-8.05 2.27-12.07.2-1.09-.37-1.22-1-1.22-.19 0-.38.01-.56.01h-.03c-2.43-.02-4.86-.06-7.29-.06-1.56 0-3.13.02-4.69.07h-.28c-1.52 0-1.88-.49-1.56-2.11.69-3.58 1.79-7.09 2.02-10.76.05-.85.57-1.19 1.39-1.19h.8c.83 0 1.65-.02 2.48-.02h.06c10.48.01 20.96.04 31.44.04 4.6 0 9.19 0 13.79-.02h.04c1.73 0 2.33.3 1.93 2.23-1.3 6.22-2.44 12.48-3.62 18.72-1.41 7.5-2.86 14.99-4.16 22.5-.27 1.56-.85 1.98-2.34 1.98h-.02c-21.78-.05-43.55-.05-65.33-.06h-.23c-10.42 0-20.84.01-31.27.07h-.05c-1.41 0-1.74-.33-1.47-1.87 1.73-9.51 3.63-18.99 5.4-28.49 1.78-9.57 3.64-19.12 5.34-28.7.85-4.78 2.21-9.49 2.55-14.37.1-1.53.77-2.24 2.53-2.24m0-2.32c-2.89 0-4.65 1.6-4.84 4.4-.21 3.09-.85 6.09-1.54 9.27-.35 1.62-.69 3.23-.98 4.85-1.13 6.37-2.35 12.85-3.54 19.11-.6 3.19-1.21 6.37-1.8 9.56-.76 4.1-1.55 8.2-2.34 12.3-1.04 5.4-2.07 10.79-3.06 16.2-.12.66-.4 2.21.6 3.42.99 1.19 2.5 1.19 3.14 1.19a6556 6556 0 0 1 31.31-.07h.23c21.77 0 43.55 0 65.32.05 2.69 0 4.2-1.28 4.65-3.9 1.05-6.08 2.22-12.25 3.35-18.22l.8-4.24.73-3.88c.91-4.86 1.85-9.89 2.88-14.8.14-.65.5-2.39-.58-3.71-1.07-1.32-2.8-1.32-3.62-1.32-4.64.01-9.23.02-13.83.02-6.82 0-13.65 0-20.47-.02H75.49c-2.18 0-3.66 1.35-3.79 3.36-.15 2.31-.67 4.58-1.22 6.98-.27 1.16-.53 2.32-.76 3.49-.21 1.09-.33 2.48.61 3.62 1.04 1.26 2.63 1.26 3.23 1.26h.35c1.54-.06 3.08-.08 4.61-.08 1.62 0 3.24.02 4.86.04h1.44l-.46 2.47c-.51 2.64-1.01 5.29-1.49 7.93-3.45-.04-6.86-.05-10.28-.05H61.07c-.93 0-1.86 0-2.8-.01.07-.44.12-.88.18-1.32.12-.9.24-1.79.41-2.68.45-2.41.93-4.81 1.41-7.21.45-2.25.89-4.49 1.32-6.74 1.27-6.7 2.72-14.3 4.03-21.72h.05c4.63.05 9.17.06 13.72.06h9.01c.6 0 1.25 0 1.76.02-.06.5-.17 1.15-.27 1.79l-.02.14v.03c-.33 1.37-.16 2.51.5 3.39.46.61 1.36 1.33 3 1.33.2 0 .41-.01.64-.03.43-.04.87-.05 1.31-.05h.85l.89.02h6.1c7.56 0 15.13 0 22.69.05h.02c1.06 0 4.02-.02 4.67-3.89.77-4.57 1.7-9.2 2.61-13.69l.69-3.44c.32-1.58.57-2.85-.34-3.98s-2.15-1.16-3.72-1.19h-.48l-.14 2.32-.02-2.32-33.42-.03H81.4l-2.32-.02v.06h-8.63c-12.18-.01-24.78-.02-37.17-.09h-.05Z" fill="#ffffff"/>
            <path d="M393.26 409.05c-5.44 0-10.87 0-16.31.03-.78 0-1.86-.09-2.53-.9-.65-.79-.55-1.83-.39-2.65l1.49-7.71c1.42-7.29 2.84-14.58 4.15-21.89.96-5.35 1.97-10.68 2.97-16.01.7-3.72 1.41-7.45 2.09-11.17.26-1.43.56-2.85.85-4.28.66-3.2 1.34-6.5 1.63-9.79.3-3.41 1.08-3.75 4.28-3.76l3.87.02h87.35c1.29.01 2.42.08 3.08.9.66.81.5 1.93.23 3.19l-.33 1.57c-.61 2.86-1.23 5.82-1.69 8.75-.44 2.74-2.15 3.12-3.77 3.12-8.94-.04-17.84-.05-26.74-.06-9.13-.01-18.27-.03-27.41-.07-1.41 0-1.55.1-1.71 1.24-.35 2.62-.87 5.24-1.38 7.78-.2 1.02-.4 2.04-.6 3.07-.08.44-.09.65-.08.74h.03c.08 0 .28.03.61.03 12.18-.07 24.33-.08 36.49-.09l18.24-.03c.65 0 1.79 0 2.46.83.62.76.51 1.77.35 2.57-.21 1.07-.45 2.13-.69 3.2-.56 2.5-1.14 5.08-1.35 7.64-.07.84-.48 2.25-2.5 2.25l-3.9.03h-8.86c-14.25-.01-28.5-.02-42.75-.08-1.25 0-1.37.16-1.51 1.08-.63 4.14-1.3 7.94-2.05 11.62-.01.07-.03.13-.03.18h.27c.73-.03 1.46-.04 2.19-.04 0 0 29.93.03 38.53.03h14.03c.99-.01 2.05.06 2.72.87.64.78.52 1.82.35 2.64-.78 3.71-1.43 7.45-2.09 11.19l-.29 1.62c-.42 2.37-2.45 2.37-3.21 2.37l-28.11.02-47.98-.04Z"/>
            <path d="M391.75 332.08c1.2 0 2.41.02 3.61.02 29.12 0 58.23.01 87.35.02 2.43 0 2.67.33 2.18 2.68-.72 3.45-1.49 6.9-2.04 10.38-.27 1.69-.98 2.14-2.61 2.14h-.04c-18.04-.08-36.08-.05-54.11-.13h-.06c-1.71 0-2.54.33-2.8 2.24-.49 3.62-1.29 7.19-1.96 10.79-.26 1.39-.14 2.14 1.69 2.14h.04c18.23-.1 36.46-.08 54.69-.12h.03c1.45 0 2.01.27 1.66 2.01-.73 3.64-1.76 7.25-2.06 10.97-.08.93-.55 1.18-1.36 1.18h-.47c-1.13 0-2.26.03-3.39.03h-.04c-17.2-.01-34.4 0-51.6-.08h-.04c-1.6 0-2.37.4-2.62 2.07-.59 3.87-1.26 7.73-2.05 11.56-.27 1.3.18 1.59 1.08 1.59.11 0 .23 0 .36-.01.64-.04 1.29-.04 1.93-.04h.19c12.61.01 25.23.04 37.85.04 4.91 0 9.81 0 14.72-.01h.03c1.65 0 2.29.3 1.9 2.13-.89 4.26-1.63 8.56-2.39 12.85-.22 1.26-1 1.41-2.08 1.41h-5.77c-6.84 0-13.69.02-20.54.02h-1.79c-6.1 0-12.21-.01-18.31-.02-9.85 0-19.69-.02-29.54-.02-5.49 0-10.97 0-16.45.03h-.02c-1.77 0-2.04-.69-1.76-2.17 1.9-9.87 3.87-19.72 5.64-29.61 1.63-9.07 3.4-18.12 5.06-27.19.87-4.71 2.07-9.37 2.49-14.17.23-2.67.4-2.7 3.12-2.7h.26m.02-2.35h-.26c-3.69 0-5.07.74-5.42 4.82-.28 3.22-.93 6.35-1.61 9.66-.29 1.43-.59 2.86-.85 4.3-.69 3.77-1.4 7.54-2.12 11.32-1 5.29-1.99 10.58-2.95 15.88-1.31 7.3-2.75 14.72-4.15 21.89-.5 2.57-1 5.13-1.49 7.7-.12.63-.44 2.3.64 3.61 1.09 1.32 2.83 1.32 3.4 1.32 5.51-.02 10.99-.02 16.47-.02 6.31 0 12.63 0 18.94.02h10.6l2.32.01h27.16c3.72-.01 7.43-.02 11.15-.02h5.74c3.14 0 4.12-1.81 4.39-3.32l.27-1.55c.65-3.7 1.32-7.52 2.1-11.23.21-.98.37-2.43-.59-3.61-1.07-1.31-2.77-1.31-3.59-1.31-4.93 0-9.84.01-14.74.01-8.43 0-16.87-.01-25.3-.02h-12.54l-.2-.01h-.85c.66-3.3 1.26-6.73 1.82-10.43 0-.03.01-.07.01-.09h.31c13.98.06 27.92.07 41.87.07h9.77c.62 0 1.19 0 1.77-.01.55 0 1.11-.02 1.66-.02h.42c2.15 0 3.56-1.26 3.72-3.31.2-2.49.75-4.92 1.33-7.5.24-1.07.48-2.14.7-3.21.12-.62.45-2.26-.59-3.53-1.02-1.25-2.59-1.25-3.34-1.25-6 .01-11.97.02-17.93.02-12.04.01-24.08.03-36.12.09.16-.81.31-1.63.48-2.44.51-2.56 1.03-5.2 1.39-7.85.01-.09.03-.16.04-.22.11 0 .26-.02.47-.02 9.3.04 18.56.06 27.81.07 8.79.01 17.57.03 26.35.06 2.91 0 4.52-1.34 4.95-4.09.46-2.88 1.08-5.82 1.68-8.66l.34-1.6c.25-1.21.6-2.85-.46-4.16-1.07-1.31-2.82-1.31-3.98-1.31l-87.35-.02h-1.77l-1.84-.02Z" fill="#ffffff"/>
            <path d="M653.26 409.32c-6.19-.06-12.38-.08-18.57-.08q-6.84 0-13.68.03c-.88 0-1.93-.1-2.59-.9-.66-.79-.57-1.85-.39-2.77.62-3.27 1.25-6.53 1.88-9.8 1.11-5.78 2.23-11.57 3.28-17.36 1.49-8.22 3.04-16.43 4.59-24.63l.37-1.97c.11-.6.17-1.21.23-1.83.06-.58.1-1.11.11-1.43-.32-.03-.86-.03-1.39-.03l-16.41-.02c-3.03 0-9.11.01-9.12.01-.82 0-1.78-.01-2.39-.77-.57-.72-.44-1.67-.27-2.42.83-3.6 1.43-7.23 2.08-11.25.35-2.14 1.52-3.1 3.78-3.1 12.12.06 24.2.07 36.27.07h11.69l47.33.04c1.75 0 2.7 0 3.33.77.62.76.44 1.64.12 3.25-.87 4.37-1.47 7.63-1.97 10.69-.31 1.95-1.35 2.82-3.37 2.82-4.28-.03-8.49-.03-12.7-.04-5.58 0-11.15 0-16.73-.07-.98 0-1.04.07-1.25 1.16-1.13 6.1-2.29 12.2-3.45 18.29l-2.67 14.06q-2.235 12-4.38 24.03c-.28 1.6-.94 3.25-3.66 3.25h-.06Z"/>
            <path d="M604.77 332.17h.04c15.97.07 31.94.07 47.91.08 15.78 0 31.56.01 47.33.03 2.89 0 2.84 0 2.29 2.76-.7 3.52-1.38 7.05-1.95 10.6-.23 1.42-.83 1.85-2.24 1.85h-.05c-9.79-.07-19.58 0-29.37-.11h-.08c-1.67 0-2.06.67-2.33 2.11-2 10.79-4.09 21.56-6.11 32.35-1.5 8-2.96 16.01-4.39 24.03-.27 1.51-.76 2.29-2.52 2.29h-.05c-6.16-.06-12.33-.08-18.49-.08-4.59 0-9.18.01-13.77.04h-.04c-1.8 0-2.11-.64-1.8-2.3 1.71-9.06 3.51-18.1 5.16-27.17 1.61-8.88 3.29-17.74 4.96-26.6.13-.69.19-1.39.26-2.09q.25-2.56-2.45-2.57c-5.41 0-10.81-.02-16.22-.02-3.1 0-6.19 0-9.29.02h-.09c-1.28 0-1.85-.12-1.47-1.77.86-3.74 1.49-7.54 2.1-11.33.26-1.63 1.02-2.12 2.64-2.12m.02-2.32c-2.84 0-4.49 1.37-4.93 4.07-.65 4.02-1.26 7.63-2.07 11.18-.13.59-.49 2.16.5 3.4.96 1.21 2.44 1.21 3.23 1.21 3.19-.01 6.29-.02 9.38-.02h16.36v.03l-.02.18c-.05.57-.1 1.15-.21 1.71l-.4 2.14c-1.54 8.15-3.08 16.31-4.56 24.48-1.06 5.86-2.21 11.81-3.32 17.56-.61 3.19-1.23 6.39-1.84 9.59-.14.72-.46 2.41.64 3.73.98 1.18 2.43 1.32 3.44 1.32 4.64-.02 9.22-.03 13.81-.03 6.16 0 12.31.02 18.47.08 4.13 0 4.69-3.17 4.87-4.2 1.47-8.23 2.94-16.31 4.38-24.01.9-4.8 1.81-9.61 2.72-14.41 1.14-5.98 2.27-11.96 3.39-17.95.02-.08.03-.15.04-.21 5.64.07 11.31.07 16.8.07 4.21 0 8.42 0 12.62.04 2.67 0 4.19-1.28 4.59-3.8.62-3.87 1.36-7.65 1.93-10.51.37-1.82.63-3.16-.34-4.34-.97-1.19-2.33-1.19-4.22-1.2l-35.19-.03h-12.15l-2.32-.01h-8.33c-12.42 0-24.83-.02-37.25-.07h-.05Z" fill="#ffffff"/>
            <path d="M256.38 408.94c-11.96-.03-23.91-.04-35.87-.05h-10.12v-.02l-30.66-.03h-13.21c-.82.01-1.72-.08-2.28-.77-.57-.69-.49-1.59-.34-2.39 1.02-5.28 1.99-10.56 2.96-15.85.66-3.6 1.33-7.2 2-10.79.57-3.04 1.17-6.08 1.78-9.11 1.18-5.98 2.41-12.15 3.37-18.25.39-2.5.91-4.99 1.42-7.41.71-3.42 1.45-6.96 1.81-10.48.29-2.81 2.55-2.81 3.3-2.81h9.17c8.02.01 16.05-.01 24.07-.07 1.04 0 1.74.27 2.2.81.67.81.48 1.85.35 2.53-.66 3.45-4.81 24.92-4.81 24.92-1.48 7.62-3.01 15.51-4.38 23.28-.17.95-.36 1.9-.55 2.85-.32 1.63-.65 3.26-.86 4.91h1.5s29.3.05 39.4.05h12.96c.84 0 1.89.1 2.54.88s.54 1.81.4 2.51c-.24 1.26-.52 2.51-.8 3.76-.62 2.8-1.27 5.69-1.45 8.58-.19 2.94-2.76 2.94-3.87 2.94h-.05Z"/>
            <path d="M213.84 332.07c1.66 0 1.56.9 1.36 1.97-1.05 5.54-2.13 11.08-3.2 16.62-2.02 10.52-4.13 21.03-5.99 31.58-.46 2.65-1.09 5.27-1.43 7.95-.11.89.08 1.18.89 1.18h.31c.49 0 .98.01 1.47.01 13.31.01 26.63.03 39.94.03h12.44c1.53 0 2.1.42 1.79 2.02-.8 4.15-2.01 8.24-2.28 12.49-.11 1.72-1.31 1.86-2.7 1.86h-.06c-14.95-.04-29.89-.05-44.84-.06v-.02c-10.61 0-21.23-.03-31.84-.03-4.39 0-8.79 0-13.18.01h-.02c-1.41 0-1.74-.33-1.46-1.78 1.71-8.87 3.3-17.77 4.97-26.65 1.72-9.13 3.71-18.22 5.15-27.39.95-6.02 2.62-11.89 3.24-17.95.14-1.38.8-1.77 2.14-1.77h.01c3.18 0 6.36.01 9.54.01 7.9 0 15.8-.03 23.7-.08h.03m.02-2.32h-.05c-7.89.06-15.79.08-23.68.08-3.18 0-6.36 0-9.54-.01-3.55 0-4.32 2.42-4.47 3.86-.35 3.46-1.06 6.82-1.8 10.37-.51 2.43-1.03 4.93-1.43 7.46-.96 6.09-2.18 12.26-3.36 18.23-.6 3.03-1.2 6.06-1.77 9.09-.67 3.58-1.33 7.15-1.99 10.73-.98 5.31-1.96 10.61-2.98 15.9-.12.64-.41 2.14.58 3.34s2.51 1.2 3.15 1.2c4.41 0 8.8-.01 13.2-.01 7.37 0 14.74 0 22.12.02h7.41l2.32.03h9.65c11.73.02 23.45.03 35.18.06 3.99 0 4.96-2.19 5.07-4.03.18-2.8.79-5.52 1.43-8.4.28-1.26.56-2.52.81-3.79.1-.54.42-2.18-.65-3.47-1.08-1.3-2.78-1.3-3.42-1.3h-12.44c-9.79 0-19.58-.01-29.37-.02h-10.56l-.16-.01c.19-1.19.42-2.34.66-3.54.19-.96.38-1.92.55-2.87 1.37-7.77 2.9-15.65 4.38-23.28.54-2.76 1.07-5.51 1.6-8.27l1.17-6.08c.68-3.52 1.36-7.03 2.03-10.55.15-.79.43-2.26-.59-3.49-.68-.82-1.71-1.24-3.05-1.24" fill="#ffffff"/>
            <path d="m137.47 408.85-11.52.01c-.35 0-1.33 0-1.98-.7-.58-.63-.59-1.46-.55-2.03.17-2.26.66-4.45 1.14-6.56.23-1 .45-2 .64-3.01.78-4.11 1.54-8.22 2.31-12.33 1.2-6.46 2.4-12.92 3.67-19.36.82-4.18 1.58-8.36 2.34-12.55.84-4.62 1.68-9.25 2.59-13.86l.15-.72c.27-1.34.55-2.72.66-4.06.22-2.72 2.39-2.72 3.21-2.72 3.04.03 5.97.03 8.89.03l20.99.02c1.4 0 2.25 0 2.83.71.6.72.43 1.63.17 3-.63 3.32-3.5 18.33-3.5 18.33-1.37 7.24-5.92 31.43-5.92 31.43-1.38 7.35-2.76 14.7-4.11 22.06-.43 2.34-2.3 2.34-3 2.34 0 0-12.69-.03-19.02-.03"/>
            <path d="M140.13 332.12h.12c2.98.03 5.97.03 8.95.03h6.31c4.83 0 9.65 0 14.48.01 2.3 0 2.33 0 1.89 2.34-1.15 6.11-2.35 12.22-3.5 18.33-1.67 8.82-3.32 17.63-4.98 26.45-1.69 9.01-3.4 18.02-5.05 27.04-.22 1.18-.85 1.39-1.86 1.39h-.02c-6.21-.01-12.42-.02-18.63-.02-3.96 0-7.92 0-11.88.01h-.01c-1.12 0-1.44-.42-1.36-1.48.24-3.22 1.17-6.3 1.77-9.45 2.01-10.56 3.91-21.13 5.98-31.68 1.72-8.78 3.18-17.62 4.93-26.41.33-1.63.69-3.27.83-4.92.12-1.46.88-1.65 2.05-1.65m-.02-2.31c-3.35 0-4.22 2.06-4.36 3.78-.1 1.27-.37 2.56-.64 3.93l-.15.73c-.92 4.62-1.77 9.33-2.6 13.88-.76 4.18-1.51 8.36-2.33 12.53-1.26 6.45-2.48 13.01-3.66 19.35-.77 4.11-1.53 8.23-2.31 12.34-.19.99-.41 1.98-.63 2.97-.49 2.16-.99 4.4-1.17 6.74-.03.45-.14 1.83.85 2.9 1 1.08 2.37 1.08 2.82 1.08 3.98-.01 7.94-.02 11.9-.02q9.315 0 18.63.03c2.95 0 3.89-1.79 4.17-3.29 1.34-7.34 2.72-14.67 4.1-22l.95-5.03.51-2.7c1.49-7.92 2.98-15.83 4.48-23.75.53-2.82 1.08-5.65 1.62-8.47.63-3.29 1.26-6.57 1.88-9.86.29-1.51.53-2.82-.41-3.96-.94-1.13-2.24-1.13-3.75-1.13h-7.55l-6.94-.01h-6.31c-2.98 0-5.95 0-8.93-.03h-.14Z" fill="#ffffff"/>
            <path fill="none" stroke-linecap="round" stroke-linejoin="round" stroke="#000000" stroke-width="6.19" d="M34.58 303.67H705"/>
            <path fill="none" stroke-linecap="round" stroke-linejoin="round" stroke="#000000" stroke-width="6.19" d="M17.79 439.91h617.92"/>
            <path d="M313.45 454.78c-13.29-.07-26.58-.08-39.86-.11-.78 0-1.59-.08-2.26.28.05.16.06.23.09.26.18.16.36.33.55.48 2.8 2.15 4.14 4.87 4.24 8.12.14 4.32.2 8.64.07 12.93-.09 3.18 1.27 4.53 4.49 4.54l20.02.09c2.24.01 4.48-.03 6.74.1.95.05 2.25-.14 2.69 1.27 1.17 3.76 1.36 7.44-3.97 7.31-10.78-.27-21.51-.06-32.27-.12-1.61 0-2.3.43-1.88 2.14.27 1.08.27 2.19.53 3.27.58 2.41 2.48 4.18 4.99 4.2 10.88.08 21.75.12 32.61.04 4.88-.04 8.67-2.13 10.16-6.57 1.52-4.55 1.69-9.6 1.98-14.54.17-2.93-2.25-5.09-5.26-5.12-1.73-.01-3.45 0-5.18 0-6.04-.01-12.08 0-18.12-.06-2.35-.02-4.45-1.83-4.7-3.9-.31-2.5.97-3.88 3.65-3.92h1.9c9.19-.07 18.38-.13 27.56-.2.64 0 1.34.06 1.27-.86-.17-2.01-.36-3.96-1.83-5.81-2.24-2.82-5.08-3.77-8.2-3.79" fill="#130d0d"/>
            <path d="M561.02 455.07c-2.24-.11-3.71.69-5.1 2.04-4.83 4.69-9.71 9.31-14.59 13.95-1.52 1.44-3.05 2.81-5.57 2.65-2.02-.13-2.17-.2-1.78-2.08 1.07-5.14 2.12-10.29 3.21-15.42.21-1.01.02-1.51-1.18-1.51-6.03.01-12.07 0-18.11-.02-.02.13-.04.26-.06.38.85.41 1.71.81 2.56 1.23 2.66 1.28 4.35 4 3.89 6.48-.83 4.46-1.73 8.9-2.63 13.34-1.49 7.36-2.97 14.71-4.5 22.06-.25 1.22-.05 1.83 1.43 1.81 2.75-.05 5.51-.04 8.28.02 1.05.03 1.55-.42 1.72-1.34.71-3.75 1.39-7.51 2.14-11.24.21-1.05.13-2.72 1.19-2.84 2.46-.29 5.16-.82 7.48 1.43 1.81 1.74 3.44 3.65 5.17 5.47 2.45 2.58 4.92 5.14 7.39 7.7.54.57 1.13.82 1.9.82 4.71-.03 9.43 0 14.14-.03.42 0 1.02.22 1.2-.3.16-.46-.39-.69-.65-.99-5.9-6.66-11.78-13.33-17.73-19.94-.93-1.03-.82-1.38.05-2.1 3-2.51 5.89-5.14 8.79-7.76 3.73-3.36 7.43-6.76 11.13-10.15 1.14-1.04 2.25-2.11 3.37-3.16-.08-.14-.17-.28-.26-.42-4.3 0-8.58.13-12.9-.08" fill="#130d0d"/>
            <path d="M641.62 454.86c-15.64.01-31.29-.03-46.93-.05-.66 0-1.37-.14-2.22.33 1.07.53 1.89.91 2.69 1.33 3 1.58 4.41 4.11 3.83 6.96-2.36 11.75-4.71 23.5-7.11 35.23-.23 1.13.04 1.39 1.18 1.39 13.23 0 26.46.04 39.69.1 1.18 0 1.7-.44 1.91-1.53.54-2.83 1.17-5.63 1.77-8.44.32-1.5.04-1.84-1.56-1.84h-15.01c-4.2 0-8.4-.04-12.59 0-1.29.01-1.67-.42-1.35-1.62.37-1.38.75-2.76.94-4.2.12-.96.63-1.11 1.46-1.1 3.4.04 6.79.05 10.19.05h18.11c.91 0 1.79 0 1.81-1.15.04-1.72.6-3.27.96-4.89.43-1.94.18-2.24-1.82-2.24-8.22-.02-16.45-.02-24.67-.05-1.26 0-2.89.57-3.69-.23-.99-.99.31-2.35.25-3.59-.08-1.65.85-1.68 2.11-1.67 9.26.04 18.52.02 27.78.05 1.02 0 1.57-.14 1.76-1.33.53-3.29 1.21-6.54 2.04-9.73.4-1.57-.03-1.77-1.51-1.77" fill="#130d0d"/>
            <path d="M233.54 454.93c-11.64.17-23.26.42-34.89.61-3.19.05-6.4 0-9.6 0 0 .14-.02.28-.03.42.53.28 1.06.55 1.58.84 3.02 1.69 4.05 3.49 3.76 6.64-.08.89-.31 1.74-.48 2.6-1.25 6.52-2.5 13.03-3.75 19.54-.78 4.07-1.51 8.16-2.37 12.2-.31 1.45.25 1.67 1.52 1.64 2.81-.05 5.62-.09 8.45.03 1.55.07 2.22-.52 2.52-1.92.64-3.03 1.43-6 2.09-9.03.21-.95.74-1.46 1.67-1.48 6.13-.14 12.25-.29 18.4-.31 2.04 0 2.75.87 3.11 2.95.45 2.56.16 5 .05 7.47-.05 1.04.02 1.83 1.57 1.75 2.91-.14 5.85-.06 8.79-.04.92 0 1.46-.26 1.54-1.26.17-2.01.66-3.97.62-6-.07-3.29-.12-6.68-3.19-9.42-.72-.64-.01-.91.32-1.15 4.68-3.46 6.69-8.52 7.26-14.4.21-2.19-.09-4.5-.87-6.67-1.12-3.12-4.35-5.05-8.07-5m-4.12 13.89c-.67 2.72-1.27 5.46-1.68 8.26-.11.74-.53.95-1.26.93-1.9-.04-3.79-.02-5.68-.02.02.12.03.25.05.37-4.82 0-9.64 0-14.46-.02-1.87 0-1.89-.08-1.6-1.82.46-2.73.87-5.48 1.24-8.24.12-.92.48-1.28 1.49-1.28 6.78.05 13.56.07 20.32 0 1.52-.01 1.86.68 1.58 1.81" fill="#130d0d"/>
            <path d="M450.94 455.8c-2.52-.48-4.91.01-7.37.05-11.52.18-23.1-.04-34.6.33-1.36.05-2.78-.21-4.47.24 1.08.63 1.84 1.11 2.63 1.53 2.39 1.28 3.65 3.51 3.22 5.95-.61 3.54-1.26 7.08-1.95 10.59-1.6 8.17-3.23 16.34-4.88 24.5-.22 1.08.06 1.43 1.21 1.42 3.21-.04 6.43-.04 9.66.02.96.02 1.43-.33 1.62-1.21.62-2.8 1.39-5.56 1.91-8.39.49-2.68.84-3.09 3.62-3.12 5.28-.05 10.59.09 15.84-.15 3.3-.15 4.15.8 4.21 4.1.04 2.16.01 4.3-.14 6.43-.08 1.13.32 1.74 1.62 1.71 2.75-.05 5.51-.03 8.28 0 1.11.01 1.85-.37 2.03-1.47.38-2.36.88-4.71.79-7.17-.1-2.65-.31-5.43-2.59-7.5-1.29-1.17-.8-1.68 0-2.18 1.79-1.13 2.97-2.8 4-4.56 2.37-4.04 3.36-8.61 2.71-13.61-.56-4.27-3.06-6.68-7.35-7.51m-5.56 13.59c-.67 2.65-1.17 5.37-1.65 8.09-.16.94-.61 1.23-1.56 1.24-6.71.08-13.42.18-20.12.37-1.33.04-1.53-.56-1.4-1.5.45-3.09.98-6.15 1.45-9.23.14-.9.9-.66 1.47-.66 3.44-.03 6.9 0 10.35 0 3.34 0 6.67.02 10.01 0 1.27 0 1.83.25 1.45 1.7" fill="#130d0d"/>
            <path d="M128.74 479.83c-2.82-7.83-5.74-15.63-8.49-23.47-.47-1.34-.99-1.64-2.25-1.63-6.26.05-12.53 0-18.8-.01h-6.56c1.91 1.47 3.56 2.29 4.91 3.6 2.15 2.11 2.36 3.25.91 5.42-.99 1.47-1.96 2.94-2.91 4.44-4.03 6.39-8.06 12.78-12.06 19.19-2.16 3.46-4.27 6.96-6.41 10.44-.62 1-.48 1.49.94 1.46 3.04-.05 6.09-.01 9.14 0 .76 0 1.34-.08 1.78-.84 1.72-2.98 3.55-5.89 5.4-8.78.56-.87.96-2.11 2.35-1.96 1.53.17 2.97-.03 4.46-.01 5.35.05 10.69.04 16.03.01 1.07 0 1.59.48 1.95 1.48 1.06 2.96 2.26 5.89 3.25 8.87.35 1.03.79 1.33 1.75 1.32 3.27-.03 6.55-.05 9.83 0 1.35.03 1.6-.4 1.12-1.73-2.15-5.92-4.19-11.87-6.33-17.8m-13.83.78c-4.8-.03-9.59-.02-14.5-.03.19-1.73 1.29-2.78 1.98-4 2.17-3.81 4.56-7.49 6.89-11.19.21-.33.39-.85.96-.73.51.11.49.66.61 1.01 1.6 4.51 3.19 9.03 4.76 13.55.24.69.41 1.4-.7 1.39" fill="#130d0d"/>
            <path d="m384.84 454.48-21.39-.03c-7.13 0-14.25.02-21.39-.06-1.28-.02-1.71.41-1.92 1.59-.55 3.1-1.26 6.16-1.95 9.22-.42 1.88-.33 2.03 1.73 2.03 4.6 0 9.19-.02 13.79 0 .92 0 2.12-.27 1.76 1.48-.98 4.76-1.89 9.54-2.85 14.31-1.01 5.08-2.01 10.18-3.09 15.24-.25 1.19.18 1.42 1.21 1.42 2.24-.01 4.48 0 6.73 0 4.06 0 4.09.02 4.88-3.88 1.8-8.82 3.62-17.64 5.29-26.5.31-1.63 1.03-2.11 2.64-2.07 4.26.1 8.51.04 12.77.09.99.01 1.66-.25 1.73-1.28.23-3.26 1.36-6.24 1.81-9.44.3-2.11.42-2.11-1.74-2.12" fill="#130d0d"/>
            <path d="M172.33 454.14c-5.4.03-10.81 0-16.22 0-.49 0-.96.06-1.52.1.43.76 1.06.86 1.58 1.11 3.69 1.78 5.22 4.04 4.58 7.77-1.28 7.42-2.8 14.76-4.24 22.14-.82 4.23-1.65 8.45-2.5 12.67-.25 1.23.28 1.49 1.41 1.47 2.58-.05 5.17-.06 7.77.03 1.31.05 1.92-.41 2.15-1.66.67-3.77 1.43-7.51 2.18-11.26 2.03-10.26 4.05-20.53 6.15-30.77.27-1.3-.05-1.58-1.33-1.57" fill="#130d0d"/>
            <path d="M498.77 455.02c-6.02.03-12.06 0-18.24-.01.49.91 1.12.91 1.66 1.13 3.21 1.27 5.25 4.18 4.97 7.17-.1 1.06-.26 2.11-.48 3.13-1.64 7.99-3.31 15.97-4.97 23.95-.53 2.54-1.13 5.05-1.56 7.61-.1.58-.72 1.83.88 1.87 3 .07 5.98 0 8.97.04.84.01 1.3-.37 1.37-1.1.18-1.96.76-3.79 1.15-5.68 1.76-8.55 3.51-17.11 5.24-25.67.73-3.62 1.42-7.26 2.13-10.9.17-.87.22-1.54-1.13-1.54" fill="#130d0d"/>
            <path d="M232.85 290.64c-2.42 0-4.7-.95-6.42-2.66l-42.83-42.83a9.04 9.04 0 0 1-1.97-9.89 9.05 9.05 0 0 1 8.38-5.6h339.96c3.68 0 6.97 2.2 8.38 5.6s.64 7.28-1.97 9.89l-42.82 42.83c-1.71 1.71-4 2.66-6.42 2.66H232.83Z" fill="#ec232e"/>
            <path d="M529.99 235.18c3.17 0 4.76 3.84 2.52 6.09l-42.83 42.83c-.67.67-1.57 1.04-2.52 1.04H232.85c-.95 0-1.85-.37-2.52-1.04l-42.83-42.83c-2.25-2.25-.66-6.09 2.52-6.09h339.96Zm0-11.02H190.02c-5.92 0-11.21 3.53-13.47 9a14.535 14.535 0 0 0 3.16 15.89l42.83 42.83a14.46 14.46 0 0 0 10.31 4.27h254.31c3.89 0 7.55-1.52 10.31-4.27l42.83-42.83c4.18-4.19 5.43-10.42 3.16-15.89s-7.55-9-13.47-9"/>
            <path d="M116.89 174.68c-2.42 0-4.7-.94-6.42-2.66l-42.83-42.83a9.06 9.06 0 0 1-1.97-9.89 9.05 9.05 0 0 1 8.38-5.6h571.89c3.68 0 6.97 2.2 8.38 5.6s.64 7.28-1.96 9.89l-42.83 42.83a9.02 9.02 0 0 1-6.42 2.66z" fill="#ec232e"/>
            <path d="M645.95 119.22c3.17 0 4.76 3.84 2.52 6.09l-42.83 42.83c-.67.67-1.57 1.04-2.52 1.04H116.89c-.95 0-1.85-.38-2.52-1.04l-42.83-42.83c-2.24-2.25-.65-6.09 2.52-6.09zm0-11.02H74.06c-5.92 0-11.21 3.53-13.47 9a14.55 14.55 0 0 0 3.16 15.89l42.83 42.83a14.46 14.46 0 0 0 10.31 4.27h486.24c3.89 0 7.56-1.52 10.31-4.27l42.83-42.83a14.56 14.56 0 0 0 3.16-15.89c-2.27-5.47-7.55-9-13.47-9"/>
            <path d="M174.87 232.66c-2.42 0-4.7-.95-6.42-2.66l-42.83-42.83a9.04 9.04 0 0 1-1.97-9.89 9.05 9.05 0 0 1 8.38-5.6h455.93c3.68 0 6.97 2.2 8.38 5.6s.64 7.28-1.96 9.89L551.55 230a9.04 9.04 0 0 1-6.42 2.66z" fill="#ec232e"/>
            <path d="M587.97 177.2c3.17 0 4.76 3.84 2.52 6.09l-42.83 42.83c-.67.67-1.57 1.04-2.52 1.04H174.87c-.95 0-1.85-.37-2.52-1.04l-42.83-42.83c-2.24-2.25-.65-6.09 2.52-6.09zm0-11.02H132.04c-5.92 0-11.21 3.53-13.47 9a14.535 14.535 0 0 0 3.16 15.89l42.83 42.83a14.46 14.46 0 0 0 10.31 4.27h370.28c3.89 0 7.56-1.52 10.31-4.27l42.83-42.83a14.535 14.535 0 0 0 3.16-15.89c-2.27-5.47-7.55-9-13.47-9"/>
            <path d="M232.85 285.14h254.31c.95 0 1.85-.38 2.52-1.04l42.83-42.83c2.24-2.25.65-6.09-2.52-6.09H190.02c-3.18 0-4.77 3.84-2.52 6.09l42.83 42.83c.67.67 1.58 1.04 2.52 1.04" fill="#ec232e"/>
            <path d="m71.54 125.3 42.83 42.83c.67.67 1.58 1.04 2.52 1.04h486.24c.95 0 1.85-.37 2.52-1.04l42.83-42.83c2.25-2.25.66-6.09-2.52-6.09H74.06c-3.18 0-4.77 3.84-2.52 6.09" fill="#ec232e"/>
            <path d="M174.87 227.15h370.27c.95 0 1.85-.38 2.52-1.04l42.83-42.83c2.25-2.25.66-6.09-2.52-6.09H132.04c-3.18 0-4.77 3.84-2.52 6.09l42.83 42.83c.67.67 1.58 1.04 2.52 1.04" fill="#ec232e"/>
            <path d="m326.81 276.86 5.89-9.37-7.39 2.24s12.03-6.53 13.4-18.9c1.38-12.37-18.04-2.75-18.04-2.75l-17.87 23.37 1.37 13.74 22.63-8.32Z"/>
            <path d="M464.1 40.19c-2.13 0-4.17-.68-5.88-1.96a9.82 9.82 0 0 1-3.83-6.46c-.37-2.59.29-5.18 1.86-7.27l1.13-1.51a9.86 9.86 0 0 1 7.85-3.93c2.13 0 4.17.68 5.88 1.96 4.33 3.24 5.21 9.4 1.97 13.73l-1.13 1.51a9.72 9.72 0 0 1-7.85 3.93" fill="#ffffff"/>
            <path d="M465.25 21.22c1.6 0 3.21.5 4.58 1.53a7.633 7.633 0 0 1 1.53 10.7l-1.13 1.51a7.61 7.61 0 0 1-6.12 3.06c-1.6 0-3.2-.5-4.58-1.53-3.38-2.53-4.07-7.33-1.53-10.7l1.13-1.51c1.5-2 3.8-3.06 6.12-3.06m0-4.33c-3.75 0-7.34 1.79-9.59 4.79l-1.13 1.51a11.9 11.9 0 0 0-2.27 8.88c.45 3.17 2.11 5.97 4.67 7.89 2.09 1.56 4.57 2.39 7.18 2.39 3.75 0 7.34-1.79 9.59-4.79l1.13-1.51c1.92-2.56 2.72-5.71 2.27-8.88-.46-3.17-2.11-5.96-4.67-7.88a11.85 11.85 0 0 0-7.18-2.39" fill="#070b0b"/>
            <g clip-path="url(#b3ab9c41-4e63-4d30-87a9-427f6df6b7da)" style="mix-blend-mode:multiply" opacity=".11">
                <path d="M470.34 22.06c-3.38-2.53-8.17-1.85-10.7 1.53l-1.13 1.51c-2.53 3.38 4.2 1.11 7.58 3.64l-6.05 7.06c3.38 2.53 8.17 1.85 10.7-1.53l1.13-1.51c2.53-3.38 1.85-8.17-1.53-10.7" fill="#615c5f"/>
            </g>
            <path d="M489.32 77.06a5.16 5.16 0 0 1-3.14-1.05l-68.89-51.63a5.2 5.2 0 0 1-2.05-3.46c-.2-1.39.16-2.77 1-3.89l8.75-11.67c.99-1.32 2.56-2.1 4.2-2.1 1.14 0 2.23.36 3.15 1.05l68.88 51.63a5.2 5.2 0 0 1 2.05 3.45c.2 1.39-.15 2.77-1 3.9l-8.75 11.67a5.26 5.26 0 0 1-4.2 2.1" fill="#ffffff"/>
            <path d="M429.18 5.83c.56 0 1.12.18 1.6.53l68.88 51.63c1.18.89 1.42 2.56.53 3.74l-8.75 11.67c-.52.7-1.33 1.07-2.14 1.07-.56 0-1.12-.17-1.6-.53l-68.88-51.63a2.667 2.667 0 0 1-.53-3.74l8.75-11.67c.52-.7 1.33-1.07 2.14-1.07m0-5.15c-2.45 0-4.79 1.17-6.26 3.13l-8.75 11.67a7.82 7.82 0 0 0-1.49 5.8c.3 2.07 1.38 3.9 3.05 5.15l68.88 51.63a7.78 7.78 0 0 0 4.69 1.56c2.45 0 4.79-1.17 6.26-3.13l8.75-11.67c2.59-3.45 1.88-8.37-1.57-10.96L433.88 2.24a7.78 7.78 0 0 0-4.69-1.56"/>
            <path d="M427.51 136.29c-11.87-2.49-23.28-7.66-32.99-14.93a83 83 0 0 1-22.76-25.97l-6.24-10.42 15.44-4.35 3.7 7.75c9.66 17.17 26.41 29.46 45.87 33.55l10.02 2.41.22 14.75-13.25-2.78Z" fill="#ffffff"/>
            <path d="m379.39 84.07 2.65 5.55a71.84 71.84 0 0 0 47.89 35.13l7.74 1.86.13 8.88-9.7-2.04a80.7 80.7 0 0 1-31.85-14.42 80.7 80.7 0 0 1-21.97-25.06l-4.33-7.24zm3.12-6.91-4.7 1.32-9.44 2.66-7.29 2.06 3.89 6.5 4.3 7.17a86.1 86.1 0 0 0 23.51 26.8c10.04 7.53 21.85 12.87 34.13 15.45l9.7 2.04 7.1 1.49-.11-7.25-.13-8.87-.07-4.5-4.37-1.05-7.74-1.86-.08-.02-.08-.02a66.04 66.04 0 0 1-43.93-32.14l-2.57-5.37-2.11-4.41Z" fill="#070b0b"/>
            <path d="M280.07 218.22c-.09.85-.18 1.67-.27 2.47 4.51 3.12 8.5 2.73 8.5 2.73-3.66 4.29-7.14 6.56-9.69 7.76-.31 2.5-.59 4.63-.89 6.47 6.42-4.01 13.15-9.91 15.54-17.89 4.67-15.62-5.07-24.33-5.76-24.91l-1.05-.82c-2.37 3.89-4.87 10.29-6 20.68z" fill="#ec232e"/>
            <path d="m459.89 36.63-57.56 59.38a29.86 29.86 0 0 0-8.31 18.26l-.52 6.19c-.1 1.24.46 2.31 1.33 2.97.88.66 2.07.89 3.23.44l5.79-2.24a29.83 29.83 0 0 0 15.19-13.1l40.85-71.91Z" fill="#ffffff"/>
            <path d="M281.78 134.92c2.73 1.45 5.59 3.09 8.56 4.95" stroke="#ffffff" stroke-width="4.25" fill="none" stroke-linecap="round" stroke-linejoin="round"/>
            <path d="M290.34 139.87c-2.98-1.86-5.83-3.51-8.56-4.95" stroke="#ffffff" stroke-width="4.25" fill="none" stroke-linecap="round" stroke-linejoin="round"/>
            <path d="M269.84 148.46c2.59 1.25 5.33 2.7 8.21 4.39" stroke="#ffffff" stroke-width="4.25" fill="none" stroke-linecap="round" stroke-linejoin="round"/>
            <path d="M259.01 162.7c2.53 1.09 5.23 2.41 8.12 4.01" stroke="#ffffff" stroke-width="4.25" fill="none" stroke-linecap="round" stroke-linejoin="round"/>
            <path d="M278.06 152.85c-2.88-1.69-5.62-3.15-8.21-4.39" stroke="#ffffff" stroke-width="4.25" fill="none" stroke-linecap="round" stroke-linejoin="round"/>
            <path d="M249.17 177.5c2.55.96 5.34 2.2 8.36 3.81" stroke="#ffffff" stroke-width="4.25" fill="none" stroke-linecap="round" stroke-linejoin="round"/>
            <path d="M267.13 166.71a90 90 0 0 0-8.12-4.01" stroke="#ffffff" stroke-width="4.25" fill="none" stroke-linecap="round" stroke-linejoin="round"/>
            <path d="M249.25 196.58c-3.34-1.8-6.34-3-8.99-3.83" stroke="#ffffff" stroke-width="4.25" fill="none" stroke-linecap="round" stroke-linejoin="round"/>
            <path d="M232.28 208.31c2.78.64 6.12 1.86 9.96 4.13" stroke="#ffffff" stroke-width="4.25" fill="none" stroke-linecap="round" stroke-linejoin="round"/>
            <path d="M240.26 192.75c2.65.82 5.66 2.03 8.99 3.83" stroke="#ffffff" stroke-width="4.25" fill="none" stroke-linecap="round" stroke-linejoin="round"/>
            <path d="M257.53 181.32a69 69 0 0 0-8.36-3.81" stroke="#ffffff" stroke-width="4.25" fill="none" stroke-linecap="round" stroke-linejoin="round"/>
            <g clip-path="url(#84fadb84-c7d2-46a0-a144-859ecdba676b)" style="mix-blend-mode:multiply" opacity=".11">
                <path fill="#615c5f" d="m442.55 13.61-13.6 18.15 42.38 30.23 14.05-17.59z"/>
            </g>
            <path d="M223.3 226.52c.53-1.74 1.09-3.49 1.68-5.23-.12.39-.24.78-.36 1.16a4.91 4.91 0 0 0 1.75 5.33c.46.34.97.6 1.52.77 1.16.35 2.35.24 3.38-.21a4.87 4.87 0 0 0 2.71-3.06c.66-2.19 1.37-4.37 2.14-6.55q.765-2.175 1.59-4.35c.83-2.17 1.71-4.33 2.63-6.49.62-1.43 1.25-2.87 1.91-4.3.33-.71.66-1.43 1-2.14 2.04-4.27 4.26-8.49 6.64-12.66.4-.69.8-1.38 1.21-2.07.81-1.38 1.65-2.76 2.5-4.12 1.28-2.05 2.59-4.08 3.94-6.09.91-1.34 1.83-2.67 2.76-4 .47-.66.94-1.32 1.42-1.98.95-1.31 1.92-2.62 2.91-3.91a226 226 0 0 1 6.51-8.12c1.43-1.7 2.89-3.39 4.38-5.05 0 0 0-.01.01-.01.54-.61 1.09-1.21 1.64-1.81 2.21-2.4 4.47-4.76 6.78-7.05l1.74-1.71c1.17-1.13 2.35-2.26 3.54-3.36 1.19-1.11 2.4-2.2 3.62-3.27 1.22-1.08 2.44-2.13 3.68-3.18a219 219 0 0 1 3.75-3.08c1.26-1.01 2.53-2 3.81-2.98 8.32-6.34 17.06-11.95 26.07-16.66.58-.3 1.08-.71 1.49-1.19a4.7 4.7 0 0 0 .8-1.4 4.9 4.9 0 0 0-.23-4.01 4.84 4.84 0 0 0-2.61-2.31c-.33-.12-.67-.21-1.02-.26-.1-.01-.21-.03-.31-.03-.45-.04-.91-.01-1.36.08.45-.09.91-.11 1.36-.08.1 0 .21.02.31.03 1.41-.72 5.08.08 6.5-.59a8.58 8.58 0 0 0-8.89-.63c-23.68 12.37-45.87 30.56-64.16 52.63-17.94 21.64-31.31 45.96-38.66 70.31-.87 2.89-2.38 4.5-.4 6.69.11-.4.22-.8.33-1.19-.2-.59-.23-1.24-.03-1.88m30.25-61.39c-.87 1.21-1.73 2.43-2.58 3.65.85-1.22 1.7-2.44 2.58-3.65"/>
            <path d="M276.21 295.04c1-1.99 2.04-4.04 3.14-6.16-11.41-16.65-25.83-25.8-35.93-30.54-7.16-3.36-13.22-5.05-16.62-5.82-.33 2.72-.58 5.44-.74 8.13 10.01 2.55 28.81 10.39 50.15 34.38" fill="#ffffff"/>
            <path d="M273.8 299.93c-3.75-4.32-7.42-8.1-10.95-11.41l-3.43 2.28c.25-1.4-.98-4.9-1.75-6.89-8.72-7.35-16.39-11.8-22.16-14.46-4.22-1.94-7.82-3.13-10.61-3.85-.16.06-.33.09-.5.09-1.45 0-2.61 1.22-2.53 2.67l2.41 44.25v.09c-.11 5.25 2.38 9.94 6.27 12.86 2.66 1.99 5.96 3.16 9.55 3.12 12.49-.14 23.79-7.46 29-18.8 1.39-3.02 2.97-6.35 4.71-9.94" fill="#615c5f"/>
            <path d="M265.56 249.75s27.28-8.32 33.25-28.32-7.64-31.06-7.64-31.06l1.24-8.52s-14.43 2.07-17.72 32.23c-3.29 30.17-2.95 29.14-9.13 35.67m21.94-54.9c.68.59 10.42 9.29 5.76 24.91-2.38 7.97-9.12 13.88-15.54 17.89.3-1.84.59-3.97.89-6.47 2.54-1.2 6.03-3.47 9.68-7.76 0 0-3.98.4-8.49-2.73.08-.8.18-1.62.27-2.47l.38-3.51c1.13-10.39 3.63-16.79 6-20.68z" fill="#070b0b"/>
            <path d="M304.45 153.94a3.206 3.206 0 1 0 3.85-5.13 3.206 3.206 0 0 0-4.49.64 3.206 3.206 0 0 0 .64 4.49" fill="#070b0b"/>
            <path d="M325.35 165.81a3.206 3.206 0 1 0 3.85-5.13 3.206 3.206 0 0 0-4.49.64 3.206 3.206 0 0 0 .64 4.49" fill="#070b0b"/>
            <path d="M294.29 167.51a3.206 3.206 0 1 0 3.85-5.13 3.206 3.206 0 0 0-4.49.64 3.206 3.206 0 0 0 .64 4.49" fill="#070b0b"/>
            <path d="M315.18 179.38a3.206 3.206 0 1 0 3.85-5.13 3.206 3.206 0 0 0-4.49.64 3.206 3.206 0 0 0 .64 4.49" fill="#070b0b"/>
            <path d="M343.06 181.16a3.206 3.206 0 1 0 3.85-5.13 3.206 3.206 0 0 0-4.49.64 3.206 3.206 0 0 0 .64 4.49" fill="#070b0b"/>
            <path d="M332.89 194.73a3.206 3.206 0 1 0 3.85-5.13 3.206 3.206 0 0 0-4.49.64 3.206 3.206 0 0 0 .64 4.49" fill="#070b0b"/>
            <path d="M353.72 235.63h-.01v.01s.01 0 .02-.01" fill="#070b0b"/>
            <path d="M315.59 244.31s22.54-5.44 27.34-21.59l-13.88-.96s11.96-2.2 19.93-13.41l-4.47-3.78s15.87-.55 13.67-14.23l.78-.73c-.74.19-2.25 1-3.62 1.84-16.68 18.03-42.37 47.29-54.65 68.96-1.05 1.94-2.06 3.87-3.03 5.78-.14.29-.28.58-.41.87-3.7 8.01-6.61 14.11-8.89 18.76-2.31 5.21-4.4 10.15-6.36 14.75 5.58-.54 23.33-4.05 40.61-26.69l-.16-.11.33-.11.37-.49s-8.31 3.64-18.49-.55c0 0 26.26-2.2 28.32-21.3l.04.05c-2.48-.28-8.02-.46-15.48-5.32-.7-.46-1.33-1.08-1.96-1.75" fill="#ffffff"/>
            <path d="M282 300.57c1.96-4.61 4.05-9.55 6.36-14.76 2.28-4.65 5.19-10.75 8.89-18.76.13-.29.27-.58.41-.87.98-1.91 1.99-3.83 3.03-5.78 12.28-21.67 37.97-50.92 54.65-68.95 1.36-.84 2.87-1.65 3.62-1.84l-.78.74c2.2 13.67-13.67 14.23-13.67 14.23l4.47 3.78c-7.97 11.2-19.93 13.4-19.93 13.4l13.88.96c-4.8 16.15-27.34 21.59-27.34 21.59.63.66 1.29 1.24 1.96 1.74 2.55 1.92 5.32 2.74 7.8 3.03l-2.25-.66 14.54-5.6.37.42.34-.51c-.17.05-8.38 1.78-10.43 1.83 4.93-2.46 10.52-6.13 14.62-11.33l-2.32-.5 5.9-5.35c.48-1.06.9-2.17 1.25-3.33l1.65-5.55-3-.21c.98-.81 1.94-1.7 2.89-2.67l-3.78-1 9.01-7.66.17-.14-.08-.07c.13-.07.27-.14.4-.21l5.63-4.78s.04-.05.06-.08v.03l7.24-6.16 11.58-9.85-.14 1.46 17.85-34.91c.74-1.4-.87-2.87-2.19-2-17.23 11.3-32.83 25.01-46.79 39.76-19.55-21.11-37.13-31.22-48.65-36.01-7.46-3.1-14.99-4.62-20.26-5.35-1.59 1.77-3.14 3.57-4.67 5.38 4.26.4 13.85 1.69 23.08 5.58 10.94 4.61 27.7 14.35 46.47 34.72-27.73 30.38-48.64 64.48-62.5 90.7-11.74-16.37-26.2-25.47-36.44-30.25-7.69-3.59-14.08-5.33-17.6-6.11 1-6.67 2.49-13.4 4.44-20.14a5.19 5.19 0 0 1-5.23-.59 5.21 5.21 0 0 1-1.86-5.68c.12-.41.25-.83.38-1.24-.63 1.86-1.23 3.72-1.79 5.58-.21.68-.18 1.38.04 2.01-.12.42-.23.85-.35 1.27-2.56 9.58-4.19 19.02-4.86 28.26-.03.45-.26.86-.63 1.13-.47.34-.92.72-1.32 1.15a9.16 9.16 0 0 0-2.48 6.77l2.48 45.63a23.8 23.8 0 0 0 9.52 19.24c4.22 3.16 9.24 4.8 14.52 4.74 7.67-.09 15.12-2.34 21.55-6.51a40.4 40.4 0 0 0 14.74-17.02c1.15-2.5 2.31-5.16 3.52-7.97h.12c.99.03 24.28.26 46.35-28.8l-3.84-2.61c-17.28 22.63-35.03 26.15-40.61 26.69m-55.19-48.05c3.4.78 9.46 2.46 16.62 5.82 10.1 4.74 24.52 13.88 35.93 30.54-1.09 2.11-2.14 4.17-3.14 6.16-21.34-24-40.14-31.83-50.15-34.39.16-2.69.41-5.41.74-8.13m13.28 76.14c-3.59.04-6.9-1.13-9.55-3.12-3.89-2.92-6.38-7.61-6.27-12.86v-.09l-2.41-44.25a2.535 2.535 0 0 1 2.53-2.67c.18 0 .34-.04.5-.09 2.8.72 6.39 1.91 10.61 3.85 5.78 2.66 13.44 7.11 22.16 14.46.78 1.99 2.01 5.49 1.75 6.89l3.43-2.28c3.53 3.31 7.2 7.09 10.95 11.41-1.75 3.59-3.32 6.92-4.71 9.94-5.22 11.35-16.52 18.66-29 18.8" fill="#070b0b"/>
            <path d="M267.36 162.7a204 204 0 0 0-3.1 4.17c-.51.7-1.01 1.41-1.51 2.11q-1.5 2.115-2.94 4.26c-1.45 2.15-2.85 4.32-4.21 6.5-.91 1.46-1.8 2.92-2.67 4.4-.43.74-.86 1.47-1.29 2.22-2.55 4.44-4.91 8.95-7.09 13.5-.36.76-.72 1.52-1.07 2.28-.7 1.52-1.38 3.05-2.04 4.58-.99 2.3-1.92 4.61-2.81 6.92-.59 1.54-1.15 3.09-1.7 4.64q-1.215 3.495-2.28 6.99a5.24 5.24 0 0 1-2.89 3.27c-1.95 6.73-3.45 13.46-4.44 20.13 3.53.78 9.91 2.52 17.6 6.11 10.24 4.78 24.7 13.88 36.44 30.25 13.86-26.22 34.77-60.32 62.5-90.7-18.77-20.36-35.53-30.11-46.47-34.72-9.24-3.89-18.82-5.18-23.09-5.58-1.83 2.17-3.62 4.37-5.36 6.6-.53.68-1.06 1.37-1.59 2.06m69.39 26.9c1.41 1.06 1.7 3.07.64 4.49a3.197 3.197 0 0 1-4.49.64 3.206 3.206 0 1 1 3.85-5.13m-17.71-15.35a3.197 3.197 0 0 1 .64 4.49 3.215 3.215 0 0 1-4.49.64 3.197 3.197 0 0 1-.64-4.49 3.206 3.206 0 0 1 4.49-.64m-26.62 7.61-1.23 8.52s13.61 11.06 7.63 31.06c-5.97 20-33.25 28.32-33.25 28.32 6.18-6.53 5.84-5.5 9.13-35.67s17.72-32.23 17.72-32.23m5.72-19.48a3.197 3.197 0 0 1 .64 4.49 3.206 3.206 0 1 1-5.13-3.85 3.206 3.206 0 0 1 4.49-.64" fill="#615c5f"/>
            <path d="M405.61 261.17a214.3 214.3 0 0 0 28.62-57.15 213 213 0 0 0 8.51-37.18l4.3-.34c10.92-.86 21.01-5.17 29.19-12.46 8.11-7.23 13.53-16.66 15.68-27.3l12.91-46.85 3.07-11.13-62.67 13.81.04-4.8 23.79-41.87c1.73-3.04.93-6.9-1.88-9a6.966 6.966 0 0 0-9.17.72l-36.08 37.22-1.36.39L416.15 0l-9.82 6.07-41.35 25.54c-9.61 5.05-17.14 12.9-21.8 22.71-4.7 9.89-6 20.79-3.77 31.52l.98 4.7c-.07.03.48 3.33.41 3.37-1.52.72-.22 3.28-1.73 4.05 0 0 .22 5.5-1.53.9.37.05-.24-2.3.11-2.17.46.17-.03-3.13.37-2.83.63.47 1.13 1.06 1.49 1.76.65 1.24.77 2.65.35 3.98-.03.1-.07.2-.11.3 8.98-4.54 18.27-8.3 27.77-11.17l45.88-13-15.51 16a36.13 36.13 0 0 0-10.03 22.04l-.52 6.19a9.49 9.49 0 0 0 3.79 8.44 9.49 9.49 0 0 0 9.16 1.27l5.79-2.24c7.73-2.99 14.25-8.6 18.34-15.81l12.63-22.22-.43 50.11c-.47 54.43-23.52 103.28-59.97 140.6l1.25 1.9-5.49-2.63c-.41.45-1.06 9.72-8.03 15.15-.03.03-.08.06-.12.1-1.5 1.17-3.12 2.36-4.85 3.56-3.79 2.63-8.1 5.25-12.81 7.51 8.68-3.88 23.37-11.22 32.68-16.66 2.87-1.64 13.99-10.31 26.35-27.85M393.41 74.63l-1.18.36c-.8.24-1.61.49-2.43.74-5.36 1.65-11.31 3.54-17.5 5.61-.95.32-1.91.64-2.88.97-.48.16-.96.33-1.45.49a511 511 0 0 0-4.38 1.51c-5.38 1.88-10.83 3.87-16.14 5.94l-1.22-5.86a42 42 0 0 1-.76-5.29c-.14-1.76-.18-3.51-.1-5.25.05-1.16.14-2.31.29-3.45.21-1.71.53-3.41.94-5.07.28-1.11.6-2.21.96-3.29a42.74 42.74 0 0 1 12.17-18.41 43 43 0 0 1 8.71-5.99L410 11.97l3.83 56.75s-8.32 2.23-20.41 5.89m10.42 47.02-5.79 2.24c-1.15.45-2.35.21-3.22-.45a3.3 3.3 0 0 1-1.33-2.97l.52-6.19c.58-6.86 3.52-13.31 8.31-18.26l57.56-59.38-40.85 71.91a29.83 29.83 0 0 1-15.19 13.1m36.67 38.41c.5-5.68.88-11.47 1.18-17.16.03-.52.05-1.04.08-1.55l.15-3.08c.02-.51.05-1.02.07-1.53.05-1.02.08-2.03.12-3.03.25-6.53.39-12.77.48-18.38l.03-2.54c0-.42 0-.83.01-1.24.12-12.63-.07-21.24-.07-21.24l55.55-12.24-12.98 47.09c-.7 3.53-1.82 6.9-3.3 10.04a43 43 0 0 1-1.61 3.07c-.29.5-.59.99-.89 1.48a42.9 42.9 0 0 1-11.75 12.29c-.94.65-1.9 1.27-2.89 1.84a44 44 0 0 1-4.61 2.33 43 43 0 0 1-8.3 2.62c-1.73.36-3.49.61-5.29.75l-5.97.47Z" fill="#070b0b"/>
            <path d="m371.58 200.25-13.42 11.41 11.22 2.97-16.07 14.57 15.53 3.34c-6.78 7.52-26.48 15.08-26.48 15.08l21.35 6.27c-12.04 16.45-27.48 21.77-27.48 21.77 8.89 6.09 24.65 3.02 24.65 3.02C348.97 293.8 323.23 306 323.23 306c26.07-1.93 48.28-26.22 48.28-26.22-3.32-43.5.07-79.53.07-79.53" fill="#ffffff"/>
            <path d="m393.89 184.83-16.15 16c-.03.36-3.3 36.06-.06 78.48l.05.66c36.05-37.24 58.41-86.4 58.87-140.5l.43-50.11-12.63 22.22a36.1 36.1 0 0 1-18.34 15.81l-5.61 2.17c-2.87 1.11-6.13.89-8.73-.77-3.04-1.94-4.7-5.32-4.4-8.86l.52-6.19c.7-8.26 4.26-16.09 10.03-22.04l15.51-16-45.88 13c-9.5 2.87-18.79 6.64-27.77 11.17-.09.23-.18.44-.29.65q-.24.45-.57.84c-.44.52-.97.95-1.59 1.27-9.61 5.02-18.93 11-27.81 17.77-1.37 1.04-2.72 2.1-4.07 3.18s-2.68 2.17-4 3.29q-1.98 1.665-3.93 3.39c-1.3 1.15-2.58 2.31-3.86 3.49-1.27 1.18-2.54 2.37-3.78 3.59-.63.61-1.24 1.21-1.86 1.83-2.47 2.45-4.88 4.96-7.24 7.53-.59.65-1.18 1.29-1.77 1.95 5.27.74 12.8 2.26 20.26 5.35 11.52 4.78 29.1 14.89 48.65 36.01 13.96-14.75 29.56-28.47 46.79-39.76 1.33-.87 2.94.6 2.19 2l-11.59 22.68c-.24.47-.48.95-.7 1.42l3.31-3.75 6 12.23Zm-85.37-31.06c-.95.87-2.37 1.07-3.53.5a3.214 3.214 0 0 1-.76-5.29c.95-.87 2.37-1.07 3.53-.5 2.07 1.01 2.45 3.73.76 5.29m20.89 11.87c-.95.87-2.37 1.07-3.53.5-2.07-1.01-2.45-3.73-.76-5.29.95-.87 2.37-1.07 3.53-.5a3.213 3.213 0 0 1 .76 5.29m17.72 15.35c-.95.87-2.37 1.07-3.53.5a3.214 3.214 0 0 1-.76-5.28c.95-.87 2.37-1.07 3.53-.51a3.223 3.223 0 0 1 .76 5.29" fill="#615c5f"/>
            <path d="M377.73 279.98c-.22.23-.44.46-.66.68l.61-1.35c-3.24-42.42.03-78.13.06-78.48.8-8.51 3.11-16.8 6.83-24.49l-16.99 19.2-7.24 6.16-.06.05-5.63 4.78-.32.27-.17.14-9.01 7.66 3.78 1 7.65 2.03.22.06-7.64 6.93-3.03 2.74-5.9 5.35 2.32.5 9.46 2.03 1.7.37h.01s-.01 0-.02.01c-4.73 2.53-9.9 4.82-13.55 6.22l-2.5.96-14.54 5.6 2.25.66 7.64 2.24 4.51 1.32 3.13.92 3.23.95 8.97 2.63c-6.56 6.6-13.16 10.21-16.46 11.76-1.26.59-2.05.88-2.16.92l-3.68 1.23-7.75 2.6-.33.11.16.11 3.84 2.61 4.41 3 1.88 1.28c3.33 2.29 7.51 3.77 12.48 4.45-11.28 8.8-24.45 15.1-24.63 15.19l-.72.34-29.2 13.86 22.96-1.7 10.07-.74c8.19-.61 15.97-3.15 22.9-6.49 4.7-2.26 9.01-4.89 12.8-7.52 1.73-1.2 3.35-2.4 4.85-3.56.04-.03.08-.07.13-.1 6.97-5.43 11.3-10.1 11.71-10.55l1.81-1.98v-.12l-.15-1.88ZM323.23 306s25.74-12.19 37.65-27.32c0 0-15.76 3.08-24.65-3.02 0 0 15.44-5.32 27.48-21.77l-21.35-6.27s19.7-7.57 26.48-15.08l-15.53-3.34 16.08-14.57-11.22-2.98 13.42-11.41s-3.39 36.03-.07 79.53c0 0-22.21 24.29-48.28 26.22"/>
            <path d="M377.07 280.66c.22-.23.44-.46.66-.68l-.05-.66-.61 1.35Z"/>
            <path d="m377.74 200.83 16.15-16-6-12.23-3.32 3.75a71.6 71.6 0 0 0-6.83 24.49Z" fill="#615c5f"/>
            <path d="M269.03 263.59a3.2 3.2 0 0 1-4.52.31 3.2 3.2 0 0 1-.31-4.52 3.2 3.2 0 0 1 4.52-.31 3.2 3.2 0 0 1 .31 4.52" fill="#070b0b"/>
            <g clip-path="url(#124c954d-776e-4500-9805-830ffde906c4)" style="mix-blend-mode:multiply" opacity=".5">
                <path d="M460.04 35.81s-47.13 78.57-65.21 87.61c-18.08 9.05 21.5-5.94 21.5-5.94l43.72-81.67Z" fill="#615c5f"/>
            </g>
            <path d="m224.51 220-1.88 8.85 3.2 6.6 1.57 14.01s12.74-55.56 47.12-96.43 88.44-63.2 88.44-63.2l-23.07 2.31-66.65 53.82z"/>
            <path d="M231.74 227.45c-.43 0-.87-.06-1.28-.19-.5-.15-.96-.38-1.37-.7a4.43 4.43 0 0 1-1.58-4.82c1.16-3.83 2.5-7.74 3.98-11.62.1-.48.27-.93.52-1.35 4.07-10.38 9.26-20.71 15.42-30.7.06-.14.23-.41.42-.66 4.99-8.07 10.77-16.1 17.06-23.69 13.52-16.32 28.99-30.26 45.98-41.46.3-.26.63-.48.98-.64 4.98-3.24 10.07-6.22 15.16-8.87a4.45 4.45 0 0 1 4.7.38c.53.4.96.9 1.27 1.49.54 1.04.65 2.24.3 3.37a4.38 4.38 0 0 1-2.17 2.6c-.44.23-.87.46-1.3.69.29.11.57.22.85.34 1.09.45 1.94 1.3 2.39 2.39.46 1.09.46 2.29 0 3.38a4.38 4.38 0 0 1-2.9 2.57c-.39.11-.78.16-1.18.16-.58 0-1.15-.11-1.69-.34-2.08-.86-4.15-1.3-6.15-1.3-1.71 0-3.42.32-5.06.96l-1.68 1.11c.92.27 1.84.59 2.74.97 1.09.45 1.94 1.3 2.39 2.39a4.4 4.4 0 0 1 0 3.38 4.38 4.38 0 0 1-2.9 2.57c-.39.11-.79.16-1.19.16-.58 0-1.15-.11-1.69-.34-2.09-.86-4.16-1.3-6.16-1.3-1.83 0-3.64.37-5.38 1.09-1.14.9-2.27 1.82-3.39 2.75 1.48.33 2.95.79 4.41 1.4 1.09.45 1.94 1.3 2.4 2.39a4.4 4.4 0 0 1 0 3.38 4.4 4.4 0 0 1-4.09 2.73c-.58 0-1.15-.11-1.69-.34-2.09-.87-4.16-1.3-6.16-1.3-1.81 0-3.61.36-5.35 1.08-1.09 1.04-2.16 2.09-3.23 3.15 1.98.31 3.91.87 5.83 1.66 1.09.45 1.94 1.3 2.39 2.39a4.4 4.4 0 0 1 0 3.38 4.407 4.407 0 0 1-5.77 2.39c-2.09-.86-4.16-1.3-6.16-1.3-1.81 0-3.6.36-5.33 1.07-1.83 2.07-3.64 4.2-5.38 6.34 2.35.25 4.7.87 7.03 1.83 1.09.45 1.94 1.3 2.39 2.39a4.4 4.4 0 0 1 0 3.38 4.37 4.37 0 0 1-2.91 2.57c-.38.11-.78.16-1.18.16-.58 0-1.15-.11-1.69-.34-2.09-.86-4.16-1.3-6.15-1.3-1.65 0-3.29.3-4.88.89-.96 1.32-1.89 2.65-2.82 3.99 2.57.2 5.16.83 7.71 1.89 1.09.45 1.94 1.3 2.39 2.39a4.4 4.4 0 0 1 0 3.38 4.38 4.38 0 0 1-2.91 2.57c-.38.11-.78.16-1.18.16-.58 0-1.15-.11-1.69-.34-2.09-.86-4.16-1.3-6.16-1.3-1.45 0-2.89.23-4.3.69-1.48 2.43-2.91 4.9-4.27 7.36 2.94.09 5.91.75 8.83 1.96 2.26.93 3.33 3.52 2.4 5.78a4.407 4.407 0 0 1-5.77 2.39c-2.09-.87-4.16-1.3-6.16-1.3-1.41 0-2.8.22-4.17.65-.72 1.5-1.41 3.01-2.08 4.51h.03c3.17 0 6.37.66 9.52 1.96 2.25.93 3.33 3.52 2.4 5.78a4.38 4.38 0 0 1-2.91 2.57 4.46 4.46 0 0 1-2.87-.17c-2.09-.86-4.15-1.3-6.15-1.3-1.3 0-2.61.19-3.88.56-1.23 3.27-2.35 6.58-3.33 9.84a4.4 4.4 0 0 1-2.14 2.61c-.64.35-1.37.53-2.09.53" fill="#ffffff"/>
            <path d="M329.08 104.01c.57 0 1.14.18 1.61.53.32.24.58.55.77.91.33.63.4 1.36.18 2.05-.22.68-.68 1.24-1.32 1.57-1.69.88-3.37 1.8-5.04 2.74 1.51.29 3.09.75 4.73 1.43 1.37.57 2.02 2.14 1.45 3.51a2.7 2.7 0 0 1-2.48 1.66c-.34 0-.69-.07-1.02-.2-2.31-.95-4.59-1.43-6.82-1.43-1.99 0-3.96.38-5.87 1.15-1.75 1.15-3.5 2.33-5.22 3.55 2 .23 4.15.75 6.43 1.69 1.37.57 2.02 2.13 1.45 3.5-.33.8-.99 1.35-1.76 1.56-.23.07-.47.1-.72.1-.34 0-.69-.07-1.02-.2-2.31-.96-4.59-1.43-6.82-1.43s-4.24.44-6.28 1.32c-2.23 1.77-4.43 3.59-6.59 5.46 2.39.11 5.03.64 7.85 1.81 1.37.57 2.02 2.14 1.45 3.5-.33.8-.99 1.35-1.76 1.56-.23.06-.47.1-.72.1-.34 0-.69-.07-1.02-.2-2.31-.96-4.59-1.43-6.82-1.43s-4.25.44-6.29 1.33h-.03a206 206 0 0 0-6.12 6.08h.17c2.65 0 5.63.5 8.85 1.83 1.37.57 2.02 2.13 1.45 3.5-.33.8-.99 1.35-1.76 1.56-.23.07-.47.1-.72.1-.34 0-.69-.07-1.02-.2-2.31-.96-4.59-1.43-6.82-1.43s-4.25.44-6.29 1.32c-.03.01-.05.02-.08.03-2.72 3.06-5.35 6.21-7.89 9.42.34-.02.69-.03 1.04-.03 2.65 0 5.63.5 8.86 1.83 1.37.57 2.02 2.14 1.45 3.51a2.7 2.7 0 0 1-2.48 1.66c-.34 0-.69-.07-1.02-.21-2.31-.95-4.58-1.43-6.81-1.43-2.04 0-4.04.4-5.99 1.2-1.71 2.35-3.37 4.73-4.97 7.14.47-.03.96-.05 1.45-.05 2.65 0 5.63.5 8.85 1.83 1.37.57 2.02 2.13 1.45 3.5-.33.8-.99 1.35-1.76 1.56-.23.07-.47.1-.72.1-.34 0-.69-.07-1.02-.2-2.31-.96-4.59-1.43-6.82-1.43q-2.79 0-5.46.99a202 202 0 0 0-6.09 10.65c.73-.08 1.5-.12 2.29-.12 2.65 0 5.63.5 8.85 1.83 1.37.57 2.02 2.13 1.45 3.5-.33.8-1 1.35-1.76 1.56-.23.07-.47.1-.72.1-.34 0-.69-.07-1.02-.2-2.31-.96-4.59-1.43-6.82-1.43-1.84 0-3.65.33-5.42.98-1.26 2.6-2.44 5.21-3.57 7.84.88-.12 1.8-.18 2.77-.18 2.65 0 5.63.5 8.86 1.83 1.37.57 2.02 2.13 1.45 3.5-.33.8-.99 1.35-1.76 1.56-.23.07-.47.1-.72.1-.34 0-.69-.07-1.02-.2-2.31-.96-4.59-1.43-6.82-1.43-1.77 0-3.51.3-5.21.9q-2.04 5.34-3.66 10.74c-.21.68-.67 1.25-1.3 1.59-.4.21-.83.32-1.26.32q-.39 0-.78-.12a2.6 2.6 0 0 1-.83-.42c-.9-.67-1.28-1.85-.96-2.92 1.17-3.89 2.51-7.77 4-11.65.06-.37.2-.73.4-1.04 4.05-10.36 9.21-20.62 15.34-30.57.08-.17.18-.34.31-.49a214 214 0 0 1 17.04-23.66c13.41-16.18 28.99-30.18 45.71-41.18.22-.2.47-.37.76-.5 4.95-3.22 10-6.19 15.12-8.86.39-.2.81-.3 1.24-.3m-.01-3.53c-.99 0-1.98.24-2.85.7-5.1 2.67-10.22 5.66-15.21 8.9-.42.21-.8.46-1.17.76-17.1 11.28-32.66 25.32-46.28 41.74-6.31 7.61-12.1 15.65-17.23 23.91a4.7 4.7 0 0 0-.46.75c-6.16 10.01-11.35 20.34-15.44 30.74-.28.5-.49 1.04-.62 1.6-1.49 3.89-2.82 7.8-3.98 11.62-.74 2.47.14 5.16 2.2 6.71.58.43 1.22.76 1.92.97.58.17 1.18.26 1.78.26 1.01 0 2.01-.25 2.91-.74a6.14 6.14 0 0 0 2.99-3.65c.89-2.93 1.88-5.91 2.98-8.88.85-.19 1.71-.28 2.57-.28 1.77 0 3.61.39 5.49 1.17.75.31 1.54.47 2.35.47.56 0 1.11-.08 1.65-.22a6.14 6.14 0 0 0 4.05-3.58 6.13 6.13 0 0 0 0-4.72 6.1 6.1 0 0 0-3.34-3.33c-2.5-1.04-5.05-1.69-7.59-1.96.22-.48.45-.97.68-1.45.97-.24 1.95-.37 2.94-.37 1.77 0 3.61.39 5.49 1.17.75.31 1.54.47 2.35.47.56 0 1.11-.08 1.65-.23a6.14 6.14 0 0 0 4.05-3.58c.63-1.52.63-3.19 0-4.71a6.1 6.1 0 0 0-3.34-3.33c-2.2-.91-4.43-1.53-6.66-1.84.84-1.47 1.7-2.93 2.58-4.39 1.04-.28 2.1-.43 3.16-.43 1.77 0 3.61.4 5.49 1.17.75.31 1.54.47 2.35.47a6.14 6.14 0 0 0 5.7-3.8c.63-1.52.63-3.19 0-4.71a6.06 6.06 0 0 0-3.34-3.33c-1.76-.73-3.54-1.27-5.32-1.62.28-.4.57-.8.85-1.19 1.24-.41 2.52-.61 3.79-.61 1.77 0 3.61.39 5.48 1.17.75.31 1.54.47 2.35.47.56 0 1.11-.08 1.65-.22a6.14 6.14 0 0 0 4.05-3.58c.63-1.52.63-3.2 0-4.72s-1.82-2.71-3.34-3.33c-1.47-.61-2.95-1.08-4.43-1.43q1.56-1.86 3.15-3.66c1.4-.53 2.85-.8 4.31-.8 1.77 0 3.62.39 5.49 1.17a6.2 6.2 0 0 0 4 .25 6.14 6.14 0 0 0 4.05-3.58c.63-1.52.63-3.19 0-4.71a6.06 6.06 0 0 0-3.34-3.33c-.99-.41-1.99-.76-3-1.06l.69-.66c1.43-.55 2.91-.83 4.39-.83 1.77 0 3.62.4 5.49 1.17.75.31 1.54.47 2.35.47.56 0 1.11-.08 1.65-.23a6.14 6.14 0 0 0 4.05-3.58c.63-1.52.63-3.19 0-4.71a6.06 6.06 0 0 0-3.34-3.33c-.47-.2-.94-.37-1.41-.54l.6-.48c1.47-.58 2.98-.87 4.5-.87 1.77 0 3.62.39 5.49 1.17a6.2 6.2 0 0 0 4 .25 6.14 6.14 0 0 0 4.05-3.58 6.13 6.13 0 0 0 0-4.72 6.13 6.13 0 0 0-2.32-2.8c.77-.15 1.54-.23 2.31-.23 1.77 0 3.61.39 5.49 1.17.75.31 1.54.47 2.35.47.55 0 1.11-.08 1.65-.23a6.14 6.14 0 0 0 4.05-3.58c.63-1.52.63-3.19 0-4.71-.34-.81-.83-1.53-1.45-2.11.8-.73 1.4-1.66 1.73-2.71.5-1.57.35-3.24-.42-4.7a6.2 6.2 0 0 0-1.76-2.08 6.16 6.16 0 0 0-3.7-1.23"/>
            <g clip-path="url(#dc630199-5f97-4a77-9400-df0f2d72df52)" style="mix-blend-mode:multiply" opacity=".24">
                <path d="M235.68 330.11s9.38 1.23 6.8-19.38c-2.58-20.62-9.92-95.04 43.87-151.34 0 0-8.04 10.72-7 20.52 0 0 70.53-77.11 118.54-88.21 19.72-4.56 26.03 1.91 29.5 26.18 6.18 43.21-6.9 86.97-35.31 120.11l-16.81 19.61.53-90.64s-64.37 67.26-77.87 93.86-34.62 66.81-34.62 66.81-25.25 8.77-28.04 4.75" fill="#615c5f"/>
            </g>
            <g clip-path="url(#3adbd8e0-dc1b-45ff-9e95-8bd33c7271cd)" style="mix-blend-mode:multiply" opacity=".24">
                <path d="M229.31 225.7s.69.92 2.98-4.58c1.59-3.82 2.74-7.87 3.3-9.98.25-.93.99-1.64 1.93-1.83 3.88-.78 13.79-2.16 15.85 3.56 1.94 5.4-10.77-.92-10.77-.92l-3.44 1.37-3.66 11.22-6.19 1.15Z" fill="#615c5f"/>
            </g>
            <path d="M427.51 136.29c-11.87-2.49-23.28-7.66-32.99-14.93a83 83 0 0 1-22.76-25.97l-6.24-10.42 15.44-4.35 3.7 7.75c9.66 17.17 26.41 29.46 45.87 33.55l10.02 2.41.22 14.75-13.25-2.78Z" fill="#ffffff"/>
            <path d="m379.39 84.07 2.65 5.55a71.84 71.84 0 0 0 47.89 35.13l7.74 1.86.13 8.88-9.7-2.04a80.7 80.7 0 0 1-31.85-14.42 80.7 80.7 0 0 1-21.97-25.06l-4.33-7.24zm3.12-6.91-4.7 1.32-9.44 2.66-7.29 2.06 3.89 6.5 4.3 7.17a86.1 86.1 0 0 0 23.51 26.8c10.04 7.53 21.85 12.87 34.13 15.45l9.7 2.04 7.1 1.49-.11-7.25-.13-8.87-.07-4.5-4.37-1.05-7.74-1.86-.08-.02-.08-.02a66.04 66.04 0 0 1-43.93-32.14l-2.57-5.37-2.11-4.41Z" fill="#070b0b"/>
            <g clip-path="url(#ca9e8f14-bdc5-49c1-ba62-884f20f9d063)" style="mix-blend-mode:multiply" opacity=".24">
                <path d="M242.09 204.09s-2.53 5.39 0 0c1.18-2.52 1.69-4.35 1.9-5.59.23-1.32 1.3-2.31 2.63-2.48 4.38-.58 13.04-1 14.72 4.38 1.71 5.48-10.72-1.38-10.72-1.38l-3.49 1.23-5.04 3.85Z" fill="#615c5f"/>
            </g>
            <g clip-path="url(#58c56ad6-b3e2-4da7-90e7-4d6fe87914a6)" style="mix-blend-mode:multiply" opacity=".24">
                <path d="M250.99 186.64s-2.8 5.25 0 0c1.46-2.74 2.05-4.67 2.27-5.89.19-1.02.98-1.79 2.01-1.88 4.13-.4 13.66-.66 15.12 5.09 1.42 5.56-10.63-1.94-10.63-1.94l-3.55 1.04-5.23 3.58Z" fill="#615c5f"/>
            </g>
            <g clip-path="url(#c4551cc3-0da6-4706-b389-91af53f431dd)" style="mix-blend-mode:multiply" opacity=".24">
                <path d="M259.92 173.32s-2.8 5.25 0 0c1.48-2.78 2.07-4.73 2.29-5.95.18-.98.95-1.72 1.95-1.82 4.1-.4 13.7-.69 15.18 5.08 1.42 5.56-10.63-1.94-10.63-1.94l-3.55 1.04-5.23 3.58Z" fill="#615c5f"/>
            </g>
            <g clip-path="url(#b935b74a-cdb7-417e-b56f-467fa025a95d)" style="mix-blend-mode:multiply" opacity=".24">
                <path d="M272.61 157.44s-2.29 5.5 0 0c1.28-3.08 1.65-5.14 1.72-6.35.05-.87.69-1.57 1.55-1.74 3.92-.78 13.74-2.13 15.79 3.57 1.94 5.4-10.77-.92-10.77-.92l-3.44 1.38-4.87 4.07Z" fill="#615c5f"/>
            </g>
            <g clip-path="url(#52b0aef6-6654-4da9-ae42-120ce1fbfb19)" style="mix-blend-mode:multiply" opacity=".24">
                <path d="M285.66 144.55s-2.29 5.5 0 0c1.15-2.75 1.56-4.68 1.69-5.93.12-1.15 1.02-2.07 2.15-2.28 4.22-.78 13.27-1.76 15.23 3.68 1.94 5.4-10.77-.92-10.77-.92l-3.44 1.38-4.87 4.07Z" fill="#615c5f"/>
            </g>
            <g clip-path="url(#23449554-5e63-4b1a-850a-9bd78413874c)" style="mix-blend-mode:multiply" opacity=".24">
                <path d="M299.23 132.18s-2.29 5.5 0 0c1.2-2.88 1.6-4.86 1.71-6.1.09-1.02.8-1.84 1.81-2.04 4.06-.79 13.55-1.98 15.56 3.62 1.94 5.4-10.77-.92-10.77-.92l-3.44 1.38-4.87 4.07Z" fill="#615c5f"/>
            </g>
            <g clip-path="url(#94245364-1225-4aeb-a8ab-0ff5ee538a8d)" style="mix-blend-mode:multiply" opacity=".24">
                <path d="M315.33 118.15s-1.95 3.09-.69 2.06c4.61-3.77-1.32-5.1-1.32-5.1s14.83-3.95 17.41 3.21c1.94 5.4-10.77-.92-10.77-.92l-3.44 1.38-3.32 1.32 2.12-1.95Z" fill="#615c5f"/>
            </g>
            <path d="M368.43 37.66a42.7 42.7 0 0 0-11.21 8.4 42.8 42.8 0 0 0-9.67 16c-.37 1.08-.68 2.18-.96 3.29a43 43 0 0 0-1.23 8.52c-.07 1.74-.04 3.49.1 5.25s.4 3.52.76 5.29l1.22 5.86c5.31-2.07 10.76-4.06 16.14-5.94.49-.17.98-.34 1.46-.51.98-.34 1.95-.67 2.92-1 .48-.16.97-.33 1.45-.49.96-.33 1.92-.65 2.88-.97 6.2-2.07 12.14-3.96 17.5-5.61l2.43-.74c.4-.12.79-.24 1.18-.36 12.09-3.66 20.41-5.89 20.41-5.89l-3.83-56.75-41.56 25.67Z" fill="#ffffff"/>
            <path d="M451.78 158.81q2.595-.54 5.07-1.38c1.1-.37 2.18-.79 3.24-1.24 1.59-.68 3.12-1.46 4.61-2.33.99-.58 1.95-1.19 2.89-1.84 4.68-3.26 8.69-7.44 11.76-12.29a45 45 0 0 0 2.5-4.55c1.49-3.15 2.61-6.51 3.3-10.04l12.98-47.09-55.55 12.24s.2 8.61.07 21.24c0 .41 0 .82-.01 1.24 0 .83-.02 1.68-.03 2.54a773 773 0 0 1-.6 21.41c-.02.51-.04 1.02-.07 1.53-.05 1.02-.09 2.05-.14 3.08-.03.52-.05 1.03-.08 1.55-.3 5.69-.68 11.48-1.18 17.16l5.97-.47a42 42 0 0 0 5.29-.75" fill="#ffffff"/>
            <g clip-path="url(#24893d47-b3fa-475d-8d56-245d8389bad6)" style="mix-blend-mode:multiply" opacity=".24">
                <path d="M440.04 147.75s3.39 3.53 13.05-.96c9.93-4.61 17.13-13.6 19.73-24.24l10.24-42.02 17.97-4.63-19.24 68.11-46.59 26.14 4.84-22.38Z" fill="#615c5f"/>
            </g>
            <g clip-path="url(#fa31b96e-a5ad-4cfb-96f2-195b6cd20991)" style="mix-blend-mode:multiply" opacity=".24">
                <path d="M235.68 330.11s9.38 1.23 6.8-19.38c-2.58-20.62-9.92-95.04 43.87-151.34 0 0-8.04 10.72-7 20.52 0 0 70.53-77.11 118.54-88.21 19.72-4.56 26.03 1.91 29.5 26.18 6.18 43.21-6.9 86.97-35.31 120.11l-16.81 19.61.53-90.64s-64.37 67.26-77.87 93.86-34.62 66.81-34.62 66.81-25.25 8.77-28.04 4.75" fill="#615c5f"/>
            </g>
            <path d="M396.84 126.61c-1.25 0-2.5-.42-3.51-1.18a5.84 5.84 0 0 1-2.33-5.19l.52-6.19c.63-7.42 3.83-14.45 9.01-19.8l57.56-59.38a2.5 2.5 0 0 1 1.8-.76 2.508 2.508 0 0 1 2.19 3.75l-40.85 71.91a32.47 32.47 0 0 1-16.47 14.2l-5.79 2.24c-.68.27-1.4.4-2.12.4" fill="#ffffff"/>
            <path d="M459.89 36.63h.01m-.01 0-40.85 71.91a29.83 29.83 0 0 1-15.19 13.1l-5.79 2.24c-.41.16-.82.23-1.22.23a3.353 3.353 0 0 1-3.34-3.64l.52-6.19c.58-6.86 3.51-13.31 8.31-18.26l57.56-59.38m0-5.04h-.14c-.86.02-1.66.26-2.36.66-.4.23-.78.52-1.12.87l-57.56 59.38a34.96 34.96 0 0 0-9.71 21.33l-.52 6.19c-.25 2.9 1 5.67 3.32 7.42a8.46 8.46 0 0 0 5.02 1.68q1.56 0 3.03-.57l5.79-2.24a34.98 34.98 0 0 0 17.75-15.3l40.74-71.71c.49-.78.77-1.69.77-2.68 0-2.77-2.23-5.01-4.99-5.03h-.03m.01 10.05h.01z" fill="#070b0b"/>
            <path d="M396.84 126.61c-1.25 0-2.5-.42-3.51-1.18a5.84 5.84 0 0 1-2.33-5.19l.52-6.19c.63-7.42 3.83-14.45 9.01-19.8l57.56-59.38a2.5 2.5 0 0 1 1.8-.76 2.508 2.508 0 0 1 2.19 3.75l-40.85 71.91a32.47 32.47 0 0 1-16.47 14.2l-5.79 2.24c-.68.27-1.4.4-2.12.4" fill="#ffffff"/>
            <path d="M459.89 36.63h.01m-.01 0-40.85 71.91a29.83 29.83 0 0 1-15.19 13.1l-5.79 2.24c-.41.16-.82.23-1.22.23a3.353 3.353 0 0 1-3.34-3.64l.52-6.19c.58-6.86 3.51-13.31 8.31-18.26l57.56-59.38m0-5.04h-.14c-.86.02-1.66.26-2.36.66-.4.23-.78.52-1.12.87l-57.56 59.38a34.96 34.96 0 0 0-9.71 21.33l-.52 6.19c-.25 2.9 1 5.67 3.32 7.42a8.46 8.46 0 0 0 5.02 1.68q1.56 0 3.03-.57l5.79-2.24a34.98 34.98 0 0 0 17.75-15.3l40.74-71.71c.49-.78.77-1.69.77-2.68 0-2.77-2.23-5.01-4.99-5.03h-.03m.01 10.05h.01z" fill="#070b0b"/>
            <path d="M280.07 218.22c-.09.85-.18 1.67-.27 2.47 4.51 3.12 8.5 2.73 8.5 2.73-3.66 4.29-7.14 6.56-9.69 7.76-.31 2.5-.59 4.63-.89 6.47 6.42-4.01 13.15-9.91 15.54-17.89 4.67-15.62-5.07-24.33-5.76-24.91l-1.05-.82c-2.37 3.89-4.87 10.29-6 20.68z" fill="#ec232e"/>
            <path d="m292.49 202.41-.35-1.25c-1.91-3.88-4.32-6.03-4.64-6.31l-1.05-.82c-2.37 3.88-4.86 10.29-6 20.68l-.38 3.51c-.09.85-.18 1.67-.27 2.47 1.26.87 2.47 1.47 3.57 1.87.76-3.53 2.46-11.14 4.35-17.64 2.55-8.79 4.77-2.51 4.77-2.51" fill="#ef3f4f"/>
            <g clip-path="url(#17b9cc03-d1a1-477d-b2ed-e6e859164f4d)" style="mix-blend-mode:multiply" opacity=".24">
                <path d="M393.48 121.87c7.82-6.14 14.74-13.35 20.54-21.42l45.87-63.82-37.56 72.72-21.77 16.69s-7.25 3.27-7.07-4.17" fill="#615c5f"/>
            </g>
        </g>
    </g>
</svg>
